SplineFontDB: 3.2
FontName: Fitenkasunti
FullName: Fitenkasunti
FamilyName: Fitenkasunti
Weight: Regular
Copyright: Kinboise 20231014
UComments: "2023-10-14 Fitenkage+dR9iEAAA"
Version: 001.000
ItalicAngle: 0
UnderlinePosition: -100
UnderlineWidth: 50
Ascent: 800
Descent: 200
InvalidEm: 0
LayerCount: 2
Layer: 0 0 "Back" 1
Layer: 1 0 "Fore" 0
XUID: [1021 729 -2107381471 23281]
FSType: 0
OS2Version: 0
OS2_WeightWidthSlopeOnly: 0
OS2_UseTypoMetrics: 1
CreationTime: 1697249362
ModificationTime: 1697267047
PfmFamily: 17
TTFWeight: 400
TTFWidth: 5
LineGap: 90
VLineGap: 0
OS2TypoAscent: 0
OS2TypoAOffset: 1
OS2TypoDescent: 0
OS2TypoDOffset: 1
OS2TypoLinegap: 90
OS2WinAscent: 0
OS2WinAOffset: 1
OS2WinDescent: 0
OS2WinDOffset: 1
HheadAscent: 0
HheadAOffset: 1
HheadDescent: 0
HheadDOffset: 1
OS2Vendor: 'PfEd'
MarkAttachClasses: 1
DEI: 91125
LangName: 1033
Encoding: ISO8859-1
Compacted: 1
UnicodeInterp: none
NameList: AGL For New Fonts
DisplaySize: -48
AntiAlias: 1
FitToEm: 0
WinInfo: 1026 38 12
BeginPrivate: 0
EndPrivate
TeXData: 1 0 0 346030 173015 115343 0 1048576 115343 783286 444596 497025 792723 393216 433062 380633 303038 157286 324010 404750 52429 2506097 1059062 262144
BeginChars: 1934 1678

StartChar: glyph0
Encoding: 256 983072 0
Width: 1000
VWidth: 0
Flags: W
LayerCount: 2
Fore
SplineSet
289.421749696 248.146840826 m 1
 293 230 l 1
 275.5 233.5 l 1
 226 269 l 1
 233 276 l 1
 283.5 324 l 1
 333.5 372 l 1
 384 420 l 1
 435 468 l 1
 485.5 516 l 1
 536.5 564 l 1
 588 612 l 1
 640 659.5 l 1
 692.5 706 l 1
 745.5 752.5 l 1
 752 746 l 1
 705.5 693 l 1
 659 640.5 l 1
 611.5 588.5 l 1
 563.5 537 l 1
 515.5 486 l 1
 467.5 435.5 l 1
 419.5 384.5 l 1
 371.5 334 l 1
 323.5 284 l 1
 289.421749696 248.146840826 l 1
EndSplineSet
EndChar

StartChar: glyph1
Encoding: 257 983073 1
Width: 1000
VWidth: 0
Flags: W
LayerCount: 2
Fore
SplineSet
233 324.5 m 1
 231.5 326 l 1
 275.5 367 l 1
 293 370.5 l 1
 288.723351728 353.087932036 l 1
 323.5 316.5 l 1
 371.5 266.5 l 1
 419.5 216 l 1
 467.5 165 l 1
 515.5 114.5 l 1
 563.5 63.5 l 1
 611.5 12 l 1
 659 -40 l 1
 705.5 -92.5 l 1
 752 -145.5 l 1
 745.5 -152 l 1
 692.5 -105.5 l 1
 640 -59 l 1
 588 -11.5 l 1
 536.5 36.5 l 1
 485.5 84.5 l 1
 435 132.5 l 1
 384 180.5 l 1
 333.5 228.5 l 1
 283.5 276.5 l 1
 236.581346841 321.095947557 l 1
 236.5 321 l 1
 233 324.5 l 1
EndSplineSet
EndChar

StartChar: glyph2
Encoding: 258 983074 2
Width: 1000
VWidth: 0
Flags: W
HStem: 90 20<251 639>
LayerCount: 2
Fore
SplineSet
639 110 m 1
 689 160 l 1
 749 110 l 1
 749 90 l 1
 251 90 l 1
 251 110 l 1
 639 110 l 1
EndSplineSet
EndChar

StartChar: glyph3
Encoding: 259 983075 3
Width: 1000
VWidth: 0
Flags: W
LayerCount: 2
Fore
SplineSet
724 367 m 1
 725.5 368.5 l 1
 766.5 324.5 l 1
 770 307 l 1
 752.587932036 311.276648272 l 1
 716 276.5 l 1
 666 228.5 l 1
 615.5 180.5 l 1
 564.5 132.5 l 1
 514 84.5 l 1
 463 36.5 l 1
 411.5 -11.5 l 1
 359.5 -59 l 1
 307 -105.5 l 1
 254 -152 l 1
 247.5 -145.5 l 1
 294 -92.5 l 1
 340.5 -40 l 1
 388 12 l 1
 436 63.5 l 1
 484 114.5 l 1
 532 165 l 1
 580 216 l 1
 628 266.5 l 1
 676 316.5 l 1
 720.595947557 363.418653159 l 1
 720.5 363.5 l 1
 724 367 l 1
EndSplineSet
EndChar

StartChar: glyph4
Encoding: 260 983076 4
Width: 1000
VWidth: 0
Flags: W
LayerCount: 2
Fore
SplineSet
257.5 750.5 m 1
 301.5 726.5 l 1
 346.5 697.5 l 1
 393.5 662.5 l 1
 441.5 622.5 l 1
 491 577.5 l 1
 542 528 l 1
 595 473.5 l 1
 649.5 414 l 1
 705.5 350.5 l 1
 763 281.5 l 1
 769 259.5 l 1
 758 239.5 l 1
 736 233.5 l 1
 716 244.5 l 1
 661.5 314 l 1
 608.5 379 l 1
 557.5 440 l 1
 508.5 496 l 1
 461 547.5 l 1
 415.5 594.5 l 1
 371.5 637.5 l 1
 330 676.5 l 1
 290 711.5 l 1
 252.5 743 l 1
 257.5 750.5 l 1
EndSplineSet
EndChar

StartChar: glyph5
Encoding: 261 983077 5
Width: 1000
VWidth: 0
Flags: W
LayerCount: 2
Fore
SplineSet
257.5 750.5 m 1
 301.5 726.5 l 1
 346.5 697.5 l 1
 393.5 662.5 l 1
 441.5 622.5 l 1
 491 577.5 l 1
 520.461538462 548.904977376 l 1
 536.5 564 l 1
 588 612 l 1
 640 659.5 l 1
 692.5 706 l 1
 745.5 752.5 l 1
 752 746 l 1
 705.5 693 l 1
 659 640.5 l 1
 611.5 588.5 l 1
 563.5 537 l 1
 548.621263395 521.191342358 l 1
 595 473.5 l 1
 649.5 414 l 1
 705.5 350.5 l 1
 763 281.5 l 1
 769 259.5 l 1
 758 239.5 l 1
 736 233.5 l 1
 716 244.5 l 1
 661.5 314 l 1
 608.5 379 l 1
 557.5 440 l 1
 516.406882591 486.963562753 l 1
 515.5 486 l 1
 467.5 435.5 l 1
 419.5 384.5 l 1
 371.5 334 l 1
 323.5 284 l 1
 289.421749696 248.146840826 l 1
 293 230 l 1
 275.5 233.5 l 1
 226 269 l 1
 233 276 l 1
 283.5 324 l 1
 333.5 372 l 1
 384 420 l 1
 435 468 l 1
 485.5 516 l 1
 487.937480893 518.294099664 l 1
 461 547.5 l 1
 415.5 594.5 l 1
 371.5 637.5 l 1
 330 676.5 l 1
 290 711.5 l 1
 252.5 743 l 1
 257.5 750.5 l 1
EndSplineSet
EndChar

StartChar: glyph6
Encoding: 262 983078 6
Width: 1000
VWidth: 0
Flags: W
HStem: 490 20<251 639>
LayerCount: 2
Fore
SplineSet
639 510 m 1
 689 560 l 1
 749 510 l 1
 749 490 l 1
 251 490 l 1
 251 510 l 1
 639 510 l 1
EndSplineSet
EndChar

StartChar: glyph7
Encoding: 263 983079 7
Width: 1000
VWidth: 0
Flags: W
LayerCount: 2
Fore
SplineSet
855 300 m 1
 850 356 l 1
 836 409.5 l 1
 814 460 l 1
 784.5 506.5 l 1
 748 548.5 l 1
 706 585 l 1
 659.5 614.5 l 1
 609 636.5 l 1
 555.5 650.5 l 1
 500 655 l 1
 444 650.5 l 1
 390.5 636.5 l 1
 340 614.5 l 1
 293.5 585 l 1
 251.5 548.5 l 1
 215 506.5 l 1
 185.5 460 l 1
 163.5 409.5 l 1
 149.5 356 l 1
 145 300 l 1
 149.5 244.5 l 1
 163.5 191 l 1
 185.5 140.5 l 1
 215 94 l 1
 251.5 52 l 1
 293.5 15.5 l 1
 340 -14 l 1
 390.5 -36 l 1
 444 -50 l 1
 500 -55 l 1
 555.5 -50 l 1
 609 -36 l 1
 659.5 -14 l 1
 706 15.5 l 1
 748 52 l 1
 784.5 94 l 1
 814 140.5 l 1
 836 191 l 1
 850 244.5 l 1
 855 300 l 1
895 300 m 1
 889.5 237.5 l 1
 874 178 l 1
 849 121.5 l 1
 816.5 70 l 1
 776.5 23.5 l 1
 730 -16.5 l 1
 678.5 -49 l 1
 622 -74 l 1
 562.5 -89.5 l 1
 500 -95 l 1
 437 -89.5 l 1
 377.5 -74 l 1
 321 -49 l 1
 269.5 -16.5 l 1
 223 23.5 l 1
 183 70 l 1
 150.5 121.5 l 1
 125.5 178 l 1
 110 237.5 l 1
 105 300 l 1
 110 363 l 1
 125.5 422.5 l 1
 150.5 479 l 1
 183 530.5 l 1
 223 577 l 1
 269.5 617 l 1
 321 649.5 l 1
 377.5 674.5 l 1
 437 690 l 1
 500 695 l 1
 562.5 690 l 1
 622 674.5 l 1
 678.5 649.5 l 1
 730 617 l 1
 776.5 577 l 1
 816.5 530.5 l 1
 849 479 l 1
 874 422.5 l 1
 889.5 363 l 1
 895 300 l 1
EndSplineSet
EndChar

StartChar: glyph8
Encoding: 264 983080 8
Width: 1000
VWidth: 0
Flags: W
HStem: -60 20<70 470 530 820> 605 20<135 470 530 755>
VStem: 470 60<-40 605>
LayerCount: 2
Fore
SplineSet
820 -40 m 1
 870 10 l 1
 930 -40 l 1
 930 -60 l 1
 530 -60 l 1
 470 -60 l 1
 70 -60 l 1
 70 -40 l 1
 470 -40 l 1
 470 605 l 1
 135 605 l 1
 135 625 l 1
 470 625 l 1
 530 625 l 1
 755 625 l 1
 805 675 l 1
 865 625 l 1
 865 605 l 1
 530 605 l 1
 530 -40 l 1
 820 -40 l 1
EndSplineSet
EndChar

StartChar: glyph9
Encoding: 265 983081 9
Width: 1000
VWidth: 0
Flags: W
HStem: -60 20<165 835>
VStem: 105 60<-120 -60 -40 626> 835 60<-90 -60 -40 626>
LayerCount: 2
Fore
SplineSet
895 626 m 1
 895 -90 l 1
 835 -120 l 1
 835 -60 l 1
 165 -60 l 1
 165 -120 l 1
 105 -150 l 1
 105 655 l 1
 165 645 l 1
 180 635 l 1
 165 626 l 1
 165 -40 l 1
 835 -40 l 1
 835 655 l 1
 895 645 l 1
 910 635 l 1
 895 626 l 1
EndSplineSet
EndChar

StartChar: glyph10
Encoding: 266 983082 10
Width: 1000
VWidth: 0
Flags: W
HStem: -60 20<355 645> 395 20<95 295 355 645 705 800>
VStem: 295 60<-120 -60 -40 395 415 661> 645 60<-90 -60 -40 395 415 661>
LayerCount: 2
Fore
SplineSet
800 415 m 1
 850 465 l 1
 910 415 l 1
 910 395 l 1
 705 395 l 1
 705 -90 l 1
 645 -120 l 1
 645 -60 l 1
 355 -60 l 1
 355 -120 l 1
 295 -150 l 1
 295 395 l 1
 95 395 l 1
 95 415 l 1
 295 415 l 1
 295 690 l 1
 355 680 l 1
 370 670 l 1
 355 661 l 1
 355 415 l 1
 645 415 l 1
 645 690 l 1
 705 680 l 1
 720 670 l 1
 705 661 l 1
 705 415 l 1
 800 415 l 1
645 395 m 1
 355 395 l 1
 355 -40 l 1
 645 -40 l 1
 645 395 l 1
EndSplineSet
EndChar

StartChar: glyph11
Encoding: 267 983083 11
Width: 1000
VWidth: 0
Flags: W
LayerCount: 2
Fore
SplineSet
885 -119.5 m 1
 810 -73.5 l 1
 743.5 -19.5 l 1
 685.5 43 l 1
 636 113 l 1
 595 191.5 l 1
 562.5 277.5 l 1
 539 370.5 l 1
 523.5 471.5 l 1
 519.464166577 538.556924567 l 1
 509.5 458.5 l 1
 486.5 351.5 l 1
 454.5 254 l 1
 413.5 165.5 l 1
 364 87 l 1
 306 18.5 l 1
 239.5 -40 l 1
 164.5 -87.5 l 1
 81.5 -124 l 1
 78 -115.5 l 1
 154.5 -71 l 1
 222.5 -19 l 1
 282 41 l 1
 333 108.5 l 1
 376 185 l 1
 410.5 270 l 1
 437.5 364 l 1
 456.5 466.5 l 1
 467 579 l 1
 470 700 l 1
 470 712 l 1
 530 700 l 1
 545 690 l 1
 530.100502513 681.060301508 l 1
 538 581 l 1
 552.5 475.5 l 1
 574 379 l 1
 602 291 l 1
 637 211.5 l 1
 679 141 l 1
 727.5 78.5 l 1
 783 24.5 l 1
 845 -22 l 1
 914.5 -60 l 1
 941.5 -73.5 l 1
 885 -119.5 l 1
EndSplineSet
EndChar

StartChar: glyph12
Encoding: 268 983084 12
Width: 1000
VWidth: 0
Flags: W
HStem: 425 20<85 463.071 531.826 805>
VStem: 470 60<452.5 696> 521.59 10.2364<402 425>
LayerCount: 2
Fore
SplineSet
870 -114 m 1xa0
 811.5 -79 l 1
 758 -39.5 l 1
 709.5 4.5 l 1
 666.5 53 l 1
 628.5 105.5 l 1
 595.5 162.5 l 1
 568.5 223.5 l 1
 546.5 288 l 1
 530.5 357 l 1
 521.589655172 425 l 1xa0
 519.703125 425 l 1
 509 356.5 l 1
 485 268 l 1
 452 187 l 1
 410 114 l 1
 359.5 48.5 l 1
 300 -8.5 l 1
 232 -57.5 l 1
 155.5 -97.5 l 1
 71.5 -129 l 1
 68 -120.5 l 1
 147 -80.5 l 1
 217 -35 l 1
 278 16 l 1
 330.5 73 l 1
 374.5 136.5 l 1
 410 206.5 l 1
 437 283 l 1
 456 366.5 l 1
 463.071428571 425 l 1
 85 425 l 1
 85 445 l 1
 465.489010989 445 l 1
 467 457.5 l 1
 470 555 l 1
 470 725 l 1
 530 715 l 1
 545 705 l 1
 530 696 l 1
 530 555 l 1xc0
 524 452.5 l 1
 522.828125 445 l 1
 805 445 l 1
 855 495 l 1
 915 445 l 1
 915 425 l 1
 531.826086957 425 l 1
 551 362 l 1
 574.5 297.5 l 1
 601.5 238 l 1
 632 183 l 1
 666.5 132.5 l 1
 705 86.5 l 1
 747.5 44.5 l 1
 794 7 l 1
 845 -26 l 1
 899.5 -55.5 l 1
 926 -69 l 1
 870 -114 l 1xa0
EndSplineSet
EndChar

StartChar: glyph13
Encoding: 269 983085 13
Width: 1000
VWidth: 0
Flags: W
HStem: -125 20<149.464 825>
LayerCount: 2
Fore
SplineSet
825 -105 m 1
 875 -55 l 1
 935 -105 l 1
 935 -125 l 1
 138.576831447 -125 l 1
 131.5 -138 l 1
 64.5 -135.5 l 1
 541 739 l 1
 588.5 701.5 l 1
 597 685.5 l 1
 578.249323538 682.669709213 l 1
 149.464264443 -105 l 1
 825 -105 l 1
EndSplineSet
EndChar

StartChar: glyph14
Encoding: 270 983086 14
Width: 1000
VWidth: 0
Flags: W
HStem: -125 20<149.464 825> 425 20<85 369.907 448.869 805>
LayerCount: 2
Fore
SplineSet
825 -105 m 1
 875 -55 l 1
 935 -105 l 1
 935 -125 l 1
 138.576831447 -125 l 1
 131.5 -138 l 1
 64.5 -135.5 l 1
 369.906803888 425 l 1
 85 425 l 1
 85 445 l 1
 380.804459691 445 l 1
 541 739 l 1
 588.5 701.5 l 1
 597 685.5 l 1
 578.249323538 682.669709213 l 1
 448.868671828 445 l 1
 805 445 l 1
 855 495 l 1
 915 445 l 1
 915 425 l 1
 437.981238833 425 l 1
 149.464264443 -105 l 1
 825 -105 l 1
EndSplineSet
EndChar

StartChar: glyph15
Encoding: 271 983087 15
Width: 1000
VWidth: 0
Flags: W
VStem: 820 60<-35.0609 711>
LayerCount: 2
Fore
SplineSet
892.5 -82 m 1
 867 -137.5 l 1
 858.5 -131.5 l 1
 820.642857143 -105 l 1
 820 -105 l 1
 820 -104.55 l 1
 783.5 -79 l 1
 707 -28.5 l 1
 630 21 l 1
 551.5 68.5 l 1
 472.5 115 l 1
 392.5 159.5 l 1
 311 202.5 l 1
 229 244.5 l 1
 146.5 285.5 l 1
 63 326 l 1
 66.5 334.5 l 1
 154 303 l 1
 240.5 269 l 1
 325.5 232 l 1
 409.5 193 l 1
 492.5 152 l 1
 574.5 109 l 1
 655.5 64 l 1
 735.5 17 l 1
 814.5 -31.5 l 1
 820 -35.0608974359 l 1
 820 740 l 1
 880 730 l 1
 895 720 l 1
 880 711 l 1
 880 -69.2388059701 l 1
 893 -64 l 1
 892.5 -82 l 1
EndSplineSet
EndChar

StartChar: glyph16
Encoding: 272 983088 16
Width: 1000
VWidth: 0
Flags: W
HStem: -105 30<753.333 800> -90 15<700 746.667> 680 20<100 820>
VStem: 820 60<-61 660>
LayerCount: 2
Fore
SplineSet
800 -75 m 1xb0
 806 -74.5 l 1
 810.5 -73.5 l 1
 813.5 -72.5 l 1
 815 -72 l 1
 816 -71 l 1
 817 -70 l 1
 817.5 -68.5 l 1
 818.5 -65.5 l 1
 819.5 -61 l 1
 820 -55 l 1
 820 680 l 1
 100 680 l 1
 100 700 l 1
 820 700 l 1
 850 725 l 1
 905 680 l 1
 880 660 l 1
 880 -55 l 1
 879 -67.5 l 1
 877 -80 l 1
 873 -92 l 1
 866.5 -103.5 l 1
 858.5 -113.5 l 1
 848.5 -121.5 l 1
 837 -128 l 1
 825 -132 l 1
 812.5 -134 l 1
 800 -135 l 1
 800 -105 l 1xb0
 700 -90 l 1
 700 -75 l 1x70
 800 -75 l 1xb0
EndSplineSet
EndChar

StartChar: glyph17
Encoding: 273 983089 17
Width: 1000
VWidth: 0
Flags: W
HStem: 685 20<100 844.904>
LayerCount: 2
Fore
SplineSet
900.703422053 666.126425856 m 1
 870 582.5 l 1
 829 484 l 1
 785.5 390 l 1
 738.5 300.5 l 1
 689.5 215.5 l 1
 637 136 l 1
 582 61 l 1
 523.5 -9.5 l 1
 462.5 -74 l 1
 398 -133 l 1
 391.5 -126.5 l 1
 448.5 -61 l 1
 503 8 l 1
 555.5 80 l 1
 605.5 156.5 l 1
 652.5 237.5 l 1
 697.5 322 l 1
 740 411 l 1
 779.5 504.5 l 1
 817 602.5 l 1
 844.904411765 685 l 1
 100 685 l 1
 100 705 l 1
 850 705 l 1
 880 730 l 1
 935 685 l 1
 910 670 l 1
 900.703422053 666.126425856 l 1
EndSplineSet
EndChar

StartChar: glyph18
Encoding: 274 983090 18
Width: 1000
VWidth: 0
Flags: W
HStem: 345 20<145 610> 685 20<100 844.904>
LayerCount: 2
Fore
SplineSet
610 365 m 1
 660 415 l 1
 718.593436035 366.172136638 l 1
 740 411 l 1
 779.5 504.5 l 1
 817 602.5 l 1
 844.904411765 685 l 1
 100 685 l 1
 100 705 l 1
 850 705 l 1
 880 730 l 1
 935 685 l 1
 910 670 l 1
 900.703422053 666.126425856 l 1
 870 582.5 l 1
 829 484 l 1
 785.5 390 l 1
 738.5 300.5 l 1
 689.5 215.5 l 1
 637 136 l 1
 582 61 l 1
 523.5 -9.5 l 1
 462.5 -74 l 1
 398 -133 l 1
 391.5 -126.5 l 1
 448.5 -61 l 1
 503 8 l 1
 555.5 80 l 1
 605.5 156.5 l 1
 652.5 237.5 l 1
 697.5 322 l 1
 708.483146067 345 l 1
 145 345 l 1
 145 365 l 1
 610 365 l 1
EndSplineSet
EndChar

StartChar: glyph19
Encoding: 275 983091 19
Width: 1000
VWidth: 0
Flags: W
VStem: 105 60<-31.6258 656>
LayerCount: 2
Fore
SplineSet
152.142857143 -112.857142857 m 1
 125 -140 l 1
 105 -120 l 1
 75 -90 l 1
 105 -60 l 1
 105 685 l 1
 165 675 l 1
 180 665 l 1
 165 656 l 1
 165 -31.6258064516 l 1
 194.5 -10.5 l 1
 273 44 l 1
 352 97 l 1
 432.5 149 l 1
 513.5 199.5 l 1
 595 248.5 l 1
 678 296.5 l 1
 761.5 342.5 l 1
 846.5 387 l 1
 932.5 429 l 1
 937 421.5 l 1
 856 370.5 l 1
 775 319.5 l 1
 695 268 l 1
 615 216.5 l 1
 536 163.5 l 1
 458 110 l 1
 380.5 55.5 l 1
 304 0 l 1
 228 -56.5 l 1
 153 -114 l 1
 152.142857143 -112.857142857 l 1
EndSplineSet
EndChar

StartChar: glyph20
Encoding: 276 983092 20
Width: 1000
VWidth: 0
Flags: W
HStem: 675 20<80 640>
VStem: 640 60<-7.2549 655>
LayerCount: 2
Fore
SplineSet
697.99376947 -113.386292835 m 1
 706 -131 l 1
 688 -131.5 l 1
 631.5 -108 l 1
 637 -99.5 l 1
 640.083333333 -95 l 1
 640 -95 l 1
 640 675 l 1
 80 675 l 1
 80 695 l 1
 640 695 l 1
 670 720 l 1
 725 675 l 1
 700 655 l 1
 700 -7.25490196078 l 1
 725 30 l 1
 752.5 71 l 1
 782 115.5 l 1
 814 164 l 1
 848.5 215.5 l 1
 885.5 270 l 1
 926 327.5 l 1
 933.5 323 l 1
 902 260 l 1
 871.5 201.5 l 1
 842 147 l 1
 814.5 96 l 1
 788.5 49 l 1
 764.5 5.5 l 1
 742.5 -34 l 1
 722.5 -70 l 1
 704 -102.5 l 1
 697.99376947 -113.386292835 l 1
EndSplineSet
EndChar

StartChar: glyph21
Encoding: 277 983093 21
Width: 1000
VWidth: 0
Flags: W
HStem: 685 20<185 228.328 238.58 757.213>
LayerCount: 2
Fore
SplineSet
876.5 -135 m 1
 787 -88 l 1
 702.5 -33 l 1
 623.5 29.5 l 1
 550 100.5 l 1
 499.534112278 158.758414503 l 1
 484.5 141 l 1
 406.5 63.5 l 1
 325 -3.5 l 1
 240.5 -60 l 1
 152.5 -105 l 1
 61.5 -139 l 1
 58 -130.5 l 1
 144 -88.5 l 1
 226 -37.5 l 1
 304.5 22 l 1
 380.5 91 l 1
 452.5 169.5 l 1
 471.490357678 193.545344974 l 1
 419.5 265.5 l 1
 362.5 360 l 1
 311 461.5 l 1
 266 571.5 l 1
 228.327659574 685 l 1
 185 685 l 1
 185 705 l 1
 765 705 l 1
 766.764337852 706.470281543 l 1
 767 707 l 1
 767.265232975 706.887694146 l 1
 795 730 l 1
 850 685 l 1
 825 670 l 1
 813.936444087 665.390185036 l 1
 761.5 554.5 l 1
 697.5 436 l 1
 630 327.5 l 1
 559 229 l 1
 530.694008793 195.564735219 l 1
 586.5 136.5 l 1
 659.5 72 l 1
 736.5 15.5 l 1
 817.5 -33.5 l 1
 903 -74.5 l 1
 933.5 -88 l 1
 876.5 -135 l 1
500.79110161 230.645567506 m 1
 522 257.5 l 1
 588 355 l 1
 651 462.5 l 1
 710.5 580 l 1
 757.212598425 685 l 1
 238.58 685 l 1
 285 579.5 l 1
 337.5 475 l 1
 393.5 378 l 1
 454 289.5 l 1
 500.79110161 230.645567506 l 1
EndSplineSet
EndChar

StartChar: glyph22
Encoding: 278 983094 22
Width: 1000
VWidth: 0
Flags: W
HStem: 330 20<70 470 530 820>
VStem: 470 60<-110 330 350 691>
LayerCount: 2
Fore
SplineSet
530 691 m 1
 530 350 l 1
 820 350 l 1
 870 400 l 1
 930 350 l 1
 930 330 l 1
 530 330 l 1
 530 -110 l 1
 470 -140 l 1
 470 330 l 1
 70 330 l 1
 70 350 l 1
 470 350 l 1
 470 720 l 1
 530 710 l 1
 545 700 l 1
 530 691 l 1
EndSplineSet
EndChar

StartChar: glyph23
Encoding: 279 983095 23
Width: 1000
VWidth: 0
Flags: W
HStem: 325 20<141.542 845.387>
LayerCount: 2
Fore
SplineSet
859.650519031 348.875432526 m 1
 885 370 l 1
 940 325 l 1
 915 310 l 1
 900.373860182 303.905775076 l 1
 888 284 l 1
 861 245.5 l 1
 830.5 204.5 l 1
 796 161 l 1
 757.5 115.5 l 1
 715 68 l 1
 668.5 18 l 1
 618 -34 l 1
 562.5 -87.5 l 1
 503 -143 l 1
 496.5 -136.5 l 1
 549 -74.5 l 1
 598 -15.5 l 1
 644 40 l 1
 686 92.5 l 1
 724.5 142.5 l 1
 759 189.5 l 1
 790 233.5 l 1
 816.5 275 l 1
 839.5 314 l 1
 845.387323944 325 l 1
 138.2425 325 l 1
 137.5 320.5 l 1
 73.5 300.5 l 1
 146 740 l 1
 203.5 720.5 l 1
 216.5 708 l 1
 200.631888169 703.117504052 l 1
 141.5425 345 l 1
 855 345 l 1
 856.970338983 346.641949153 l 1
 858.5 349.5 l 1
 859.650519031 348.875432526 l 1
EndSplineSet
EndChar

StartChar: glyph24
Encoding: 280 983096 24
Width: 1000
VWidth: 0
Flags: W
HStem: -129 8.5<164.265 186.75> 310 20<277.599 791.159> 690 20<90 786.977>
LayerCount: 2
Fore
SplineSet
802.824791418 332.353992849 m 1
 830 355 l 1
 885 310 l 1
 860 295 l 1
 846.859463851 289.524776604 l 1
 820.5 241.5 l 1
 776.5 180.5 l 1
 725 124 l 1
 666 72.5 l 1
 600.5 26.5 l 1
 527.5 -15 l 1
 447.5 -51.5 l 1
 360.5 -83 l 1
 266.5 -108.5 l 1
 165.5 -129 l 1
 164 -120.5 l 1
 261.5 -90.5 l 1
 351.5 -57.5 l 1
 434 -21.5 l 1
 509.5 18.5 l 1
 576.5 61.5 l 1
 636.5 108.5 l 1
 689 159 l 1
 734 213.5 l 1
 771.5 271 l 1
 791.158536585 310 l 1
 242.672413793 310 l 1
 206 289 l 1
 150 326.5 l 1
 786.976572959 690 l 1
 90 690 l 1
 90 710 l 1
 835 710 l 1
 865 735 l 1
 913.823842469 695.053219798 l 1
 915 695 l 1
 914.34636305 694.625702959 l 1
 920 690 l 1
 895 675 l 1
 840.199698568 652.16654107 l 1
 277.598522167 330 l 1
 800 330 l 1
 802.137850467 331.781542056 l 1
 802.5 332.5 l 1
 802.824791418 332.353992849 l 1
EndSplineSet
EndChar

StartChar: glyph25
Encoding: 281 983097 25
Width: 1000
VWidth: 0
Flags: W
HStem: 465 20<75 570 630 815>
VStem: 570 60<-37.2951 465 485 696>
LayerCount: 2
Fore
SplineSet
815 485 m 1
 865 535 l 1
 925 485 l 1
 925 465 l 1
 630 465 l 1
 630 -80.125 l 1
 639 -79 l 1
 634 -96.5 l 1
 595.5 -143 l 1
 589 -135.5 l 1
 570 -112.5 l 1
 547 -88 l 1
 520.5 -61 l 1
 490 -32 l 1
 455.5 -1.5 l 1
 418 31 l 1
 376.5 65 l 1
 331.5 101.5 l 1
 283.5 140.5 l 1
 232 181.5 l 1
 237.5 189 l 1
 294.5 156 l 1
 347 123.5 l 1
 396 91.5 l 1
 441 61 l 1
 482 31.5 l 1
 519.5 3.5 l 1
 553.5 -23.5 l 1
 570 -37.2950819672 l 1
 570 465 l 1
 75 465 l 1
 75 485 l 1
 570 485 l 1
 570 725 l 1
 630 715 l 1
 645 705 l 1
 630 696 l 1
 630 485 l 1
 815 485 l 1
EndSplineSet
EndChar

StartChar: glyph26
Encoding: 282 983098 26
Width: 1000
VWidth: 0
Flags: W
HStem: 490 20<85 412.325 474.246 850.534>
LayerCount: 2
Fore
SplineSet
473 723 m 1
 476.5 736.5 l 1
 532.5 713 l 1
 545 700 l 1
 527.43697791 694.668368294 l 1
 503.5 608 l 1
 474.246268657 510 l 1
 855 510 l 1
 885 535 l 1
 940 490 l 1
 915 475 l 1
 906.976190476 471.656746032 l 1
 889.5 418.5 l 1
 864.5 348 l 1
 838.5 279 l 1
 811 212.5 l 1
 783 148.5 l 1
 754 86.5 l 1
 723.5 26.5 l 1
 692 -30.5 l 1
 658.5 -85 l 1
 623.5 -137 l 1
 616 -132.5 l 1
 642 -76 l 1
 668 -18.5 l 1
 694 41 l 1
 719 102 l 1
 744 164.5 l 1
 768 229.5 l 1
 791 296.5 l 1
 813.5 365 l 1
 835 436 l 1
 850.534246575 490 l 1
 467.636125654 490 l 1
 441.5 412 l 1
 408.5 320.5 l 1
 374 234 l 1
 338.5 152 l 1
 301 74.5 l 1
 262 2 l 1
 221.5 -65 l 1
 178.5 -127 l 1
 171 -122.5 l 1
 205 -56 l 1
 238.5 14.5 l 1
 271.5 88.5 l 1
 303.5 166.5 l 1
 334.5 249 l 1
 365 336 l 1
 394 427.5 l 1
 412.32460733 490 l 1
 85 490 l 1
 85 510 l 1
 418.188481675 510 l 1
 422 523 l 1
 448.5 623 l 1
 473.365115202 722.9386361 l 1
 473 723 l 1
EndSplineSet
EndChar

StartChar: glyph27
Encoding: 283 983099 27
Width: 1000
VWidth: 0
Flags: W
HStem: 217.21 19.5577<90 322.555 375.237 659.531> 490 20<85 412.325 474.246 850.534>
LayerCount: 2
Fore
SplineSet
473 723 m 1
 476.5 736.5 l 1
 532.5 713 l 1
 545 700 l 1
 527.43697791 694.668368294 l 1
 503.5 608 l 1
 474.246268657 510 l 1
 855 510 l 1
 885 535 l 1
 940 490 l 1
 915 475 l 1
 906.976190476 471.656746032 l 1
 889.5 418.5 l 1
 864.5 348 l 1
 838.5 279 l 1
 811 212.5 l 1
 783 148.5 l 1
 754 86.5 l 1
 723.5 26.5 l 1
 692 -30.5 l 1
 658.5 -85 l 1
 623.5 -137 l 1
 616 -132.5 l 1
 642 -76 l 1
 668 -18.5 l 1
 694 41 l 1
 719 102 l 1
 744 164.5 l 1
 764.662431942 220.460753176 l 1
 366.872216975 217.535825125 l 1
 338.5 152 l 1
 301 74.5 l 1
 262 2 l 1
 221.5 -65 l 1
 178.5 -127 l 1
 171 -122.5 l 1
 205 -56 l 1
 238.5 14.5 l 1
 271.5 88.5 l 1
 303.5 166.5 l 1
 322.55465189 217.209960676 l 1
 90 215.5 l 1
 89.5 235 l 1
 329.903610689 236.767673608 l 1
 334.5 249 l 1
 365 336 l 1
 394 427.5 l 1
 412.32460733 490 l 1
 85 490 l 1
 85 510 l 1
 418.188481675 510 l 1
 422 523 l 1
 448.5 623 l 1
 473.365115202 722.9386361 l 1
 473 723 l 1
659.531217482 239.191406011 m 1
 709.5 290 l 1
 769.5 240 l 1
 769.64626556 234.295643154 l 1
 791 296.5 l 1
 813.5 365 l 1
 835 436 l 1
 850.534246575 490 l 1
 467.636125654 490 l 1
 441.5 412 l 1
 408.5 320.5 l 1
 375.236817426 237.10100601 l 1
 659.531217482 239.191406011 l 1
EndSplineSet
EndChar

StartChar: glyph28
Encoding: 284 983100 28
Width: 1000
VWidth: 0
Flags: W
HStem: 310 20<70 325 385 615 675 820>
VStem: 325 60<-100 310 330 706> 615 60<-100 310 330 706>
LayerCount: 2
Fore
SplineSet
675 706 m 1
 675 330 l 1
 820 330 l 1
 870 380 l 1
 930 330 l 1
 930 310 l 1
 675 310 l 1
 675 -100 l 1
 615 -130 l 1
 615 310 l 1
 385 310 l 1
 385 -100 l 1
 325 -130 l 1
 325 310 l 1
 70 310 l 1
 70 330 l 1
 325 330 l 1
 325 735 l 1
 385 725 l 1
 400 715 l 1
 385 706 l 1
 385 330 l 1
 615 330 l 1
 615 735 l 1
 675 725 l 1
 690 715 l 1
 675 706 l 1
EndSplineSet
EndChar

StartChar: glyph29
Encoding: 285 983101 29
Width: 1000
VWidth: 0
Flags: W
LayerCount: 2
Fore
SplineSet
705 300 m 1
 702 332.5 l 1
 694 363 l 1
 681 392.5 l 1
 664 419.5 l 1
 643 443.5 l 1
 619 464.5 l 1
 592 481.5 l 1
 562.5 494.5 l 1
 532 502.5 l 1
 500 505 l 1
 467.5 502.5 l 1
 437 494.5 l 1
 407.5 481.5 l 1
 380.5 464.5 l 1
 356.5 443.5 l 1
 335.5 419.5 l 1
 318.5 392.5 l 1
 305.5 363 l 1
 297.5 332.5 l 1
 295 300 l 1
 297.5 268 l 1
 305.5 237.5 l 1
 318.5 208 l 1
 335.5 181 l 1
 356.5 157 l 1
 380.5 136 l 1
 407.5 119 l 1
 437 106 l 1
 467.5 98 l 1
 500 95 l 1
 532 98 l 1
 562.5 106 l 1
 592 119 l 1
 619 136 l 1
 643 157 l 1
 664 181 l 1
 681 208 l 1
 694 237.5 l 1
 702 268 l 1
 705 300 l 1
745 300 m 1
 741.5 261.5 l 1
 732 224 l 1
 716.5 189.5 l 1
 696 157.5 l 1
 671.5 128.5 l 1
 642.5 104 l 1
 610.5 83.5 l 1
 576 68 l 1
 538.5 58.5 l 1
 500 55 l 1
 461 58.5 l 1
 423.5 68 l 1
 389 83.5 l 1
 357 104 l 1
 328 128.5 l 1
 303.5 157.5 l 1
 283 189.5 l 1
 267.5 224 l 1
 258 261.5 l 1
 255 300 l 1
 258 339 l 1
 267.5 376.5 l 1
 283 411 l 1
 303.5 443 l 1
 328 472 l 1
 357 496.5 l 1
 389 517 l 1
 423.5 532.5 l 1
 461 542 l 1
 500 545 l 1
 538.5 542 l 1
 576 532.5 l 1
 610.5 517 l 1
 642.5 496.5 l 1
 671.5 472 l 1
 696 443 l 1
 716.5 411 l 1
 732 376.5 l 1
 741.5 339 l 1
 745 300 l 1
EndSplineSet
EndChar

StartChar: glyph30
Encoding: 286 983102 30
Width: 1000
VWidth: 0
Flags: W
HStem: 80 20<242 470 530 648> 479 20<281 470 530 609>
VStem: 470 60<100 479>
LayerCount: 2
Fore
SplineSet
648 100 m 1
 698 150 l 1
 758 100 l 1
 758 80 l 1
 530 80 l 1
 470 80 l 1
 242 80 l 1
 242 100 l 1
 470 100 l 1
 470 479 l 1
 281 479 l 1
 281 499 l 1
 470 499 l 1
 530 499 l 1
 609 499 l 1
 659 549 l 1
 719 499 l 1
 719 479 l 1
 530 479 l 1
 530 100 l 1
 648 100 l 1
EndSplineSet
EndChar

StartChar: glyph31
Encoding: 287 983103 31
Width: 1000
VWidth: 0
Flags: W
HStem: 80 20<311 689>
VStem: 251 60<20 80 100 486> 689 60<50 80 100 486>
LayerCount: 2
Fore
SplineSet
749 486 m 1
 749 50 l 1
 689 20 l 1
 689 80 l 1
 311 80 l 1
 311 20 l 1
 251 -10 l 1
 251 515 l 1
 311 505 l 1
 326 495 l 1
 311 486 l 1
 311 100 l 1
 689 100 l 1
 689 515 l 1
 749 505 l 1
 764 495 l 1
 749 486 l 1
EndSplineSet
EndChar

StartChar: glyph32
Encoding: 288 983104 32
Width: 1000
VWidth: 0
Flags: W
HStem: 80 20<425 575> 353 20<257 365 425 575 635 655.091>
VStem: 365 60<20 80 100 353 373 507> 575 60<50 80 100 353 373 507>
LayerCount: 2
Fore
SplineSet
655.090909091 373 m 1
 696 418 l 1
 746 373 l 1
 746 353 l 1
 635 353 l 1
 635 50 l 1
 575 20 l 1
 575 80 l 1
 425 80 l 1
 425 20 l 1
 365 -10 l 1
 365 353 l 1
 257 353 l 1
 257 373 l 1
 365 373 l 1
 365 536 l 1
 425 526 l 1
 440 516 l 1
 425 507 l 1
 425 373 l 1
 575 373 l 1
 575 536 l 1
 635 526 l 1
 650 516 l 1
 635 507 l 1
 635 373 l 1
 655.090909091 373 l 1
575 353 m 1
 425 353 l 1
 425 100 l 1
 575 100 l 1
 575 353 l 1
EndSplineSet
EndChar

StartChar: glyph33
Encoding: 289 983105 33
Width: 1000
VWidth: 0
Flags: W
LayerCount: 2
Fore
SplineSet
725 36.5 m 1
 679 65.5 l 1
 638 99.5 l 1
 602.5 138.5 l 1
 573 182 l 1
 548.5 230.5 l 1
 529.5 283 l 1
 516 340 l 1
 511.663937344 373.06247775 l 1
 501.5 327.5 l 1
 481 268.5 l 1
 455.5 215 l 1
 424.5 167.5 l 1
 388.5 126.5 l 1
 347 92 l 1
 300.5 64.5 l 1
 249.5 44 l 1
 246 52.5 l 1
 291 80.5 l 1
 330 113 l 1
 364 149 l 1
 393.5 189.5 l 1
 418 234.5 l 1
 437.5 284.5 l 1
 452.5 340 l 1
 463 400.5 l 1
 469 466.5 l 1
 470 538 l 1
 470 550 l 1
 530 538 l 1
 545 528 l 1
 528.825549451 518.29532967 l 1
 526.200220325 474.248141008 l 1
 527 467.5 l 1
 537.5 405 l 1
 551.5 348 l 1
 569 296.5 l 1
 590.5 250.5 l 1
 616 210 l 1
 645 174 l 1
 677.5 143.5 l 1
 714 117.5 l 1
 754.5 96 l 1
 781.5 82.5 l 1
 725 36.5 l 1
EndSplineSet
EndChar

StartChar: glyph34
Encoding: 290 983106 34
Width: 1000
VWidth: 0
Flags: W
HStem: 371 20<251 466.252 525.536 639>
VStem: 470 60<391 528>
LayerCount: 2
Fore
SplineSet
716 40 m 1
 680 62 l 1
 647.5 87 l 1
 618 114.5 l 1
 592 145 l 1
 569.5 177.5 l 1
 550 213 l 1
 534.5 250 l 1
 522.5 290 l 1
 515.044989537 328.672866775 l 1
 500.5 278 l 1
 479.5 228.5 l 1
 453 184 l 1
 421.5 144.5 l 1
 384.5 110 l 1
 342 81 l 1
 295 58 l 1
 243.5 41 l 1
 240 49.5 l 1
 286.5 75 l 1
 327 103.5 l 1
 362.5 134.5 l 1
 392.5 169 l 1
 417.5 206.5 l 1
 437.5 248 l 1
 452.5 293 l 1
 463 342 l 1
 466.252336449 371 l 1
 251 371 l 1
 251 391 l 1
 468.495327103 391 l 1
 469 395.5 l 1
 470 453 l 1
 470 557 l 1
 530 547 l 1
 545 537 l 1
 530 528 l 1
 530 453 l 1
 525.536 391 l 1
 639 391 l 1
 689 441 l 1
 749 391 l 1
 749 371 l 1
 522.333333333 371 l 1
 522.284347649 370.698351313 l 1
 534.5 337 l 1
 550.5 299.5 l 1
 567.5 265 l 1
 586.5 233 l 1
 607.5 204.5 l 1
 630.5 178.5 l 1
 656 154.5 l 1
 683.5 133.5 l 1
 713.5 115 l 1
 745.5 98.5 l 1
 772 85 l 1
 716 40 l 1
EndSplineSet
EndChar

StartChar: glyph35
Encoding: 291 983107 35
Width: 1000
VWidth: 0
Flags: W
HStem: 41 20<305.453 651>
LayerCount: 2
Fore
SplineSet
651 61 m 1
 701 111 l 1
 761 61 l 1
 761 41 l 1
 294.572205737 41 l 1
 287.5 28 l 1
 220.5 30.5 l 1
 515 571 l 1
 562.5 533.5 l 1
 571 517.5 l 1
 552.256623223 514.670811053 l 1
 305.452522255 61 l 1
 651 61 l 1
EndSplineSet
EndChar

StartChar: glyph36
Encoding: 292 983108 36
Width: 1000
VWidth: 0
Flags: W
HStem: 41 20<305.453 651> 371 20<251 406.027 484.978 639>
LayerCount: 2
Fore
SplineSet
651 61 m 1
 701 111 l 1
 761 61 l 1
 761 41 l 1
 294.572205737 41 l 1
 287.5 28 l 1
 220.5 30.5 l 1
 406.026827012 371 l 1
 251 371 l 1
 251 391 l 1
 416.924144311 391 l 1
 515 571 l 1
 562.5 533.5 l 1
 571 517.5 l 1
 552.256623223 514.670811053 l 1
 484.977744807 391 l 1
 639 391 l 1
 689 441 l 1
 749 391 l 1
 749 371 l 1
 474.097428289 371 l 1
 305.452522255 61 l 1
 651 61 l 1
EndSplineSet
EndChar

StartChar: glyph37
Encoding: 293 983109 37
Width: 1000
VWidth: 0
Flags: W
VStem: 680 60<119.6 537>
LayerCount: 2
Fore
SplineSet
740.5 82 m 1
 740 80.9117647059 l 1
 740 53 l 1
 727.175675676 53 l 1
 715 26.5 l 1
 706.5 32.5 l 1
 662.5 64 l 1
 617.5 95 l 1
 572 124.5 l 1
 525.5 153.5 l 1
 479 182 l 1
 431.5 209 l 1
 383.5 236 l 1
 335 262 l 1
 286.5 288 l 1
 237 314 l 1
 240.5 322.5 l 1
 294 305.5 l 1
 346.5 286.5 l 1
 398 265.5 l 1
 449 243 l 1
 499 219 l 1
 548.5 194 l 1
 597.5 167.5 l 1
 646 140 l 1
 680 119.6 l 1
 680 566 l 1
 740 556 l 1
 755 546 l 1
 740 537 l 1
 740 99.5970149254 l 1
 741 100 l 1
 740.5 82 l 1
EndSplineSet
EndChar

StartChar: glyph38
Encoding: 294 983110 38
Width: 1000
VWidth: 0
Flags: W
HStem: 57 30<613.333 660> 72 15<560 606.667> 524 20<260 680>
VStem: 680 60<101 504>
LayerCount: 2
Fore
SplineSet
660 87 m 1xb0
 666 87.5 l 1
 670.5 88.5 l 1
 673.5 89.5 l 1
 675 90 l 1
 676 91 l 1
 677 92 l 1
 677.5 93.5 l 1
 678.5 96.5 l 1
 679.5 101 l 1
 680 107 l 1
 680 524 l 1
 260 524 l 1
 260 544 l 1
 680 544 l 1
 710 569 l 1
 765 524 l 1
 740 504 l 1
 740 107 l 1
 739 94.5 l 1
 737 82 l 1
 733 70 l 1
 726.5 58.5 l 1
 718.5 48.5 l 1
 708.5 40.5 l 1
 697 34 l 1
 685 30 l 1
 672.5 28 l 1
 660 27 l 1
 660 57 l 1xb0
 560 72 l 1
 560 87 l 1x70
 660 87 l 1xb0
EndSplineSet
EndChar

StartChar: glyph39
Encoding: 295 983111 39
Width: 1000
VWidth: 0
Flags: W
HStem: 527 20<260 693.107>
LayerCount: 2
Fore
SplineSet
748.49486166 508.039525692 m 1
 732.5 465.5 l 1
 707 406 l 1
 680 349.5 l 1
 651.5 296 l 1
 621 245 l 1
 588.5 197.5 l 1
 554.5 152.5 l 1
 518.5 111 l 1
 480 73 l 1
 440 39 l 1
 433.5 45.5 l 1
 466 86 l 1
 497.5 128 l 1
 528 172 l 1
 556.5 218.5 l 1
 584 267 l 1
 610 317.5 l 1
 635 371 l 1
 658 427 l 1
 679.5 485.5 l 1
 693.106557377 527 l 1
 260 527 l 1
 260 547 l 1
 698 547 l 1
 728 572 l 1
 783 527 l 1
 758 512 l 1
 748.49486166 508.039525692 l 1
EndSplineSet
EndChar

StartChar: glyph40
Encoding: 296 983112 40
Width: 1000
VWidth: 0
Flags: W
HStem: 323 20<287 522> 527 20<260 693.107>
LayerCount: 2
Fore
SplineSet
522 343 m 1
 572 393 l 1
 624.742152466 349.048206278 l 1
 635 371 l 1
 658 427 l 1
 679.5 485.5 l 1
 693.106557377 527 l 1
 260 527 l 1
 260 547 l 1
 698 547 l 1
 728 572 l 1
 783 527 l 1
 758 512 l 1
 748.49486166 508.039525692 l 1
 732.5 465.5 l 1
 707 406 l 1
 680 349.5 l 1
 651.5 296 l 1
 621 245 l 1
 588.5 197.5 l 1
 554.5 152.5 l 1
 518.5 111 l 1
 480 73 l 1
 440 39 l 1
 433.5 45.5 l 1
 466 86 l 1
 497.5 128 l 1
 528 172 l 1
 556.5 218.5 l 1
 584 267 l 1
 610 317.5 l 1
 612.570093458 323 l 1
 287 323 l 1
 287 343 l 1
 522 343 l 1
EndSplineSet
EndChar

StartChar: glyph41
Encoding: 297 983113 41
Width: 1000
VWidth: 0
Flags: W
VStem: 251 60<123.674 504>
LayerCount: 2
Fore
SplineSet
298.142857143 43.1428571429 m 1
 271 16 l 1
 251 36 l 1
 221 66 l 1
 251 96 l 1
 251 533 l 1
 311 523 l 1
 326 513 l 1
 311 504 l 1
 311 123.673684211 l 1
 357.5 155 l 1
 405.5 186.5 l 1
 454 217 l 1
 503.5 247 l 1
 553 275.5 l 1
 603 303.5 l 1
 654 330.5 l 1
 706 355.5 l 1
 758.5 379 l 1
 763 371.5 l 1
 715.5 339 l 1
 667.5 307 l 1
 620 275.5 l 1
 573 243.5 l 1
 526 211 l 1
 480 178.5 l 1
 434 145 l 1
 388.5 111.5 l 1
 343.5 77 l 1
 299 42 l 1
 298.142857143 43.1428571429 l 1
EndSplineSet
EndChar

StartChar: glyph42
Encoding: 298 983114 42
Width: 1000
VWidth: 0
Flags: W
HStem: 521 20<248 572>
VStem: 572 60<149.853 501>
LayerCount: 2
Fore
SplineSet
624 36.5 m 1
 567.5 60 l 1
 572 66.9545454545 l 1
 572 521 l 1
 248 521 l 1
 248 541 l 1
 572 541 l 1
 602 566 l 1
 657 521 l 1
 632 501 l 1
 632 149.852941176 l 1
 644.5 167.5 l 1
 662.5 193.5 l 1
 682.5 222 l 1
 704.5 252 l 1
 728 284 l 1
 754 317.5 l 1
 761.5 313 l 1
 744.5 274.5 l 1
 727.5 238.5 l 1
 711 205 l 1
 695 174 l 1
 680.5 145.5 l 1
 667 119.5 l 1
 654.5 95.5 l 1
 643 73.5 l 1
 633.674698795 55.3156626506 l 1
 642 37 l 1
 624 36.5 l 1
EndSplineSet
EndChar

StartChar: glyph43
Encoding: 299 983115 43
Width: 1000
VWidth: 0
Flags: W
HStem: 527 20<311 336.183 346.894 639.447>
LayerCount: 2
Fore
SplineSet
720.5 27 m 1
 666 56.5 l 1
 615 90.5 l 1
 567 129.5 l 1
 523 173 l 1
 498.900619692 201.213908653 l 1
 497 199 l 1
 449 152.5 l 1
 399 112.5 l 1
 347 79.5 l 1
 293 53.5 l 1
 237.5 35 l 1
 234 43.5 l 1
 284.5 70.5 l 1
 332.5 102 l 1
 378.5 138.5 l 1
 423 180 l 1
 465 227.5 l 1
 471.542002935 235.980374175 l 1
 445 274 l 1
 411.5 331.5 l 1
 382 393.5 l 1
 356 460 l 1
 336.183098592 527 l 1
 311 527 l 1
 311 547 l 1
 647 547 l 1
 648.773195876 548.47766323 l 1
 649 549 l 1
 649.265232975 548.887694146 l 1
 677 572 l 1
 732 527 l 1
 707 512 l 1
 695.686868687 507.286195286 l 1
 667 448 l 1
 628 376.5 l 1
 586.5 311 l 1
 542.5 252 l 1
 530.579089128 238.11410382 l 1
 559 209 l 1
 602.5 171.5 l 1
 648.5 139 l 1
 696.5 111 l 1
 747 87.5 l 1
 777.5 74 l 1
 720.5 27 l 1
500.041180967 272.923753105 m 1
 505.5 280 l 1
 544 338.5 l 1
 581 403 l 1
 616 473 l 1
 639.447368421 527 l 1
 346.893939394 527 l 1
 375.5 468 l 1
 408 406.5 l 1
 442.5 349.5 l 1
 479.5 298 l 1
 500.041180967 272.923753105 l 1
EndSplineSet
EndChar

StartChar: glyph44
Encoding: 300 983116 44
Width: 1000
VWidth: 0
Flags: W
HStem: 314 20<242 470 530 648>
VStem: 470 60<60 314 334 525>
LayerCount: 2
Fore
SplineSet
530 525 m 1
 530 334 l 1
 648 334 l 1
 698 384 l 1
 758 334 l 1
 758 314 l 1
 530 314 l 1
 530 60 l 1
 470 30 l 1
 470 314 l 1
 242 314 l 1
 242 334 l 1
 470 334 l 1
 470 554 l 1
 530 544 l 1
 545 534 l 1
 530 525 l 1
EndSplineSet
EndChar

StartChar: glyph45
Encoding: 301 983117 45
Width: 1000
VWidth: 0
Flags: W
HStem: 311 20<297.55 692.064>
LayerCount: 2
Fore
SplineSet
705.650519031 334.875432526 m 1
 731 356 l 1
 786 311 l 1
 761 296 l 1
 745.840506329 289.683544304 l 1
 742.5 284.5 l 1
 725.5 261.5 l 1
 706.5 237 l 1
 685 211 l 1
 661 184 l 1
 634.5 156 l 1
 606 126.5 l 1
 574.5 96 l 1
 540.5 65 l 1
 503 33 l 1
 496.5 39.5 l 1
 526.5 78 l 1
 555 114.5 l 1
 581.5 148.5 l 1
 606 180.5 l 1
 628 211 l 1
 648 239.5 l 1
 665.5 266 l 1
 681 291 l 1
 692.063829787 311 l 1
 294.243801653 311 l 1
 293.5 306.5 l 1
 229.5 286.5 l 1
 276 568 l 1
 333.5 548.5 l 1
 346.5 536 l 1
 330.626590757 531.115874079 l 1
 297.549586777 331 l 1
 701 331 l 1
 703.142857143 332.785714286 l 1
 704.5 335.5 l 1
 705.650519031 334.875432526 l 1
EndSplineSet
EndChar

StartChar: glyph46
Encoding: 302 983118 46
Width: 1000
VWidth: 0
Flags: W
HStem: 302 20<397.508 659.562> 530 20<254 640.96>
LayerCount: 2
Fore
SplineSet
670.824791418 324.353992849 m 1
 698 347 l 1
 753 302 l 1
 728 287 l 1
 714.567639257 281.403183024 l 1
 702 259 l 1
 674 221.5 l 1
 642 187.5 l 1
 605.5 156.5 l 1
 565 129 l 1
 520 104.5 l 1
 471 83 l 1
 418 65.5 l 1
 361 51 l 1
 299.5 41 l 1
 298 49.5 l 1
 356 69.5 l 1
 409 90.5 l 1
 458 113.5 l 1
 502 138 l 1
 541 164 l 1
 576 192.5 l 1
 606 222.5 l 1
 632 254.5 l 1
 653 288.5 l 1
 659.5625 302 l 1
 362.625984252 302 l 1
 326 281 l 1
 270 318.5 l 1
 640.960496614 530 l 1
 254 530 l 1
 254 550 l 1
 689 550 l 1
 719 575 l 1
 767.823842469 535.053219798 l 1
 769 535 l 1
 768.346704026 534.625423979 l 1
 774 530 l 1
 749 515 l 1
 694.546218487 492.31092437 l 1
 397.507874016 322 l 1
 668 322 l 1
 670.159533074 323.799610895 l 1
 670.5 324.5 l 1
 670.824791418 324.353992849 l 1
EndSplineSet
EndChar

StartChar: glyph47
Encoding: 303 983119 47
Width: 1000
VWidth: 0
Flags: W
HStem: 395 20<245 530 590 645>
VStem: 530 60<120.405 395 415 528>
LayerCount: 2
Fore
SplineSet
645 415 m 1
 695 465 l 1
 755 415 l 1
 755 395 l 1
 590 395 l 1
 590 88.625 l 1
 593 89 l 1
 590 78.5 l 1
 590 62 l 1
 580.134408602 62 l 1
 549.5 25 l 1
 543 32.5 l 1
 532.5 46 l 1
 520 60.5 l 1
 505 77 l 1
 487.5 94 l 1
 467.5 113 l 1
 446 133 l 1
 422 154 l 1
 395.5 176.5 l 1
 368 201 l 1
 338 227.5 l 1
 343.5 235 l 1
 378.5 216.5 l 1
 411.5 198.5 l 1
 441.5 180.5 l 1
 469 163 l 1
 494 146 l 1
 517 130 l 1
 530 120.404761905 l 1
 530 395 l 1
 245 395 l 1
 245 415 l 1
 530 415 l 1
 530 557 l 1
 590 547 l 1
 605 537 l 1
 590 528 l 1
 590 415 l 1
 645 415 l 1
EndSplineSet
EndChar

StartChar: glyph48
Encoding: 304 983120 48
Width: 1000
VWidth: 0
Flags: W
HStem: 410 20<251 435.342 496.929 696.818>
LayerCount: 2
Fore
SplineSet
471 553 m 1
 474.5 566.5 l 1
 530.5 543 l 1
 543 530 l 1
 525.19974953 524.596352536 l 1
 512.5 480.5 l 1
 496.929166667 430 l 1
 701 430 l 1
 731 455 l 1
 786 410 l 1
 761 395 l 1
 752.604026846 391.501677852 l 1
 744.5 368 l 1
 728.5 325.5 l 1
 712.5 284 l 1
 695.5 244.5 l 1
 677.5 206 l 1
 659 169 l 1
 640 133 l 1
 620 99.5 l 1
 598.5 67 l 1
 575.5 37 l 1
 568 41.5 l 1
 582 76 l 1
 596 111.5 l 1
 610.5 147.5 l 1
 624.5 184.5 l 1
 638.5 222 l 1
 652 261 l 1
 665 301.5 l 1
 678 342.5 l 1
 690 385 l 1
 696.818181818 410 l 1
 490.347826087 410 l 1
 474 363 l 1
 453.5 308.5 l 1
 432 257 l 1
 410 208 l 1
 386.5 162 l 1
 362 119 l 1
 336 79 l 1
 308.5 43 l 1
 301 47.5 l 1
 319.5 88.5 l 1
 338 131 l 1
 356.5 176 l 1
 375 223 l 1
 392.5 272 l 1
 410 324 l 1
 426.5 378.5 l 1
 435.342105263 410 l 1
 251 410 l 1
 251 430 l 1
 440.956140351 430 l 1
 442.5 435.5 l 1
 458 495.5 l 1
 471.430653365 552.927621283 l 1
 471 553 l 1
EndSplineSet
EndChar

StartChar: glyph49
Encoding: 305 983121 49
Width: 1000
VWidth: 0
Flags: W
HStem: 246.451 19.555<254 383.375 435.9 551.531> 410 20<251 435.342 496.929 696.818>
LayerCount: 2
Fore
SplineSet
471 553 m 1
 474.5 566.5 l 1
 530.5 543 l 1
 543 530 l 1
 525.19974953 524.596352536 l 1
 512.5 480.5 l 1
 496.929166667 430 l 1
 701 430 l 1
 731 455 l 1
 786 410 l 1
 761 395 l 1
 752.604026846 391.501677852 l 1
 744.5 368 l 1
 728.5 325.5 l 1
 712.5 284 l 1
 695.5 244.5 l 1
 677.5 206 l 1
 659 169 l 1
 640 133 l 1
 620 99.5 l 1
 598.5 67 l 1
 575.5 37 l 1
 568 41.5 l 1
 582 76 l 1
 596 111.5 l 1
 610.5 147.5 l 1
 624.5 184.5 l 1
 638.5 222 l 1
 647.636518287 248.394386164 l 1
 427.409214092 246.775067751 l 1
 410 208 l 1
 386.5 162 l 1
 362 119 l 1
 336 79 l 1
 308.5 43 l 1
 301 47.5 l 1
 319.5 88.5 l 1
 338 131 l 1
 356.5 176 l 1
 375 223 l 1
 383.375460769 246.451290153 l 1
 254 245.5 l 1
 253.5 265 l 1
 390.359399684 266.006319115 l 1
 392.5 272 l 1
 410 324 l 1
 426.5 378.5 l 1
 435.342105263 410 l 1
 251 410 l 1
 251 430 l 1
 440.956140351 430 l 1
 442.5 435.5 l 1
 458 495.5 l 1
 471.430653365 552.927621283 l 1
 471 553 l 1
551.531217482 267.191406011 m 1
 601.5 318 l 1
 655.777597403 272.768668831 l 1
 665 301.5 l 1
 678 342.5 l 1
 690 385 l 1
 696.818181818 410 l 1
 490.347826087 410 l 1
 474 363 l 1
 453.5 308.5 l 1
 435.89971357 266.341174364 l 1
 551.531217482 267.191406011 l 1
EndSplineSet
EndChar

StartChar: glyph50
Encoding: 306 983122 50
Width: 1000
VWidth: 0
Flags: W
HStem: 302 20<242 383 443 557 617 648>
VStem: 383 60<66 302 322 534> 557 60<66 302 322 534>
LayerCount: 2
Fore
SplineSet
617 534 m 1
 617 322 l 1
 648 322 l 1
 698 372 l 1
 758 322 l 1
 758 302 l 1
 617 302 l 1
 617 66 l 1
 557 36 l 1
 557 302 l 1
 443 302 l 1
 443 66 l 1
 383 36 l 1
 383 302 l 1
 242 302 l 1
 242 322 l 1
 383 322 l 1
 383 563 l 1
 443 553 l 1
 458 543 l 1
 443 534 l 1
 443 322 l 1
 557 322 l 1
 557 563 l 1
 617 553 l 1
 632 543 l 1
 617 534 l 1
EndSplineSet
EndChar

StartChar: glyph51
Encoding: 307 983123 51
Width: 1000
VWidth: 0
Flags: W
LayerCount: 2
Fore
SplineSet
705 100 m 1
 702 132.5 l 1
 694 163 l 1
 681 192.5 l 1
 664 219.5 l 1
 643 243.5 l 1
 619 264.5 l 1
 592 281.5 l 1
 562.5 294.5 l 1
 532 302.5 l 1
 500 305 l 1
 467.5 302.5 l 1
 437 294.5 l 1
 407.5 281.5 l 1
 380.5 264.5 l 1
 356.5 243.5 l 1
 335.5 219.5 l 1
 318.5 192.5 l 1
 305.5 163 l 1
 297.5 132.5 l 1
 295 100 l 1
 297.5 68 l 1
 305.5 37.5 l 1
 318.5 8 l 1
 335.5 -19 l 1
 356.5 -43 l 1
 380.5 -64 l 1
 407.5 -81 l 1
 437 -94 l 1
 467.5 -102 l 1
 500 -105 l 1
 532 -102 l 1
 562.5 -94 l 1
 592 -81 l 1
 619 -64 l 1
 643 -43 l 1
 664 -19 l 1
 681 8 l 1
 694 37.5 l 1
 702 68 l 1
 705 100 l 1
745 100 m 1
 741.5 61.5 l 1
 732 24 l 1
 716.5 -10.5 l 1
 696 -42.5 l 1
 671.5 -71.5 l 1
 642.5 -96 l 1
 610.5 -116.5 l 1
 576 -132 l 1
 538.5 -141.5 l 1
 500 -145 l 1
 461 -141.5 l 1
 423.5 -132 l 1
 389 -116.5 l 1
 357 -96 l 1
 328 -71.5 l 1
 303.5 -42.5 l 1
 283 -10.5 l 1
 267.5 24 l 1
 258 61.5 l 1
 255 100 l 1
 258 139 l 1
 267.5 176.5 l 1
 283 211 l 1
 303.5 243 l 1
 328 272 l 1
 357 296.5 l 1
 389 317 l 1
 423.5 332.5 l 1
 461 342 l 1
 500 345 l 1
 538.5 342 l 1
 576 332.5 l 1
 610.5 317 l 1
 642.5 296.5 l 1
 671.5 272 l 1
 696 243 l 1
 716.5 211 l 1
 732 176.5 l 1
 741.5 139 l 1
 745 100 l 1
372.395860285 431.278137128 m 1
 376 413 l 1
 358.5 416.5 l 1
 309 452 l 1
 316 459 l 1
 349.5 490.5 l 1
 383.5 522 l 1
 417.5 553.5 l 1
 451.5 585 l 1
 485.5 616 l 1
 520 647.5 l 1
 555 678.5 l 1
 590 709.5 l 1
 626 740 l 1
 662.5 769.5 l 1
 669 763 l 1
 639.5 726.5 l 1
 609 690.5 l 1
 578 655.5 l 1
 547 620.5 l 1
 515.5 586 l 1
 484.5 552 l 1
 453 518 l 1
 421.5 484 l 1
 390 450 l 1
 372.395860285 431.278137128 l 1
EndSplineSet
EndChar

StartChar: glyph52
Encoding: 308 983124 52
Width: 1000
VWidth: 0
Flags: W
LayerCount: 2
Fore
SplineSet
705 500 m 1
 702 532.5 l 1
 694 563 l 1
 681 592.5 l 1
 664 619.5 l 1
 643 643.5 l 1
 619 664.5 l 1
 592 681.5 l 1
 562.5 694.5 l 1
 532 702.5 l 1
 500 705 l 1
 467.5 702.5 l 1
 437 694.5 l 1
 407.5 681.5 l 1
 380.5 664.5 l 1
 356.5 643.5 l 1
 335.5 619.5 l 1
 318.5 592.5 l 1
 305.5 563 l 1
 297.5 532.5 l 1
 295 500 l 1
 297.5 468 l 1
 305.5 437.5 l 1
 318.5 408 l 1
 335.5 381 l 1
 356.5 357 l 1
 380.5 336 l 1
 407.5 319 l 1
 437 306 l 1
 467.5 298 l 1
 500 295 l 1
 532 298 l 1
 562.5 306 l 1
 592 319 l 1
 619 336 l 1
 643 357 l 1
 664 381 l 1
 681 408 l 1
 694 437.5 l 1
 702 468 l 1
 705 500 l 1
745 500 m 1
 741.5 461.5 l 1
 732 424 l 1
 716.5 389.5 l 1
 696 357.5 l 1
 671.5 328.5 l 1
 642.5 304 l 1
 610.5 283.5 l 1
 576 268 l 1
 538.5 258.5 l 1
 500 255 l 1
 461 258.5 l 1
 423.5 268 l 1
 389 283.5 l 1
 357 304 l 1
 328 328.5 l 1
 303.5 357.5 l 1
 283 389.5 l 1
 267.5 424 l 1
 258 461.5 l 1
 255 500 l 1
 258 539 l 1
 267.5 576.5 l 1
 283 611 l 1
 303.5 643 l 1
 328 672 l 1
 357 696.5 l 1
 389 717 l 1
 423.5 732.5 l 1
 461 742 l 1
 500 745 l 1
 538.5 742 l 1
 576 732.5 l 1
 610.5 717 l 1
 642.5 696.5 l 1
 671.5 672 l 1
 696 643 l 1
 716.5 611 l 1
 732 576.5 l 1
 741.5 539 l 1
 745 500 l 1
316 141.5 m 1
 314.5 143 l 1
 358.5 184 l 1
 376 187.5 l 1
 371.693972179 169.968315301 l 1
 390 150.5 l 1
 421.5 116.5 l 1
 453 82.5 l 1
 484.5 48.5 l 1
 515.5 14.5 l 1
 547 -20 l 1
 578 -55 l 1
 609 -90 l 1
 639.5 -126 l 1
 669 -162.5 l 1
 662.5 -169 l 1
 626 -139.5 l 1
 590 -109 l 1
 555 -78 l 1
 520 -47 l 1
 485.5 -15.5 l 1
 451.5 15.5 l 1
 417.5 47 l 1
 383.5 78.5 l 1
 349.5 110 l 1
 319.59857375 138.116266474 l 1
 319.5 138 l 1
 316 141.5 l 1
EndSplineSet
EndChar

StartChar: glyph53
Encoding: 309 983125 53
Width: 1000
VWidth: 0
Flags: W
HStem: -10 20<334 556>
LayerCount: 2
Fore
SplineSet
705 500 m 1
 702 532.5 l 1
 694 563 l 1
 681 592.5 l 1
 664 619.5 l 1
 643 643.5 l 1
 619 664.5 l 1
 592 681.5 l 1
 562.5 694.5 l 1
 532 702.5 l 1
 500 705 l 1
 467.5 702.5 l 1
 437 694.5 l 1
 407.5 681.5 l 1
 380.5 664.5 l 1
 356.5 643.5 l 1
 335.5 619.5 l 1
 318.5 592.5 l 1
 305.5 563 l 1
 297.5 532.5 l 1
 295 500 l 1
 297.5 468 l 1
 305.5 437.5 l 1
 318.5 408 l 1
 335.5 381 l 1
 356.5 357 l 1
 380.5 336 l 1
 407.5 319 l 1
 437 306 l 1
 467.5 298 l 1
 500 295 l 1
 532 298 l 1
 562.5 306 l 1
 592 319 l 1
 619 336 l 1
 643 357 l 1
 664 381 l 1
 681 408 l 1
 694 437.5 l 1
 702 468 l 1
 705 500 l 1
745 500 m 1
 741.5 461.5 l 1
 732 424 l 1
 716.5 389.5 l 1
 696 357.5 l 1
 671.5 328.5 l 1
 642.5 304 l 1
 610.5 283.5 l 1
 576 268 l 1
 538.5 258.5 l 1
 500 255 l 1
 461 258.5 l 1
 423.5 268 l 1
 389 283.5 l 1
 357 304 l 1
 328 328.5 l 1
 303.5 357.5 l 1
 283 389.5 l 1
 267.5 424 l 1
 258 461.5 l 1
 255 500 l 1
 258 539 l 1
 267.5 576.5 l 1
 283 611 l 1
 303.5 643 l 1
 328 672 l 1
 357 696.5 l 1
 389 717 l 1
 423.5 732.5 l 1
 461 742 l 1
 500 745 l 1
 538.5 742 l 1
 576 732.5 l 1
 610.5 717 l 1
 642.5 696.5 l 1
 671.5 672 l 1
 696 643 l 1
 716.5 611 l 1
 732 576.5 l 1
 741.5 539 l 1
 745 500 l 1
556 10 m 1
 606 60 l 1
 666 10 l 1
 666 -10 l 1
 334 -10 l 1
 334 10 l 1
 556 10 l 1
EndSplineSet
EndChar

StartChar: glyph54
Encoding: 310 983126 54
Width: 1000
VWidth: 0
Flags: W
LayerCount: 2
Fore
SplineSet
705 500 m 1
 702 532.5 l 1
 694 563 l 1
 681 592.5 l 1
 664 619.5 l 1
 643 643.5 l 1
 619 664.5 l 1
 592 681.5 l 1
 562.5 694.5 l 1
 532 702.5 l 1
 500 705 l 1
 467.5 702.5 l 1
 437 694.5 l 1
 407.5 681.5 l 1
 380.5 664.5 l 1
 356.5 643.5 l 1
 335.5 619.5 l 1
 318.5 592.5 l 1
 305.5 563 l 1
 297.5 532.5 l 1
 295 500 l 1
 297.5 468 l 1
 305.5 437.5 l 1
 318.5 408 l 1
 335.5 381 l 1
 356.5 357 l 1
 380.5 336 l 1
 407.5 319 l 1
 437 306 l 1
 467.5 298 l 1
 500 295 l 1
 532 298 l 1
 562.5 306 l 1
 592 319 l 1
 619 336 l 1
 643 357 l 1
 664 381 l 1
 681 408 l 1
 694 437.5 l 1
 702 468 l 1
 705 500 l 1
745 500 m 1
 741.5 461.5 l 1
 732 424 l 1
 716.5 389.5 l 1
 696 357.5 l 1
 671.5 328.5 l 1
 642.5 304 l 1
 610.5 283.5 l 1
 576 268 l 1
 538.5 258.5 l 1
 500 255 l 1
 461 258.5 l 1
 423.5 268 l 1
 389 283.5 l 1
 357 304 l 1
 328 328.5 l 1
 303.5 357.5 l 1
 283 389.5 l 1
 267.5 424 l 1
 258 461.5 l 1
 255 500 l 1
 258 539 l 1
 267.5 576.5 l 1
 283 611 l 1
 303.5 643 l 1
 328 672 l 1
 357 696.5 l 1
 389 717 l 1
 423.5 732.5 l 1
 461 742 l 1
 500 745 l 1
 538.5 742 l 1
 576 732.5 l 1
 610.5 717 l 1
 642.5 696.5 l 1
 671.5 672 l 1
 696 643 l 1
 716.5 611 l 1
 732 576.5 l 1
 741.5 539 l 1
 745 500 l 1
641 184 m 1
 642.5 185.5 l 1
 683.5 141.5 l 1
 687 124 l 1
 669.468315301 128.306027821 l 1
 650 110 l 1
 616 78.5 l 1
 582 47 l 1
 548 15.5 l 1
 514 -15.5 l 1
 479.5 -47 l 1
 444.5 -78 l 1
 409.5 -109 l 1
 373.5 -139.5 l 1
 337 -169 l 1
 330.5 -162.5 l 1
 360 -126 l 1
 390.5 -90 l 1
 421.5 -55 l 1
 452.5 -20 l 1
 484 14.5 l 1
 515 48.5 l 1
 546.5 82.5 l 1
 578 116.5 l 1
 609.5 150.5 l 1
 637.616266474 180.40142625 l 1
 637.5 180.5 l 1
 641 184 l 1
EndSplineSet
EndChar

StartChar: glyph55
Encoding: 311 983127 55
Width: 1000
VWidth: 0
Flags: W
LayerCount: 2
Fore
SplineSet
340.5 767.5 m 1
 370.5 753 l 1
 401 734.5 l 1
 432.5 712.5 l 1
 465 686.5 l 1
 498.5 657.5 l 1
 532.5 625 l 1
 568 590 l 1
 604.5 551 l 1
 641.5 509.5 l 1
 680 464.5 l 1
 686 442.5 l 1
 675 422.5 l 1
 653 416.5 l 1
 633 427.5 l 1
 597.5 473 l 1
 563.5 516 l 1
 530.5 556 l 1
 499 593.5 l 1
 468.5 627.5 l 1
 439 659 l 1
 411 687.5 l 1
 384.5 713.5 l 1
 359.5 737.5 l 1
 335.5 760 l 1
 340.5 767.5 l 1
705 100 m 1
 702 132.5 l 1
 694 163 l 1
 681 192.5 l 1
 664 219.5 l 1
 643 243.5 l 1
 619 264.5 l 1
 592 281.5 l 1
 562.5 294.5 l 1
 532 302.5 l 1
 500 305 l 1
 467.5 302.5 l 1
 437 294.5 l 1
 407.5 281.5 l 1
 380.5 264.5 l 1
 356.5 243.5 l 1
 335.5 219.5 l 1
 318.5 192.5 l 1
 305.5 163 l 1
 297.5 132.5 l 1
 295 100 l 1
 297.5 68 l 1
 305.5 37.5 l 1
 318.5 8 l 1
 335.5 -19 l 1
 356.5 -43 l 1
 380.5 -64 l 1
 407.5 -81 l 1
 437 -94 l 1
 467.5 -102 l 1
 500 -105 l 1
 532 -102 l 1
 562.5 -94 l 1
 592 -81 l 1
 619 -64 l 1
 643 -43 l 1
 664 -19 l 1
 681 8 l 1
 694 37.5 l 1
 702 68 l 1
 705 100 l 1
745 100 m 1
 741.5 61.5 l 1
 732 24 l 1
 716.5 -10.5 l 1
 696 -42.5 l 1
 671.5 -71.5 l 1
 642.5 -96 l 1
 610.5 -116.5 l 1
 576 -132 l 1
 538.5 -141.5 l 1
 500 -145 l 1
 461 -141.5 l 1
 423.5 -132 l 1
 389 -116.5 l 1
 357 -96 l 1
 328 -71.5 l 1
 303.5 -42.5 l 1
 283 -10.5 l 1
 267.5 24 l 1
 258 61.5 l 1
 255 100 l 1
 258 139 l 1
 267.5 176.5 l 1
 283 211 l 1
 303.5 243 l 1
 328 272 l 1
 357 296.5 l 1
 389 317 l 1
 423.5 332.5 l 1
 461 342 l 1
 500 345 l 1
 538.5 342 l 1
 576 332.5 l 1
 610.5 317 l 1
 642.5 296.5 l 1
 671.5 272 l 1
 696 243 l 1
 716.5 211 l 1
 732 176.5 l 1
 741.5 139 l 1
 745 100 l 1
EndSplineSet
EndChar

StartChar: glyph56
Encoding: 312 983128 56
Width: 1000
VWidth: 0
Flags: W
LayerCount: 2
Fore
SplineSet
340.5 767.5 m 1
 370.5 753 l 1
 401 734.5 l 1
 432.5 712.5 l 1
 465 686.5 l 1
 498.5 657.5 l 1
 514.354259323 642.345193295 l 1
 520 647.5 l 1
 555 678.5 l 1
 590 709.5 l 1
 626 740 l 1
 662.5 769.5 l 1
 669 763 l 1
 639.5 726.5 l 1
 609 690.5 l 1
 578 655.5 l 1
 547 620.5 l 1
 542.293103448 615.344827586 l 1
 568 590 l 1
 604.5 551 l 1
 641.5 509.5 l 1
 680 464.5 l 1
 686 442.5 l 1
 675 422.5 l 1
 653 416.5 l 1
 633 427.5 l 1
 597.5 473 l 1
 563.5 516 l 1
 530.5 556 l 1
 510.191067831 580.177300201 l 1
 484.5 552 l 1
 453 518 l 1
 421.5 484 l 1
 390 450 l 1
 372.395860285 431.278137128 l 1
 376 413 l 1
 358.5 416.5 l 1
 309 452 l 1
 316 459 l 1
 349.5 490.5 l 1
 383.5 522 l 1
 417.5 553.5 l 1
 451.5 585 l 1
 481.823340471 612.647751606 l 1
 468.5 627.5 l 1
 439 659 l 1
 411 687.5 l 1
 384.5 713.5 l 1
 359.5 737.5 l 1
 335.5 760 l 1
 340.5 767.5 l 1
705 100 m 1
 702 132.5 l 1
 694 163 l 1
 681 192.5 l 1
 664 219.5 l 1
 643 243.5 l 1
 619 264.5 l 1
 592 281.5 l 1
 562.5 294.5 l 1
 532 302.5 l 1
 500 305 l 1
 467.5 302.5 l 1
 437 294.5 l 1
 407.5 281.5 l 1
 380.5 264.5 l 1
 356.5 243.5 l 1
 335.5 219.5 l 1
 318.5 192.5 l 1
 305.5 163 l 1
 297.5 132.5 l 1
 295 100 l 1
 297.5 68 l 1
 305.5 37.5 l 1
 318.5 8 l 1
 335.5 -19 l 1
 356.5 -43 l 1
 380.5 -64 l 1
 407.5 -81 l 1
 437 -94 l 1
 467.5 -102 l 1
 500 -105 l 1
 532 -102 l 1
 562.5 -94 l 1
 592 -81 l 1
 619 -64 l 1
 643 -43 l 1
 664 -19 l 1
 681 8 l 1
 694 37.5 l 1
 702 68 l 1
 705 100 l 1
745 100 m 1
 741.5 61.5 l 1
 732 24 l 1
 716.5 -10.5 l 1
 696 -42.5 l 1
 671.5 -71.5 l 1
 642.5 -96 l 1
 610.5 -116.5 l 1
 576 -132 l 1
 538.5 -141.5 l 1
 500 -145 l 1
 461 -141.5 l 1
 423.5 -132 l 1
 389 -116.5 l 1
 357 -96 l 1
 328 -71.5 l 1
 303.5 -42.5 l 1
 283 -10.5 l 1
 267.5 24 l 1
 258 61.5 l 1
 255 100 l 1
 258 139 l 1
 267.5 176.5 l 1
 283 211 l 1
 303.5 243 l 1
 328 272 l 1
 357 296.5 l 1
 389 317 l 1
 423.5 332.5 l 1
 461 342 l 1
 500 345 l 1
 538.5 342 l 1
 576 332.5 l 1
 610.5 317 l 1
 642.5 296.5 l 1
 671.5 272 l 1
 696 243 l 1
 716.5 211 l 1
 732 176.5 l 1
 741.5 139 l 1
 745 100 l 1
EndSplineSet
EndChar

StartChar: glyph57
Encoding: 313 983129 57
Width: 1000
VWidth: 0
Flags: W
HStem: 590 20<334 556>
LayerCount: 2
Fore
SplineSet
705 100 m 1
 702 132.5 l 1
 694 163 l 1
 681 192.5 l 1
 664 219.5 l 1
 643 243.5 l 1
 619 264.5 l 1
 592 281.5 l 1
 562.5 294.5 l 1
 532 302.5 l 1
 500 305 l 1
 467.5 302.5 l 1
 437 294.5 l 1
 407.5 281.5 l 1
 380.5 264.5 l 1
 356.5 243.5 l 1
 335.5 219.5 l 1
 318.5 192.5 l 1
 305.5 163 l 1
 297.5 132.5 l 1
 295 100 l 1
 297.5 68 l 1
 305.5 37.5 l 1
 318.5 8 l 1
 335.5 -19 l 1
 356.5 -43 l 1
 380.5 -64 l 1
 407.5 -81 l 1
 437 -94 l 1
 467.5 -102 l 1
 500 -105 l 1
 532 -102 l 1
 562.5 -94 l 1
 592 -81 l 1
 619 -64 l 1
 643 -43 l 1
 664 -19 l 1
 681 8 l 1
 694 37.5 l 1
 702 68 l 1
 705 100 l 1
745 100 m 1
 741.5 61.5 l 1
 732 24 l 1
 716.5 -10.5 l 1
 696 -42.5 l 1
 671.5 -71.5 l 1
 642.5 -96 l 1
 610.5 -116.5 l 1
 576 -132 l 1
 538.5 -141.5 l 1
 500 -145 l 1
 461 -141.5 l 1
 423.5 -132 l 1
 389 -116.5 l 1
 357 -96 l 1
 328 -71.5 l 1
 303.5 -42.5 l 1
 283 -10.5 l 1
 267.5 24 l 1
 258 61.5 l 1
 255 100 l 1
 258 139 l 1
 267.5 176.5 l 1
 283 211 l 1
 303.5 243 l 1
 328 272 l 1
 357 296.5 l 1
 389 317 l 1
 423.5 332.5 l 1
 461 342 l 1
 500 345 l 1
 538.5 342 l 1
 576 332.5 l 1
 610.5 317 l 1
 642.5 296.5 l 1
 671.5 272 l 1
 696 243 l 1
 716.5 211 l 1
 732 176.5 l 1
 741.5 139 l 1
 745 100 l 1
556 610 m 1
 606 660 l 1
 666 610 l 1
 666 590 l 1
 334 590 l 1
 334 610 l 1
 556 610 l 1
EndSplineSet
EndChar

StartChar: glyph58
Encoding: 314 983130 58
Width: 1000
VWidth: 0
Flags: W
HStem: -120 20<242 470 530 648> 279 20<281 470 530 609>
VStem: 470 60<-100 279>
LayerCount: 2
Fore
SplineSet
648 -100 m 1
 698 -50 l 1
 758 -100 l 1
 758 -120 l 1
 530 -120 l 1
 470 -120 l 1
 242 -120 l 1
 242 -100 l 1
 470 -100 l 1
 470 279 l 1
 281 279 l 1
 281 299 l 1
 470 299 l 1
 530 299 l 1
 609 299 l 1
 659 349 l 1
 719 299 l 1
 719 279 l 1
 530 279 l 1
 530 -100 l 1
 648 -100 l 1
372.395860285 431.278137128 m 1
 376 413 l 1
 358.5 416.5 l 1
 309 452 l 1
 316 459 l 1
 349.5 490.5 l 1
 383.5 522 l 1
 417.5 553.5 l 1
 451.5 585 l 1
 485.5 616 l 1
 520 647.5 l 1
 555 678.5 l 1
 590 709.5 l 1
 626 740 l 1
 662.5 769.5 l 1
 669 763 l 1
 639.5 726.5 l 1
 609 690.5 l 1
 578 655.5 l 1
 547 620.5 l 1
 515.5 586 l 1
 484.5 552 l 1
 453 518 l 1
 421.5 484 l 1
 390 450 l 1
 372.395860285 431.278137128 l 1
EndSplineSet
EndChar

StartChar: glyph59
Encoding: 315 983131 59
Width: 1000
VWidth: 0
Flags: W
HStem: 280 20<242 470 530 648> 679 20<281 470 530 609>
VStem: 470 60<300 679>
LayerCount: 2
Fore
SplineSet
648 300 m 1
 698 350 l 1
 758 300 l 1
 758 280 l 1
 530 280 l 1
 470 280 l 1
 242 280 l 1
 242 300 l 1
 470 300 l 1
 470 679 l 1
 281 679 l 1
 281 699 l 1
 470 699 l 1
 530 699 l 1
 609 699 l 1
 659 749 l 1
 719 699 l 1
 719 679 l 1
 530 679 l 1
 530 300 l 1
 648 300 l 1
316 141.5 m 1
 314.5 143 l 1
 358.5 184 l 1
 376 187.5 l 1
 371.693972179 169.968315301 l 1
 390 150.5 l 1
 421.5 116.5 l 1
 453 82.5 l 1
 484.5 48.5 l 1
 515.5 14.5 l 1
 547 -20 l 1
 578 -55 l 1
 609 -90 l 1
 639.5 -126 l 1
 669 -162.5 l 1
 662.5 -169 l 1
 626 -139.5 l 1
 590 -109 l 1
 555 -78 l 1
 520 -47 l 1
 485.5 -15.5 l 1
 451.5 15.5 l 1
 417.5 47 l 1
 383.5 78.5 l 1
 349.5 110 l 1
 319.59857375 138.116266474 l 1
 319.5 138 l 1
 316 141.5 l 1
EndSplineSet
EndChar

StartChar: glyph60
Encoding: 316 983132 60
Width: 1000
VWidth: 0
Flags: W
HStem: -10 20<334 556> 280 20<242 470 530 648> 679 20<281 470 530 609>
VStem: 470 60<300 679>
LayerCount: 2
Fore
SplineSet
648 300 m 1
 698 350 l 1
 758 300 l 1
 758 280 l 1
 530 280 l 1
 470 280 l 1
 242 280 l 1
 242 300 l 1
 470 300 l 1
 470 679 l 1
 281 679 l 1
 281 699 l 1
 470 699 l 1
 530 699 l 1
 609 699 l 1
 659 749 l 1
 719 699 l 1
 719 679 l 1
 530 679 l 1
 530 300 l 1
 648 300 l 1
556 10 m 1
 606 60 l 1
 666 10 l 1
 666 -10 l 1
 334 -10 l 1
 334 10 l 1
 556 10 l 1
EndSplineSet
EndChar

StartChar: glyph61
Encoding: 317 983133 61
Width: 1000
VWidth: 0
Flags: W
HStem: 280 20<242 470 530 648> 679 20<281 470 530 609>
VStem: 470 60<300 679>
LayerCount: 2
Fore
SplineSet
648 300 m 1
 698 350 l 1
 758 300 l 1
 758 280 l 1
 530 280 l 1
 470 280 l 1
 242 280 l 1
 242 300 l 1
 470 300 l 1
 470 679 l 1
 281 679 l 1
 281 699 l 1
 470 699 l 1
 530 699 l 1
 609 699 l 1
 659 749 l 1
 719 699 l 1
 719 679 l 1
 530 679 l 1
 530 300 l 1
 648 300 l 1
641 184 m 1
 642.5 185.5 l 1
 683.5 141.5 l 1
 687 124 l 1
 669.468315301 128.306027821 l 1
 650 110 l 1
 616 78.5 l 1
 582 47 l 1
 548 15.5 l 1
 514 -15.5 l 1
 479.5 -47 l 1
 444.5 -78 l 1
 409.5 -109 l 1
 373.5 -139.5 l 1
 337 -169 l 1
 330.5 -162.5 l 1
 360 -126 l 1
 390.5 -90 l 1
 421.5 -55 l 1
 452.5 -20 l 1
 484 14.5 l 1
 515 48.5 l 1
 546.5 82.5 l 1
 578 116.5 l 1
 609.5 150.5 l 1
 637.616266474 180.40142625 l 1
 637.5 180.5 l 1
 641 184 l 1
EndSplineSet
EndChar

StartChar: glyph62
Encoding: 318 983134 62
Width: 1000
VWidth: 0
Flags: W
HStem: -120 20<242 470 530 648> 279 20<281 470 530 609>
VStem: 470 60<-100 279>
LayerCount: 2
Fore
SplineSet
340.5 767.5 m 1
 370.5 753 l 1
 401 734.5 l 1
 432.5 712.5 l 1
 465 686.5 l 1
 498.5 657.5 l 1
 532.5 625 l 1
 568 590 l 1
 604.5 551 l 1
 641.5 509.5 l 1
 680 464.5 l 1
 686 442.5 l 1
 675 422.5 l 1
 653 416.5 l 1
 633 427.5 l 1
 597.5 473 l 1
 563.5 516 l 1
 530.5 556 l 1
 499 593.5 l 1
 468.5 627.5 l 1
 439 659 l 1
 411 687.5 l 1
 384.5 713.5 l 1
 359.5 737.5 l 1
 335.5 760 l 1
 340.5 767.5 l 1
648 -100 m 1
 698 -50 l 1
 758 -100 l 1
 758 -120 l 1
 530 -120 l 1
 470 -120 l 1
 242 -120 l 1
 242 -100 l 1
 470 -100 l 1
 470 279 l 1
 281 279 l 1
 281 299 l 1
 470 299 l 1
 530 299 l 1
 609 299 l 1
 659 349 l 1
 719 299 l 1
 719 279 l 1
 530 279 l 1
 530 -100 l 1
 648 -100 l 1
EndSplineSet
EndChar

StartChar: glyph63
Encoding: 319 983135 63
Width: 1000
VWidth: 0
Flags: W
HStem: -120 20<242 470 530 648> 279 20<281 470 530 609>
VStem: 470 60<-100 279>
LayerCount: 2
Fore
SplineSet
340.5 767.5 m 1
 370.5 753 l 1
 401 734.5 l 1
 432.5 712.5 l 1
 465 686.5 l 1
 498.5 657.5 l 1
 514.354259323 642.345193295 l 1
 520 647.5 l 1
 555 678.5 l 1
 590 709.5 l 1
 626 740 l 1
 662.5 769.5 l 1
 669 763 l 1
 639.5 726.5 l 1
 609 690.5 l 1
 578 655.5 l 1
 547 620.5 l 1
 542.293103448 615.344827586 l 1
 568 590 l 1
 604.5 551 l 1
 641.5 509.5 l 1
 680 464.5 l 1
 686 442.5 l 1
 675 422.5 l 1
 653 416.5 l 1
 633 427.5 l 1
 597.5 473 l 1
 563.5 516 l 1
 530.5 556 l 1
 510.191067831 580.177300201 l 1
 484.5 552 l 1
 453 518 l 1
 421.5 484 l 1
 390 450 l 1
 372.395860285 431.278137128 l 1
 376 413 l 1
 358.5 416.5 l 1
 309 452 l 1
 316 459 l 1
 349.5 490.5 l 1
 383.5 522 l 1
 417.5 553.5 l 1
 451.5 585 l 1
 481.823340471 612.647751606 l 1
 468.5 627.5 l 1
 439 659 l 1
 411 687.5 l 1
 384.5 713.5 l 1
 359.5 737.5 l 1
 335.5 760 l 1
 340.5 767.5 l 1
648 -100 m 1
 698 -50 l 1
 758 -100 l 1
 758 -120 l 1
 530 -120 l 1
 470 -120 l 1
 242 -120 l 1
 242 -100 l 1
 470 -100 l 1
 470 279 l 1
 281 279 l 1
 281 299 l 1
 470 299 l 1
 530 299 l 1
 609 299 l 1
 659 349 l 1
 719 299 l 1
 719 279 l 1
 530 279 l 1
 530 -100 l 1
 648 -100 l 1
EndSplineSet
EndChar

StartChar: glyph64
Encoding: 320 983136 64
Width: 1000
VWidth: 0
Flags: W
HStem: -120 20<242 470 530 648> 279 20<281 470 530 609> 590 20<334 556>
VStem: 470 60<-100 279>
LayerCount: 2
Fore
SplineSet
648 -100 m 1
 698 -50 l 1
 758 -100 l 1
 758 -120 l 1
 530 -120 l 1
 470 -120 l 1
 242 -120 l 1
 242 -100 l 1
 470 -100 l 1
 470 279 l 1
 281 279 l 1
 281 299 l 1
 470 299 l 1
 530 299 l 1
 609 299 l 1
 659 349 l 1
 719 299 l 1
 719 279 l 1
 530 279 l 1
 530 -100 l 1
 648 -100 l 1
556 610 m 1
 606 660 l 1
 666 610 l 1
 666 590 l 1
 334 590 l 1
 334 610 l 1
 556 610 l 1
EndSplineSet
EndChar

StartChar: glyph65
Encoding: 321 983137 65
Width: 1000
VWidth: 0
Flags: W
HStem: -120 20<311 689>
VStem: 251 60<-100 286> 689 60<-100 286>
LayerCount: 2
Fore
SplineSet
749 286 m 1
 749 -120 l 1
 689 -150 l 1
 689 -120 l 1
 311 -120 l 1
 251 -150 l 1
 251 315 l 1
 311 305 l 1
 326 295 l 1
 311 286 l 1
 311 -100 l 1
 689 -100 l 1
 689 315 l 1
 749 305 l 1
 764 295 l 1
 749 286 l 1
372.395860285 431.278137128 m 1
 376 413 l 1
 358.5 416.5 l 1
 309 452 l 1
 316 459 l 1
 349.5 490.5 l 1
 383.5 522 l 1
 417.5 553.5 l 1
 451.5 585 l 1
 485.5 616 l 1
 520 647.5 l 1
 555 678.5 l 1
 590 709.5 l 1
 626 740 l 1
 662.5 769.5 l 1
 669 763 l 1
 639.5 726.5 l 1
 609 690.5 l 1
 578 655.5 l 1
 547 620.5 l 1
 515.5 586 l 1
 484.5 552 l 1
 453 518 l 1
 421.5 484 l 1
 390 450 l 1
 372.395860285 431.278137128 l 1
EndSplineSet
EndChar

StartChar: glyph66
Encoding: 322 983138 66
Width: 1000
VWidth: 0
Flags: W
HStem: 280 20<311 689>
VStem: 251 60<220 280 300 686> 689 60<250 280 300 686>
LayerCount: 2
Fore
SplineSet
749 686 m 1
 749 250 l 1
 689 220 l 1
 689 280 l 1
 311 280 l 1
 311 220 l 1
 251 190 l 1
 251 715 l 1
 311 705 l 1
 326 695 l 1
 311 686 l 1
 311 300 l 1
 689 300 l 1
 689 715 l 1
 749 705 l 1
 764 695 l 1
 749 686 l 1
316 141.5 m 1
 314.5 143 l 1
 358.5 184 l 1
 376 187.5 l 1
 371.693972179 169.968315301 l 1
 390 150.5 l 1
 421.5 116.5 l 1
 453 82.5 l 1
 484.5 48.5 l 1
 515.5 14.5 l 1
 547 -20 l 1
 578 -55 l 1
 609 -90 l 1
 639.5 -126 l 1
 669 -162.5 l 1
 662.5 -169 l 1
 626 -139.5 l 1
 590 -109 l 1
 555 -78 l 1
 520 -47 l 1
 485.5 -15.5 l 1
 451.5 15.5 l 1
 417.5 47 l 1
 383.5 78.5 l 1
 349.5 110 l 1
 319.59857375 138.116266474 l 1
 319.5 138 l 1
 316 141.5 l 1
EndSplineSet
EndChar

StartChar: glyph67
Encoding: 323 983139 67
Width: 1000
VWidth: 0
Flags: W
HStem: -10 20<334 556> 280 20<311 689>
VStem: 251 60<220 280 300 686> 689 60<250 280 300 686>
LayerCount: 2
Fore
SplineSet
749 686 m 1
 749 250 l 1
 689 220 l 1
 689 280 l 1
 311 280 l 1
 311 220 l 1
 251 190 l 1
 251 715 l 1
 311 705 l 1
 326 695 l 1
 311 686 l 1
 311 300 l 1
 689 300 l 1
 689 715 l 1
 749 705 l 1
 764 695 l 1
 749 686 l 1
556 10 m 1
 606 60 l 1
 666 10 l 1
 666 -10 l 1
 334 -10 l 1
 334 10 l 1
 556 10 l 1
EndSplineSet
EndChar

StartChar: glyph68
Encoding: 324 983140 68
Width: 1000
VWidth: 0
Flags: W
HStem: 280 20<311 689>
VStem: 251 60<220 280 300 686> 689 60<250 280 300 686>
LayerCount: 2
Fore
SplineSet
749 686 m 1
 749 250 l 1
 689 220 l 1
 689 280 l 1
 311 280 l 1
 311 220 l 1
 251 190 l 1
 251 715 l 1
 311 705 l 1
 326 695 l 1
 311 686 l 1
 311 300 l 1
 689 300 l 1
 689 715 l 1
 749 705 l 1
 764 695 l 1
 749 686 l 1
641 184 m 1
 642.5 185.5 l 1
 683.5 141.5 l 1
 687 124 l 1
 669.468315301 128.306027821 l 1
 650 110 l 1
 616 78.5 l 1
 582 47 l 1
 548 15.5 l 1
 514 -15.5 l 1
 479.5 -47 l 1
 444.5 -78 l 1
 409.5 -109 l 1
 373.5 -139.5 l 1
 337 -169 l 1
 330.5 -162.5 l 1
 360 -126 l 1
 390.5 -90 l 1
 421.5 -55 l 1
 452.5 -20 l 1
 484 14.5 l 1
 515 48.5 l 1
 546.5 82.5 l 1
 578 116.5 l 1
 609.5 150.5 l 1
 637.616266474 180.40142625 l 1
 637.5 180.5 l 1
 641 184 l 1
EndSplineSet
EndChar

StartChar: glyph69
Encoding: 325 983141 69
Width: 1000
VWidth: 0
Flags: W
HStem: -120 20<311 689>
VStem: 251 60<-100 286> 689 60<-100 286>
LayerCount: 2
Fore
SplineSet
340.5 767.5 m 1
 370.5 753 l 1
 401 734.5 l 1
 432.5 712.5 l 1
 465 686.5 l 1
 498.5 657.5 l 1
 532.5 625 l 1
 568 590 l 1
 604.5 551 l 1
 641.5 509.5 l 1
 680 464.5 l 1
 686 442.5 l 1
 675 422.5 l 1
 653 416.5 l 1
 633 427.5 l 1
 597.5 473 l 1
 563.5 516 l 1
 530.5 556 l 1
 499 593.5 l 1
 468.5 627.5 l 1
 439 659 l 1
 411 687.5 l 1
 384.5 713.5 l 1
 359.5 737.5 l 1
 335.5 760 l 1
 340.5 767.5 l 1
749 286 m 1
 749 -120 l 1
 689 -150 l 1
 689 -120 l 1
 311 -120 l 1
 251 -150 l 1
 251 315 l 1
 311 305 l 1
 326 295 l 1
 311 286 l 1
 311 -100 l 1
 689 -100 l 1
 689 315 l 1
 749 305 l 1
 764 295 l 1
 749 286 l 1
EndSplineSet
EndChar

StartChar: glyph70
Encoding: 326 983142 70
Width: 1000
VWidth: 0
Flags: W
HStem: -120 20<311 689>
VStem: 251 60<-100 286> 689 60<-100 286>
LayerCount: 2
Fore
SplineSet
340.5 767.5 m 1
 370.5 753 l 1
 401 734.5 l 1
 432.5 712.5 l 1
 465 686.5 l 1
 498.5 657.5 l 1
 514.354259323 642.345193295 l 1
 520 647.5 l 1
 555 678.5 l 1
 590 709.5 l 1
 626 740 l 1
 662.5 769.5 l 1
 669 763 l 1
 639.5 726.5 l 1
 609 690.5 l 1
 578 655.5 l 1
 547 620.5 l 1
 542.293103448 615.344827586 l 1
 568 590 l 1
 604.5 551 l 1
 641.5 509.5 l 1
 680 464.5 l 1
 686 442.5 l 1
 675 422.5 l 1
 653 416.5 l 1
 633 427.5 l 1
 597.5 473 l 1
 563.5 516 l 1
 530.5 556 l 1
 510.191067831 580.177300201 l 1
 484.5 552 l 1
 453 518 l 1
 421.5 484 l 1
 390 450 l 1
 372.395860285 431.278137128 l 1
 376 413 l 1
 358.5 416.5 l 1
 309 452 l 1
 316 459 l 1
 349.5 490.5 l 1
 383.5 522 l 1
 417.5 553.5 l 1
 451.5 585 l 1
 481.823340471 612.647751606 l 1
 468.5 627.5 l 1
 439 659 l 1
 411 687.5 l 1
 384.5 713.5 l 1
 359.5 737.5 l 1
 335.5 760 l 1
 340.5 767.5 l 1
749 286 m 1
 749 -120 l 1
 689 -150 l 1
 689 -120 l 1
 311 -120 l 1
 251 -150 l 1
 251 315 l 1
 311 305 l 1
 326 295 l 1
 311 286 l 1
 311 -100 l 1
 689 -100 l 1
 689 315 l 1
 749 305 l 1
 764 295 l 1
 749 286 l 1
EndSplineSet
EndChar

StartChar: glyph71
Encoding: 327 983143 71
Width: 1000
VWidth: 0
Flags: W
HStem: -120 20<311 689> 590 20<334 556>
VStem: 251 60<-100 286> 689 60<-100 286>
LayerCount: 2
Fore
SplineSet
749 286 m 1
 749 -120 l 1
 689 -150 l 1
 689 -120 l 1
 311 -120 l 1
 251 -150 l 1
 251 315 l 1
 311 305 l 1
 326 295 l 1
 311 286 l 1
 311 -100 l 1
 689 -100 l 1
 689 315 l 1
 749 305 l 1
 764 295 l 1
 749 286 l 1
556 610 m 1
 606 660 l 1
 666 610 l 1
 666 590 l 1
 334 590 l 1
 334 610 l 1
 556 610 l 1
EndSplineSet
EndChar

StartChar: glyph72
Encoding: 328 983144 72
Width: 1000
VWidth: 0
Flags: W
HStem: -120 20<425 575> 153 20<257 365 425 575 635 655.091>
VStem: 365 60<-100 153 173 307> 575 60<-100 153 173 307>
LayerCount: 2
Fore
SplineSet
655.090909091 173 m 1
 696 218 l 1
 746 173 l 1
 746 153 l 1
 635 153 l 1
 635 -120 l 1
 575 -150 l 1
 575 -120 l 1
 425 -120 l 1
 365 -150 l 1
 365 153 l 1
 257 153 l 1
 257 173 l 1
 365 173 l 1
 365 336 l 1
 425 326 l 1
 440 316 l 1
 425 307 l 1
 425 173 l 1
 575 173 l 1
 575 336 l 1
 635 326 l 1
 650 316 l 1
 635 307 l 1
 635 173 l 1
 655.090909091 173 l 1
575 153 m 1
 425 153 l 1
 425 -100 l 1
 575 -100 l 1
 575 153 l 1
372.395860285 431.278137128 m 1
 376 413 l 1
 358.5 416.5 l 1
 309 452 l 1
 316 459 l 1
 349.5 490.5 l 1
 383.5 522 l 1
 417.5 553.5 l 1
 451.5 585 l 1
 485.5 616 l 1
 520 647.5 l 1
 555 678.5 l 1
 590 709.5 l 1
 626 740 l 1
 662.5 769.5 l 1
 669 763 l 1
 639.5 726.5 l 1
 609 690.5 l 1
 578 655.5 l 1
 547 620.5 l 1
 515.5 586 l 1
 484.5 552 l 1
 453 518 l 1
 421.5 484 l 1
 390 450 l 1
 372.395860285 431.278137128 l 1
EndSplineSet
EndChar

StartChar: glyph73
Encoding: 329 983145 73
Width: 1000
VWidth: 0
Flags: W
HStem: 280 20<425 575> 553 20<257 365 425 575 635 655.091>
VStem: 365 60<245 280 300 553 573 707> 575 60<250 280 300 553 573 707>
LayerCount: 2
Fore
SplineSet
655.090909091 573 m 1
 696 618 l 1
 746 573 l 1
 746 553 l 1
 635 553 l 1
 635 250 l 1
 575 220 l 1
 575 280 l 1
 425 280 l 1
 425 245 l 1
 365 215 l 1
 365 553 l 1
 257 553 l 1
 257 573 l 1
 365 573 l 1
 365 736 l 1
 425 726 l 1
 440 716 l 1
 425 707 l 1
 425 573 l 1
 575 573 l 1
 575 736 l 1
 635 726 l 1
 650 716 l 1
 635 707 l 1
 635 573 l 1
 655.090909091 573 l 1
575 553 m 1
 425 553 l 1
 425 300 l 1
 575 300 l 1
 575 553 l 1
316 141.5 m 1
 314.5 143 l 1
 358.5 184 l 1
 376 187.5 l 1
 371.693972179 169.968315301 l 1
 390 150.5 l 1
 421.5 116.5 l 1
 453 82.5 l 1
 484.5 48.5 l 1
 515.5 14.5 l 1
 547 -20 l 1
 578 -55 l 1
 609 -90 l 1
 639.5 -126 l 1
 669 -162.5 l 1
 662.5 -169 l 1
 626 -139.5 l 1
 590 -109 l 1
 555 -78 l 1
 520 -47 l 1
 485.5 -15.5 l 1
 451.5 15.5 l 1
 417.5 47 l 1
 383.5 78.5 l 1
 349.5 110 l 1
 319.59857375 138.116266474 l 1
 319.5 138 l 1
 316 141.5 l 1
EndSplineSet
EndChar

StartChar: glyph74
Encoding: 330 983146 74
Width: 1000
VWidth: 0
Flags: W
HStem: -10 20<334 556> 280 20<425 575> 553 20<257 365 425 575 635 655.091>
VStem: 365 60<220 280 300 553 573 707> 575 60<250 280 300 553 573 707>
LayerCount: 2
Fore
SplineSet
655.090909091 573 m 1
 696 618 l 1
 746 573 l 1
 746 553 l 1
 635 553 l 1
 635 250 l 1
 575 220 l 1
 575 280 l 1
 425 280 l 1
 425 220 l 1
 365 190 l 1
 365 553 l 1
 257 553 l 1
 257 573 l 1
 365 573 l 1
 365 736 l 1
 425 726 l 1
 440 716 l 1
 425 707 l 1
 425 573 l 1
 575 573 l 1
 575 736 l 1
 635 726 l 1
 650 716 l 1
 635 707 l 1
 635 573 l 1
 655.090909091 573 l 1
575 553 m 1
 425 553 l 1
 425 300 l 1
 575 300 l 1
 575 553 l 1
556 10 m 1
 606 60 l 1
 666 10 l 1
 666 -10 l 1
 334 -10 l 1
 334 10 l 1
 556 10 l 1
EndSplineSet
EndChar

StartChar: glyph75
Encoding: 331 983147 75
Width: 1000
VWidth: 0
Flags: W
HStem: 280 20<425 575> 553 20<257 365 425 575 635 655.091>
VStem: 365 60<220 280 300 553 573 707> 575 60<260 280 300 553 573 707>
LayerCount: 2
Fore
SplineSet
655.090909091 573 m 1
 696 618 l 1
 746 573 l 1
 746 553 l 1
 635 553 l 1
 635 260 l 1
 575 230 l 1
 575 280 l 1
 425 280 l 1
 425 220 l 1
 365 190 l 1
 365 553 l 1
 257 553 l 1
 257 573 l 1
 365 573 l 1
 365 736 l 1
 425 726 l 1
 440 716 l 1
 425 707 l 1
 425 573 l 1
 575 573 l 1
 575 736 l 1
 635 726 l 1
 650 716 l 1
 635 707 l 1
 635 573 l 1
 655.090909091 573 l 1
575 553 m 1
 425 553 l 1
 425 300 l 1
 575 300 l 1
 575 553 l 1
641 184 m 1
 642.5 185.5 l 1
 683.5 141.5 l 1
 687 124 l 1
 669.468315301 128.306027821 l 1
 650 110 l 1
 616 78.5 l 1
 582 47 l 1
 548 15.5 l 1
 514 -15.5 l 1
 479.5 -47 l 1
 444.5 -78 l 1
 409.5 -109 l 1
 373.5 -139.5 l 1
 337 -169 l 1
 330.5 -162.5 l 1
 360 -126 l 1
 390.5 -90 l 1
 421.5 -55 l 1
 452.5 -20 l 1
 484 14.5 l 1
 515 48.5 l 1
 546.5 82.5 l 1
 578 116.5 l 1
 609.5 150.5 l 1
 637.616266474 180.40142625 l 1
 637.5 180.5 l 1
 641 184 l 1
EndSplineSet
EndChar

StartChar: glyph76
Encoding: 332 983148 76
Width: 1000
VWidth: 0
Flags: W
HStem: -120 20<425 575> 153 20<257 365 425 575 635 655.091>
VStem: 365 60<-100 153 173 307> 575 60<-100 153 173 307>
LayerCount: 2
Fore
SplineSet
340.5 767.5 m 1
 370.5 753 l 1
 401 734.5 l 1
 432.5 712.5 l 1
 465 686.5 l 1
 498.5 657.5 l 1
 532.5 625 l 1
 568 590 l 1
 604.5 551 l 1
 641.5 509.5 l 1
 680 464.5 l 1
 686 442.5 l 1
 675 422.5 l 1
 653 416.5 l 1
 633 427.5 l 1
 597.5 473 l 1
 563.5 516 l 1
 530.5 556 l 1
 499 593.5 l 1
 468.5 627.5 l 1
 439 659 l 1
 411 687.5 l 1
 384.5 713.5 l 1
 359.5 737.5 l 1
 335.5 760 l 1
 340.5 767.5 l 1
655.090909091 173 m 1
 696 218 l 1
 746 173 l 1
 746 153 l 1
 635 153 l 1
 635 -120 l 1
 575 -150 l 1
 575 -120 l 1
 425 -120 l 1
 365 -150 l 1
 365 153 l 1
 257 153 l 1
 257 173 l 1
 365 173 l 1
 365 336 l 1
 425 326 l 1
 440 316 l 1
 425 307 l 1
 425 173 l 1
 575 173 l 1
 575 336 l 1
 635 326 l 1
 650 316 l 1
 635 307 l 1
 635 173 l 1
 655.090909091 173 l 1
575 153 m 1
 425 153 l 1
 425 -100 l 1
 575 -100 l 1
 575 153 l 1
EndSplineSet
EndChar

StartChar: glyph77
Encoding: 333 983149 77
Width: 1000
VWidth: 0
Flags: W
HStem: -120 20<425 575> 153 20<257 365 425 575 635 655.091>
VStem: 365 60<-100 153 173 307> 575 60<-100 153 173 307>
LayerCount: 2
Fore
SplineSet
340.5 767.5 m 1
 370.5 753 l 1
 401 734.5 l 1
 432.5 712.5 l 1
 465 686.5 l 1
 498.5 657.5 l 1
 514.354259323 642.345193295 l 1
 520 647.5 l 1
 555 678.5 l 1
 590 709.5 l 1
 626 740 l 1
 662.5 769.5 l 1
 669 763 l 1
 639.5 726.5 l 1
 609 690.5 l 1
 578 655.5 l 1
 547 620.5 l 1
 542.293103448 615.344827586 l 1
 568 590 l 1
 604.5 551 l 1
 641.5 509.5 l 1
 680 464.5 l 1
 686 442.5 l 1
 675 422.5 l 1
 653 416.5 l 1
 633 427.5 l 1
 597.5 473 l 1
 563.5 516 l 1
 530.5 556 l 1
 510.191067831 580.177300201 l 1
 484.5 552 l 1
 453 518 l 1
 421.5 484 l 1
 390 450 l 1
 372.395860285 431.278137128 l 1
 376 413 l 1
 358.5 416.5 l 1
 309 452 l 1
 316 459 l 1
 349.5 490.5 l 1
 383.5 522 l 1
 417.5 553.5 l 1
 451.5 585 l 1
 481.823340471 612.647751606 l 1
 468.5 627.5 l 1
 439 659 l 1
 411 687.5 l 1
 384.5 713.5 l 1
 359.5 737.5 l 1
 335.5 760 l 1
 340.5 767.5 l 1
655.090909091 173 m 1
 696 218 l 1
 746 173 l 1
 746 153 l 1
 635 153 l 1
 635 -120 l 1
 575 -150 l 1
 575 -120 l 1
 425 -120 l 1
 365 -150 l 1
 365 153 l 1
 257 153 l 1
 257 173 l 1
 365 173 l 1
 365 336 l 1
 425 326 l 1
 440 316 l 1
 425 307 l 1
 425 173 l 1
 575 173 l 1
 575 336 l 1
 635 326 l 1
 650 316 l 1
 635 307 l 1
 635 173 l 1
 655.090909091 173 l 1
575 153 m 1
 425 153 l 1
 425 -100 l 1
 575 -100 l 1
 575 153 l 1
EndSplineSet
EndChar

StartChar: glyph78
Encoding: 334 983150 78
Width: 1000
VWidth: 0
Flags: W
HStem: -120 20<425 575> 153 20<257 365 425 575 635 655.091> 590 20<334 556>
VStem: 365 60<-100 153 173 307> 575 60<-100 153 173 307>
LayerCount: 2
Fore
SplineSet
655.090909091 173 m 1
 696 218 l 1
 746 173 l 1
 746 153 l 1
 635 153 l 1
 635 -120 l 1
 575 -150 l 1
 575 -120 l 1
 425 -120 l 1
 365 -150 l 1
 365 153 l 1
 257 153 l 1
 257 173 l 1
 365 173 l 1
 365 336 l 1
 425 326 l 1
 440 316 l 1
 425 307 l 1
 425 173 l 1
 575 173 l 1
 575 336 l 1
 635 326 l 1
 650 316 l 1
 635 307 l 1
 635 173 l 1
 655.090909091 173 l 1
575 153 m 1
 425 153 l 1
 425 -100 l 1
 575 -100 l 1
 575 153 l 1
556 610 m 1
 606 660 l 1
 666 610 l 1
 666 590 l 1
 334 590 l 1
 334 610 l 1
 556 610 l 1
EndSplineSet
EndChar

StartChar: glyph79
Encoding: 335 983151 79
Width: 1000
VWidth: 0
Flags: W
LayerCount: 2
Fore
SplineSet
725 -163.5 m 1
 679 -134.5 l 1
 638 -100.5 l 1
 602.5 -61.5 l 1
 573 -18 l 1
 548.5 30.5 l 1
 529.5 83 l 1
 516 140 l 1
 511.663937344 173.06247775 l 1
 501.5 127.5 l 1
 481 68.5 l 1
 455.5 15 l 1
 424.5 -32.5 l 1
 388.5 -73.5 l 1
 347 -108 l 1
 300.5 -135.5 l 1
 249.5 -156 l 1
 246 -147.5 l 1
 291 -119.5 l 1
 330 -87 l 1
 364 -51 l 1
 393.5 -10.5 l 1
 418 34.5 l 1
 437.5 84.5 l 1
 452.5 140 l 1
 463 200.5 l 1
 469 266.5 l 1
 470 338 l 1
 470 350 l 1
 530 338 l 1
 545 328 l 1
 528.825549451 318.29532967 l 1
 526.200220325 274.248141008 l 1
 527 267.5 l 1
 537.5 205 l 1
 551.5 148 l 1
 569 96.5 l 1
 590.5 50.5 l 1
 616 10 l 1
 645 -26 l 1
 677.5 -56.5 l 1
 714 -82.5 l 1
 754.5 -104 l 1
 781.5 -117.5 l 1
 725 -163.5 l 1
372.395860285 431.278137128 m 1
 376 413 l 1
 358.5 416.5 l 1
 309 452 l 1
 316 459 l 1
 349.5 490.5 l 1
 383.5 522 l 1
 417.5 553.5 l 1
 451.5 585 l 1
 485.5 616 l 1
 520 647.5 l 1
 555 678.5 l 1
 590 709.5 l 1
 626 740 l 1
 662.5 769.5 l 1
 669 763 l 1
 639.5 726.5 l 1
 609 690.5 l 1
 578 655.5 l 1
 547 620.5 l 1
 515.5 586 l 1
 484.5 552 l 1
 453 518 l 1
 421.5 484 l 1
 390 450 l 1
 372.395860285 431.278137128 l 1
EndSplineSet
EndChar

StartChar: glyph80
Encoding: 336 983152 80
Width: 1000
VWidth: 0
Flags: W
LayerCount: 2
Fore
SplineSet
725 236.5 m 1
 679 265.5 l 1
 638 299.5 l 1
 602.5 338.5 l 1
 573 382 l 1
 548.5 430.5 l 1
 529.5 483 l 1
 516 540 l 1
 511.663937344 573.06247775 l 1
 501.5 527.5 l 1
 481 468.5 l 1
 455.5 415 l 1
 424.5 367.5 l 1
 388.5 326.5 l 1
 347 292 l 1
 300.5 264.5 l 1
 249.5 244 l 1
 246 252.5 l 1
 291 280.5 l 1
 330 313 l 1
 364 349 l 1
 393.5 389.5 l 1
 418 434.5 l 1
 437.5 484.5 l 1
 452.5 540 l 1
 463 600.5 l 1
 469 666.5 l 1
 470 738 l 1
 470 750 l 1
 530 738 l 1
 545 728 l 1
 528.825549451 718.29532967 l 1
 526.200220325 674.248141008 l 1
 527 667.5 l 1
 537.5 605 l 1
 551.5 548 l 1
 569 496.5 l 1
 590.5 450.5 l 1
 616 410 l 1
 645 374 l 1
 677.5 343.5 l 1
 714 317.5 l 1
 754.5 296 l 1
 781.5 282.5 l 1
 725 236.5 l 1
316 141.5 m 1
 314.5 143 l 1
 358.5 184 l 1
 376 187.5 l 1
 371.693972179 169.968315301 l 1
 390 150.5 l 1
 421.5 116.5 l 1
 453 82.5 l 1
 484.5 48.5 l 1
 515.5 14.5 l 1
 547 -20 l 1
 578 -55 l 1
 609 -90 l 1
 639.5 -126 l 1
 669 -162.5 l 1
 662.5 -169 l 1
 626 -139.5 l 1
 590 -109 l 1
 555 -78 l 1
 520 -47 l 1
 485.5 -15.5 l 1
 451.5 15.5 l 1
 417.5 47 l 1
 383.5 78.5 l 1
 349.5 110 l 1
 319.59857375 138.116266474 l 1
 319.5 138 l 1
 316 141.5 l 1
EndSplineSet
EndChar

StartChar: glyph81
Encoding: 337 983153 81
Width: 1000
VWidth: 0
Flags: W
HStem: -10 20<334 556>
LayerCount: 2
Fore
SplineSet
725 236.5 m 1
 679 265.5 l 1
 638 299.5 l 1
 602.5 338.5 l 1
 573 382 l 1
 548.5 430.5 l 1
 529.5 483 l 1
 516 540 l 1
 511.663937344 573.06247775 l 1
 501.5 527.5 l 1
 481 468.5 l 1
 455.5 415 l 1
 424.5 367.5 l 1
 388.5 326.5 l 1
 347 292 l 1
 300.5 264.5 l 1
 249.5 244 l 1
 246 252.5 l 1
 291 280.5 l 1
 330 313 l 1
 364 349 l 1
 393.5 389.5 l 1
 418 434.5 l 1
 437.5 484.5 l 1
 452.5 540 l 1
 463 600.5 l 1
 469 666.5 l 1
 470 738 l 1
 470 750 l 1
 530 738 l 1
 545 728 l 1
 528.825549451 718.29532967 l 1
 526.200220325 674.248141008 l 1
 527 667.5 l 1
 537.5 605 l 1
 551.5 548 l 1
 569 496.5 l 1
 590.5 450.5 l 1
 616 410 l 1
 645 374 l 1
 677.5 343.5 l 1
 714 317.5 l 1
 754.5 296 l 1
 781.5 282.5 l 1
 725 236.5 l 1
556 10 m 1
 606 60 l 1
 666 10 l 1
 666 -10 l 1
 334 -10 l 1
 334 10 l 1
 556 10 l 1
EndSplineSet
EndChar

StartChar: glyph82
Encoding: 338 983154 82
Width: 1000
VWidth: 0
Flags: W
LayerCount: 2
Fore
SplineSet
725 236.5 m 1
 679 265.5 l 1
 638 299.5 l 1
 602.5 338.5 l 1
 573 382 l 1
 548.5 430.5 l 1
 529.5 483 l 1
 516 540 l 1
 511.663937344 573.06247775 l 1
 501.5 527.5 l 1
 481 468.5 l 1
 455.5 415 l 1
 424.5 367.5 l 1
 388.5 326.5 l 1
 347 292 l 1
 300.5 264.5 l 1
 249.5 244 l 1
 246 252.5 l 1
 291 280.5 l 1
 330 313 l 1
 364 349 l 1
 393.5 389.5 l 1
 418 434.5 l 1
 437.5 484.5 l 1
 452.5 540 l 1
 463 600.5 l 1
 469 666.5 l 1
 470 738 l 1
 470 750 l 1
 530 738 l 1
 545 728 l 1
 528.825549451 718.29532967 l 1
 526.200220325 674.248141008 l 1
 527 667.5 l 1
 537.5 605 l 1
 551.5 548 l 1
 569 496.5 l 1
 590.5 450.5 l 1
 616 410 l 1
 645 374 l 1
 677.5 343.5 l 1
 714 317.5 l 1
 754.5 296 l 1
 781.5 282.5 l 1
 725 236.5 l 1
641 184 m 1
 642.5 185.5 l 1
 683.5 141.5 l 1
 687 124 l 1
 669.468315301 128.306027821 l 1
 650 110 l 1
 616 78.5 l 1
 582 47 l 1
 548 15.5 l 1
 514 -15.5 l 1
 479.5 -47 l 1
 444.5 -78 l 1
 409.5 -109 l 1
 373.5 -139.5 l 1
 337 -169 l 1
 330.5 -162.5 l 1
 360 -126 l 1
 390.5 -90 l 1
 421.5 -55 l 1
 452.5 -20 l 1
 484 14.5 l 1
 515 48.5 l 1
 546.5 82.5 l 1
 578 116.5 l 1
 609.5 150.5 l 1
 637.616266474 180.40142625 l 1
 637.5 180.5 l 1
 641 184 l 1
EndSplineSet
EndChar

StartChar: glyph83
Encoding: 339 983155 83
Width: 1000
VWidth: 0
Flags: W
LayerCount: 2
Fore
SplineSet
340.5 767.5 m 1
 370.5 753 l 1
 401 734.5 l 1
 432.5 712.5 l 1
 465 686.5 l 1
 498.5 657.5 l 1
 532.5 625 l 1
 568 590 l 1
 604.5 551 l 1
 641.5 509.5 l 1
 680 464.5 l 1
 686 442.5 l 1
 675 422.5 l 1
 653 416.5 l 1
 633 427.5 l 1
 597.5 473 l 1
 563.5 516 l 1
 530.5 556 l 1
 499 593.5 l 1
 468.5 627.5 l 1
 439 659 l 1
 411 687.5 l 1
 384.5 713.5 l 1
 359.5 737.5 l 1
 335.5 760 l 1
 340.5 767.5 l 1
725 -163.5 m 1
 679 -134.5 l 1
 638 -100.5 l 1
 602.5 -61.5 l 1
 573 -18 l 1
 548.5 30.5 l 1
 529.5 83 l 1
 516 140 l 1
 511.663937344 173.06247775 l 1
 501.5 127.5 l 1
 481 68.5 l 1
 455.5 15 l 1
 424.5 -32.5 l 1
 388.5 -73.5 l 1
 347 -108 l 1
 300.5 -135.5 l 1
 249.5 -156 l 1
 246 -147.5 l 1
 291 -119.5 l 1
 330 -87 l 1
 364 -51 l 1
 393.5 -10.5 l 1
 418 34.5 l 1
 437.5 84.5 l 1
 452.5 140 l 1
 463 200.5 l 1
 469 266.5 l 1
 470 338 l 1
 470 350 l 1
 530 338 l 1
 545 328 l 1
 528.825549451 318.29532967 l 1
 526.200220325 274.248141008 l 1
 527 267.5 l 1
 537.5 205 l 1
 551.5 148 l 1
 569 96.5 l 1
 590.5 50.5 l 1
 616 10 l 1
 645 -26 l 1
 677.5 -56.5 l 1
 714 -82.5 l 1
 754.5 -104 l 1
 781.5 -117.5 l 1
 725 -163.5 l 1
EndSplineSet
EndChar

StartChar: glyph84
Encoding: 340 983156 84
Width: 1000
VWidth: 0
Flags: W
LayerCount: 2
Fore
SplineSet
340.5 767.5 m 1
 370.5 753 l 1
 401 734.5 l 1
 432.5 712.5 l 1
 465 686.5 l 1
 498.5 657.5 l 1
 514.354259323 642.345193295 l 1
 520 647.5 l 1
 555 678.5 l 1
 590 709.5 l 1
 626 740 l 1
 662.5 769.5 l 1
 669 763 l 1
 639.5 726.5 l 1
 609 690.5 l 1
 578 655.5 l 1
 547 620.5 l 1
 542.293103448 615.344827586 l 1
 568 590 l 1
 604.5 551 l 1
 641.5 509.5 l 1
 680 464.5 l 1
 686 442.5 l 1
 675 422.5 l 1
 653 416.5 l 1
 633 427.5 l 1
 597.5 473 l 1
 563.5 516 l 1
 530.5 556 l 1
 510.191067831 580.177300201 l 1
 484.5 552 l 1
 453 518 l 1
 421.5 484 l 1
 390 450 l 1
 372.395860285 431.278137128 l 1
 376 413 l 1
 358.5 416.5 l 1
 309 452 l 1
 316 459 l 1
 349.5 490.5 l 1
 383.5 522 l 1
 417.5 553.5 l 1
 451.5 585 l 1
 481.823340471 612.647751606 l 1
 468.5 627.5 l 1
 439 659 l 1
 411 687.5 l 1
 384.5 713.5 l 1
 359.5 737.5 l 1
 335.5 760 l 1
 340.5 767.5 l 1
725 -163.5 m 1
 679 -134.5 l 1
 638 -100.5 l 1
 602.5 -61.5 l 1
 573 -18 l 1
 548.5 30.5 l 1
 529.5 83 l 1
 516 140 l 1
 511.663937344 173.06247775 l 1
 501.5 127.5 l 1
 481 68.5 l 1
 455.5 15 l 1
 424.5 -32.5 l 1
 388.5 -73.5 l 1
 347 -108 l 1
 300.5 -135.5 l 1
 249.5 -156 l 1
 246 -147.5 l 1
 291 -119.5 l 1
 330 -87 l 1
 364 -51 l 1
 393.5 -10.5 l 1
 418 34.5 l 1
 437.5 84.5 l 1
 452.5 140 l 1
 463 200.5 l 1
 469 266.5 l 1
 470 338 l 1
 470 350 l 1
 530 338 l 1
 545 328 l 1
 528.825549451 318.29532967 l 1
 526.200220325 274.248141008 l 1
 527 267.5 l 1
 537.5 205 l 1
 551.5 148 l 1
 569 96.5 l 1
 590.5 50.5 l 1
 616 10 l 1
 645 -26 l 1
 677.5 -56.5 l 1
 714 -82.5 l 1
 754.5 -104 l 1
 781.5 -117.5 l 1
 725 -163.5 l 1
EndSplineSet
EndChar

StartChar: glyph85
Encoding: 341 983157 85
Width: 1000
VWidth: 0
Flags: W
HStem: 590 20<334 556>
LayerCount: 2
Fore
SplineSet
725 -163.5 m 1
 679 -134.5 l 1
 638 -100.5 l 1
 602.5 -61.5 l 1
 573 -18 l 1
 548.5 30.5 l 1
 529.5 83 l 1
 516 140 l 1
 511.663937344 173.06247775 l 1
 501.5 127.5 l 1
 481 68.5 l 1
 455.5 15 l 1
 424.5 -32.5 l 1
 388.5 -73.5 l 1
 347 -108 l 1
 300.5 -135.5 l 1
 249.5 -156 l 1
 246 -147.5 l 1
 291 -119.5 l 1
 330 -87 l 1
 364 -51 l 1
 393.5 -10.5 l 1
 418 34.5 l 1
 437.5 84.5 l 1
 452.5 140 l 1
 463 200.5 l 1
 469 266.5 l 1
 470 338 l 1
 470 350 l 1
 530 338 l 1
 545 328 l 1
 528.825549451 318.29532967 l 1
 526.200220325 274.248141008 l 1
 527 267.5 l 1
 537.5 205 l 1
 551.5 148 l 1
 569 96.5 l 1
 590.5 50.5 l 1
 616 10 l 1
 645 -26 l 1
 677.5 -56.5 l 1
 714 -82.5 l 1
 754.5 -104 l 1
 781.5 -117.5 l 1
 725 -163.5 l 1
556 610 m 1
 606 660 l 1
 666 610 l 1
 666 590 l 1
 334 590 l 1
 334 610 l 1
 556 610 l 1
EndSplineSet
EndChar

StartChar: glyph86
Encoding: 342 983158 86
Width: 1000
VWidth: 0
Flags: W
HStem: 171 20<251 466.252 525.536 639>
VStem: 470 60<191 328>
LayerCount: 2
Fore
SplineSet
716 -160 m 1
 680 -138 l 1
 647.5 -113 l 1
 618 -85.5 l 1
 592 -55 l 1
 569.5 -22.5 l 1
 550 13 l 1
 534.5 50 l 1
 522.5 90 l 1
 515.044989537 128.672866775 l 1
 500.5 78 l 1
 479.5 28.5 l 1
 453 -16 l 1
 421.5 -55.5 l 1
 384.5 -90 l 1
 342 -119 l 1
 295 -142 l 1
 243.5 -159 l 1
 240 -150.5 l 1
 286.5 -125 l 1
 327 -96.5 l 1
 362.5 -65.5 l 1
 392.5 -31 l 1
 417.5 6.5 l 1
 437.5 48 l 1
 452.5 93 l 1
 463 142 l 1
 466.252336449 171 l 1
 251 171 l 1
 251 191 l 1
 468.495327103 191 l 1
 469 195.5 l 1
 470 253 l 1
 470 357 l 1
 530 347 l 1
 545 337 l 1
 530 328 l 1
 530 253 l 1
 525.536 191 l 1
 639 191 l 1
 689 241 l 1
 749 191 l 1
 749 171 l 1
 522.333333333 171 l 1
 522.284347649 170.698351313 l 1
 534.5 137 l 1
 550.5 99.5 l 1
 567.5 65 l 1
 586.5 33 l 1
 607.5 4.5 l 1
 630.5 -21.5 l 1
 656 -45.5 l 1
 683.5 -66.5 l 1
 713.5 -85 l 1
 745.5 -101.5 l 1
 772 -115 l 1
 716 -160 l 1
372.395860285 431.278137128 m 1
 376 413 l 1
 358.5 416.5 l 1
 309 452 l 1
 316 459 l 1
 349.5 490.5 l 1
 383.5 522 l 1
 417.5 553.5 l 1
 451.5 585 l 1
 485.5 616 l 1
 520 647.5 l 1
 555 678.5 l 1
 590 709.5 l 1
 626 740 l 1
 662.5 769.5 l 1
 669 763 l 1
 639.5 726.5 l 1
 609 690.5 l 1
 578 655.5 l 1
 547 620.5 l 1
 515.5 586 l 1
 484.5 552 l 1
 453 518 l 1
 421.5 484 l 1
 390 450 l 1
 372.395860285 431.278137128 l 1
EndSplineSet
EndChar

StartChar: glyph87
Encoding: 343 983159 87
Width: 1000
VWidth: 0
Flags: W
HStem: 571 20<251 466.252 525.536 639>
VStem: 470 60<591 728>
LayerCount: 2
Fore
SplineSet
716 240 m 1
 680 262 l 1
 647.5 287 l 1
 618 314.5 l 1
 592 345 l 1
 569.5 377.5 l 1
 550 413 l 1
 534.5 450 l 1
 522.5 490 l 1
 515.044989537 528.672866775 l 1
 500.5 478 l 1
 479.5 428.5 l 1
 453 384 l 1
 421.5 344.5 l 1
 384.5 310 l 1
 342 281 l 1
 295 258 l 1
 243.5 241 l 1
 240 249.5 l 1
 286.5 275 l 1
 327 303.5 l 1
 362.5 334.5 l 1
 392.5 369 l 1
 417.5 406.5 l 1
 437.5 448 l 1
 452.5 493 l 1
 463 542 l 1
 466.252336449 571 l 1
 251 571 l 1
 251 591 l 1
 468.495327103 591 l 1
 469 595.5 l 1
 470 653 l 1
 470 757 l 1
 530 747 l 1
 545 737 l 1
 530 728 l 1
 530 653 l 1
 525.536 591 l 1
 639 591 l 1
 689 641 l 1
 749 591 l 1
 749 571 l 1
 522.333333333 571 l 1
 522.284347649 570.698351313 l 1
 534.5 537 l 1
 550.5 499.5 l 1
 567.5 465 l 1
 586.5 433 l 1
 607.5 404.5 l 1
 630.5 378.5 l 1
 656 354.5 l 1
 683.5 333.5 l 1
 713.5 315 l 1
 745.5 298.5 l 1
 772 285 l 1
 716 240 l 1
316 141.5 m 1
 314.5 143 l 1
 358.5 184 l 1
 376 187.5 l 1
 371.693972179 169.968315301 l 1
 390 150.5 l 1
 421.5 116.5 l 1
 453 82.5 l 1
 484.5 48.5 l 1
 515.5 14.5 l 1
 547 -20 l 1
 578 -55 l 1
 609 -90 l 1
 639.5 -126 l 1
 669 -162.5 l 1
 662.5 -169 l 1
 626 -139.5 l 1
 590 -109 l 1
 555 -78 l 1
 520 -47 l 1
 485.5 -15.5 l 1
 451.5 15.5 l 1
 417.5 47 l 1
 383.5 78.5 l 1
 349.5 110 l 1
 319.59857375 138.116266474 l 1
 319.5 138 l 1
 316 141.5 l 1
EndSplineSet
EndChar

StartChar: glyph88
Encoding: 344 983160 88
Width: 1000
VWidth: 0
Flags: W
HStem: -10 20<334 556> 571 20<251 466.252 525.536 639>
VStem: 470 60<591 728>
LayerCount: 2
Fore
SplineSet
716 240 m 1
 680 262 l 1
 647.5 287 l 1
 618 314.5 l 1
 592 345 l 1
 569.5 377.5 l 1
 550 413 l 1
 534.5 450 l 1
 522.5 490 l 1
 515.044989537 528.672866775 l 1
 500.5 478 l 1
 479.5 428.5 l 1
 453 384 l 1
 421.5 344.5 l 1
 384.5 310 l 1
 342 281 l 1
 295 258 l 1
 243.5 241 l 1
 240 249.5 l 1
 286.5 275 l 1
 327 303.5 l 1
 362.5 334.5 l 1
 392.5 369 l 1
 417.5 406.5 l 1
 437.5 448 l 1
 452.5 493 l 1
 463 542 l 1
 466.252336449 571 l 1
 251 571 l 1
 251 591 l 1
 468.495327103 591 l 1
 469 595.5 l 1
 470 653 l 1
 470 757 l 1
 530 747 l 1
 545 737 l 1
 530 728 l 1
 530 653 l 1
 525.536 591 l 1
 639 591 l 1
 689 641 l 1
 749 591 l 1
 749 571 l 1
 522.333333333 571 l 1
 522.284347649 570.698351313 l 1
 534.5 537 l 1
 550.5 499.5 l 1
 567.5 465 l 1
 586.5 433 l 1
 607.5 404.5 l 1
 630.5 378.5 l 1
 656 354.5 l 1
 683.5 333.5 l 1
 713.5 315 l 1
 745.5 298.5 l 1
 772 285 l 1
 716 240 l 1
556 10 m 1
 606 60 l 1
 666 10 l 1
 666 -10 l 1
 334 -10 l 1
 334 10 l 1
 556 10 l 1
EndSplineSet
EndChar

StartChar: glyph89
Encoding: 345 983161 89
Width: 1000
VWidth: 0
Flags: W
HStem: 571 20<251 466.252 525.536 639>
VStem: 470 60<591 728>
LayerCount: 2
Fore
SplineSet
716 240 m 1
 680 262 l 1
 647.5 287 l 1
 618 314.5 l 1
 592 345 l 1
 569.5 377.5 l 1
 550 413 l 1
 534.5 450 l 1
 522.5 490 l 1
 515.044989537 528.672866775 l 1
 500.5 478 l 1
 479.5 428.5 l 1
 453 384 l 1
 421.5 344.5 l 1
 384.5 310 l 1
 342 281 l 1
 295 258 l 1
 243.5 241 l 1
 240 249.5 l 1
 286.5 275 l 1
 327 303.5 l 1
 362.5 334.5 l 1
 392.5 369 l 1
 417.5 406.5 l 1
 437.5 448 l 1
 452.5 493 l 1
 463 542 l 1
 466.252336449 571 l 1
 251 571 l 1
 251 591 l 1
 468.495327103 591 l 1
 469 595.5 l 1
 470 653 l 1
 470 757 l 1
 530 747 l 1
 545 737 l 1
 530 728 l 1
 530 653 l 1
 525.536 591 l 1
 639 591 l 1
 689 641 l 1
 749 591 l 1
 749 571 l 1
 522.333333333 571 l 1
 522.284347649 570.698351313 l 1
 534.5 537 l 1
 550.5 499.5 l 1
 567.5 465 l 1
 586.5 433 l 1
 607.5 404.5 l 1
 630.5 378.5 l 1
 656 354.5 l 1
 683.5 333.5 l 1
 713.5 315 l 1
 745.5 298.5 l 1
 772 285 l 1
 716 240 l 1
641 184 m 1
 642.5 185.5 l 1
 683.5 141.5 l 1
 687 124 l 1
 669.468315301 128.306027821 l 1
 650 110 l 1
 616 78.5 l 1
 582 47 l 1
 548 15.5 l 1
 514 -15.5 l 1
 479.5 -47 l 1
 444.5 -78 l 1
 409.5 -109 l 1
 373.5 -139.5 l 1
 337 -169 l 1
 330.5 -162.5 l 1
 360 -126 l 1
 390.5 -90 l 1
 421.5 -55 l 1
 452.5 -20 l 1
 484 14.5 l 1
 515 48.5 l 1
 546.5 82.5 l 1
 578 116.5 l 1
 609.5 150.5 l 1
 637.616266474 180.40142625 l 1
 637.5 180.5 l 1
 641 184 l 1
EndSplineSet
EndChar

StartChar: glyph90
Encoding: 346 983162 90
Width: 1000
VWidth: 0
Flags: W
HStem: 171 20<251 466.252 525.536 639>
VStem: 470 60<191 328>
LayerCount: 2
Fore
SplineSet
340.5 767.5 m 1
 370.5 753 l 1
 401 734.5 l 1
 432.5 712.5 l 1
 465 686.5 l 1
 498.5 657.5 l 1
 532.5 625 l 1
 568 590 l 1
 604.5 551 l 1
 641.5 509.5 l 1
 680 464.5 l 1
 686 442.5 l 1
 675 422.5 l 1
 653 416.5 l 1
 633 427.5 l 1
 597.5 473 l 1
 563.5 516 l 1
 530.5 556 l 1
 499 593.5 l 1
 468.5 627.5 l 1
 439 659 l 1
 411 687.5 l 1
 384.5 713.5 l 1
 359.5 737.5 l 1
 335.5 760 l 1
 340.5 767.5 l 1
716 -160 m 1
 680 -138 l 1
 647.5 -113 l 1
 618 -85.5 l 1
 592 -55 l 1
 569.5 -22.5 l 1
 550 13 l 1
 534.5 50 l 1
 522.5 90 l 1
 515.044989537 128.672866775 l 1
 500.5 78 l 1
 479.5 28.5 l 1
 453 -16 l 1
 421.5 -55.5 l 1
 384.5 -90 l 1
 342 -119 l 1
 295 -142 l 1
 243.5 -159 l 1
 240 -150.5 l 1
 286.5 -125 l 1
 327 -96.5 l 1
 362.5 -65.5 l 1
 392.5 -31 l 1
 417.5 6.5 l 1
 437.5 48 l 1
 452.5 93 l 1
 463 142 l 1
 466.252336449 171 l 1
 251 171 l 1
 251 191 l 1
 468.495327103 191 l 1
 469 195.5 l 1
 470 253 l 1
 470 357 l 1
 530 347 l 1
 545 337 l 1
 530 328 l 1
 530 253 l 1
 525.536 191 l 1
 639 191 l 1
 689 241 l 1
 749 191 l 1
 749 171 l 1
 522.333333333 171 l 1
 522.284347649 170.698351313 l 1
 534.5 137 l 1
 550.5 99.5 l 1
 567.5 65 l 1
 586.5 33 l 1
 607.5 4.5 l 1
 630.5 -21.5 l 1
 656 -45.5 l 1
 683.5 -66.5 l 1
 713.5 -85 l 1
 745.5 -101.5 l 1
 772 -115 l 1
 716 -160 l 1
EndSplineSet
EndChar

StartChar: glyph91
Encoding: 347 983163 91
Width: 1000
VWidth: 0
Flags: W
HStem: 171 20<251 466.252 525.536 639>
VStem: 470 60<191 328>
LayerCount: 2
Fore
SplineSet
340.5 767.5 m 1
 370.5 753 l 1
 401 734.5 l 1
 432.5 712.5 l 1
 465 686.5 l 1
 498.5 657.5 l 1
 514.354259323 642.345193295 l 1
 520 647.5 l 1
 555 678.5 l 1
 590 709.5 l 1
 626 740 l 1
 662.5 769.5 l 1
 669 763 l 1
 639.5 726.5 l 1
 609 690.5 l 1
 578 655.5 l 1
 547 620.5 l 1
 542.293103448 615.344827586 l 1
 568 590 l 1
 604.5 551 l 1
 641.5 509.5 l 1
 680 464.5 l 1
 686 442.5 l 1
 675 422.5 l 1
 653 416.5 l 1
 633 427.5 l 1
 597.5 473 l 1
 563.5 516 l 1
 530.5 556 l 1
 510.191067831 580.177300201 l 1
 484.5 552 l 1
 453 518 l 1
 421.5 484 l 1
 390 450 l 1
 372.395860285 431.278137128 l 1
 376 413 l 1
 358.5 416.5 l 1
 309 452 l 1
 316 459 l 1
 349.5 490.5 l 1
 383.5 522 l 1
 417.5 553.5 l 1
 451.5 585 l 1
 481.823340471 612.647751606 l 1
 468.5 627.5 l 1
 439 659 l 1
 411 687.5 l 1
 384.5 713.5 l 1
 359.5 737.5 l 1
 335.5 760 l 1
 340.5 767.5 l 1
716 -160 m 1
 680 -138 l 1
 647.5 -113 l 1
 618 -85.5 l 1
 592 -55 l 1
 569.5 -22.5 l 1
 550 13 l 1
 534.5 50 l 1
 522.5 90 l 1
 515.044989537 128.672866775 l 1
 500.5 78 l 1
 479.5 28.5 l 1
 453 -16 l 1
 421.5 -55.5 l 1
 384.5 -90 l 1
 342 -119 l 1
 295 -142 l 1
 243.5 -159 l 1
 240 -150.5 l 1
 286.5 -125 l 1
 327 -96.5 l 1
 362.5 -65.5 l 1
 392.5 -31 l 1
 417.5 6.5 l 1
 437.5 48 l 1
 452.5 93 l 1
 463 142 l 1
 466.252336449 171 l 1
 251 171 l 1
 251 191 l 1
 468.495327103 191 l 1
 469 195.5 l 1
 470 253 l 1
 470 357 l 1
 530 347 l 1
 545 337 l 1
 530 328 l 1
 530 253 l 1
 525.536 191 l 1
 639 191 l 1
 689 241 l 1
 749 191 l 1
 749 171 l 1
 522.333333333 171 l 1
 522.284347649 170.698351313 l 1
 534.5 137 l 1
 550.5 99.5 l 1
 567.5 65 l 1
 586.5 33 l 1
 607.5 4.5 l 1
 630.5 -21.5 l 1
 656 -45.5 l 1
 683.5 -66.5 l 1
 713.5 -85 l 1
 745.5 -101.5 l 1
 772 -115 l 1
 716 -160 l 1
EndSplineSet
EndChar

StartChar: glyph92
Encoding: 348 983164 92
Width: 1000
VWidth: 0
Flags: W
HStem: 171 20<251 466.252 525.536 639> 590 20<334 556>
VStem: 470 60<191 328>
LayerCount: 2
Fore
SplineSet
716 -160 m 1
 680 -138 l 1
 647.5 -113 l 1
 618 -85.5 l 1
 592 -55 l 1
 569.5 -22.5 l 1
 550 13 l 1
 534.5 50 l 1
 522.5 90 l 1
 515.044989537 128.672866775 l 1
 500.5 78 l 1
 479.5 28.5 l 1
 453 -16 l 1
 421.5 -55.5 l 1
 384.5 -90 l 1
 342 -119 l 1
 295 -142 l 1
 243.5 -159 l 1
 240 -150.5 l 1
 286.5 -125 l 1
 327 -96.5 l 1
 362.5 -65.5 l 1
 392.5 -31 l 1
 417.5 6.5 l 1
 437.5 48 l 1
 452.5 93 l 1
 463 142 l 1
 466.252336449 171 l 1
 251 171 l 1
 251 191 l 1
 468.495327103 191 l 1
 469 195.5 l 1
 470 253 l 1
 470 357 l 1
 530 347 l 1
 545 337 l 1
 530 328 l 1
 530 253 l 1
 525.536 191 l 1
 639 191 l 1
 689 241 l 1
 749 191 l 1
 749 171 l 1
 522.333333333 171 l 1
 522.284347649 170.698351313 l 1
 534.5 137 l 1
 550.5 99.5 l 1
 567.5 65 l 1
 586.5 33 l 1
 607.5 4.5 l 1
 630.5 -21.5 l 1
 656 -45.5 l 1
 683.5 -66.5 l 1
 713.5 -85 l 1
 745.5 -101.5 l 1
 772 -115 l 1
 716 -160 l 1
556 610 m 1
 606 660 l 1
 666 610 l 1
 666 590 l 1
 334 590 l 1
 334 610 l 1
 556 610 l 1
EndSplineSet
EndChar

StartChar: glyph93
Encoding: 349 983165 93
Width: 1000
VWidth: 0
Flags: W
HStem: -159 20<305.453 651>
LayerCount: 2
Fore
SplineSet
651 -139 m 1
 701 -89 l 1
 761 -139 l 1
 761 -159 l 1
 294.572205737 -159 l 1
 287.5 -172 l 1
 220.5 -169.5 l 1
 515 371 l 1
 562.5 333.5 l 1
 571 317.5 l 1
 552.256623223 314.670811053 l 1
 305.452522255 -139 l 1
 651 -139 l 1
372.395860285 431.278137128 m 1
 376 413 l 1
 358.5 416.5 l 1
 309 452 l 1
 316 459 l 1
 349.5 490.5 l 1
 383.5 522 l 1
 417.5 553.5 l 1
 451.5 585 l 1
 485.5 616 l 1
 520 647.5 l 1
 555 678.5 l 1
 590 709.5 l 1
 626 740 l 1
 662.5 769.5 l 1
 669 763 l 1
 639.5 726.5 l 1
 609 690.5 l 1
 578 655.5 l 1
 547 620.5 l 1
 515.5 586 l 1
 484.5 552 l 1
 453 518 l 1
 421.5 484 l 1
 390 450 l 1
 372.395860285 431.278137128 l 1
EndSplineSet
EndChar

StartChar: glyph94
Encoding: 350 983166 94
Width: 1000
VWidth: 0
Flags: W
HStem: 241 20<305.453 651>
LayerCount: 2
Fore
SplineSet
651 261 m 1
 701 311 l 1
 761 261 l 1
 761 241 l 1
 294.572205737 241 l 1
 287.5 228 l 1
 220.5 230.5 l 1
 515 771 l 1
 562.5 733.5 l 1
 571 717.5 l 1
 552.256623223 714.670811053 l 1
 305.452522255 261 l 1
 651 261 l 1
316 141.5 m 1
 314.5 143 l 1
 358.5 184 l 1
 376 187.5 l 1
 371.693972179 169.968315301 l 1
 390 150.5 l 1
 421.5 116.5 l 1
 453 82.5 l 1
 484.5 48.5 l 1
 515.5 14.5 l 1
 547 -20 l 1
 578 -55 l 1
 609 -90 l 1
 639.5 -126 l 1
 669 -162.5 l 1
 662.5 -169 l 1
 626 -139.5 l 1
 590 -109 l 1
 555 -78 l 1
 520 -47 l 1
 485.5 -15.5 l 1
 451.5 15.5 l 1
 417.5 47 l 1
 383.5 78.5 l 1
 349.5 110 l 1
 319.59857375 138.116266474 l 1
 319.5 138 l 1
 316 141.5 l 1
EndSplineSet
EndChar

StartChar: glyph95
Encoding: 351 983167 95
Width: 1000
VWidth: 0
Flags: W
HStem: -10 20<334 556> 241 20<305.453 651>
LayerCount: 2
Fore
SplineSet
651 261 m 1
 701 311 l 1
 761 261 l 1
 761 241 l 1
 294.572205737 241 l 1
 287.5 228 l 1
 220.5 230.5 l 1
 515 771 l 1
 562.5 733.5 l 1
 571 717.5 l 1
 552.256623223 714.670811053 l 1
 305.452522255 261 l 1
 651 261 l 1
556 10 m 1
 606 60 l 1
 666 10 l 1
 666 -10 l 1
 334 -10 l 1
 334 10 l 1
 556 10 l 1
EndSplineSet
EndChar

StartChar: glyph96
Encoding: 352 983168 96
Width: 1000
VWidth: 0
Flags: W
HStem: 241 20<305.453 651>
LayerCount: 2
Fore
SplineSet
651 261 m 1
 701 311 l 1
 761 261 l 1
 761 241 l 1
 294.572205737 241 l 1
 287.5 228 l 1
 220.5 230.5 l 1
 515 771 l 1
 562.5 733.5 l 1
 571 717.5 l 1
 552.256623223 714.670811053 l 1
 305.452522255 261 l 1
 651 261 l 1
641 184 m 1
 642.5 185.5 l 1
 683.5 141.5 l 1
 687 124 l 1
 669.468315301 128.306027821 l 1
 650 110 l 1
 616 78.5 l 1
 582 47 l 1
 548 15.5 l 1
 514 -15.5 l 1
 479.5 -47 l 1
 444.5 -78 l 1
 409.5 -109 l 1
 373.5 -139.5 l 1
 337 -169 l 1
 330.5 -162.5 l 1
 360 -126 l 1
 390.5 -90 l 1
 421.5 -55 l 1
 452.5 -20 l 1
 484 14.5 l 1
 515 48.5 l 1
 546.5 82.5 l 1
 578 116.5 l 1
 609.5 150.5 l 1
 637.616266474 180.40142625 l 1
 637.5 180.5 l 1
 641 184 l 1
EndSplineSet
EndChar

StartChar: glyph97
Encoding: 353 983169 97
Width: 1000
VWidth: 0
Flags: W
HStem: -159 20<305.453 651>
LayerCount: 2
Fore
SplineSet
340.5 767.5 m 1
 370.5 753 l 1
 401 734.5 l 1
 432.5 712.5 l 1
 465 686.5 l 1
 498.5 657.5 l 1
 532.5 625 l 1
 568 590 l 1
 604.5 551 l 1
 641.5 509.5 l 1
 680 464.5 l 1
 686 442.5 l 1
 675 422.5 l 1
 653 416.5 l 1
 633 427.5 l 1
 597.5 473 l 1
 563.5 516 l 1
 530.5 556 l 1
 499 593.5 l 1
 468.5 627.5 l 1
 439 659 l 1
 411 687.5 l 1
 384.5 713.5 l 1
 359.5 737.5 l 1
 335.5 760 l 1
 340.5 767.5 l 1
651 -139 m 1
 701 -89 l 1
 761 -139 l 1
 761 -159 l 1
 294.572205737 -159 l 1
 287.5 -172 l 1
 220.5 -169.5 l 1
 515 371 l 1
 562.5 333.5 l 1
 571 317.5 l 1
 552.256623223 314.670811053 l 1
 305.452522255 -139 l 1
 651 -139 l 1
EndSplineSet
EndChar

StartChar: glyph98
Encoding: 354 983170 98
Width: 1000
VWidth: 0
Flags: W
HStem: -159 20<305.453 651>
LayerCount: 2
Fore
SplineSet
340.5 767.5 m 1
 370.5 753 l 1
 401 734.5 l 1
 432.5 712.5 l 1
 465 686.5 l 1
 498.5 657.5 l 1
 514.354259323 642.345193295 l 1
 520 647.5 l 1
 555 678.5 l 1
 590 709.5 l 1
 626 740 l 1
 662.5 769.5 l 1
 669 763 l 1
 639.5 726.5 l 1
 609 690.5 l 1
 578 655.5 l 1
 547 620.5 l 1
 542.293103448 615.344827586 l 1
 568 590 l 1
 604.5 551 l 1
 641.5 509.5 l 1
 680 464.5 l 1
 686 442.5 l 1
 675 422.5 l 1
 653 416.5 l 1
 633 427.5 l 1
 597.5 473 l 1
 563.5 516 l 1
 530.5 556 l 1
 510.191067831 580.177300201 l 1
 484.5 552 l 1
 453 518 l 1
 421.5 484 l 1
 390 450 l 1
 372.395860285 431.278137128 l 1
 376 413 l 1
 358.5 416.5 l 1
 309 452 l 1
 316 459 l 1
 349.5 490.5 l 1
 383.5 522 l 1
 417.5 553.5 l 1
 451.5 585 l 1
 481.823340471 612.647751606 l 1
 468.5 627.5 l 1
 439 659 l 1
 411 687.5 l 1
 384.5 713.5 l 1
 359.5 737.5 l 1
 335.5 760 l 1
 340.5 767.5 l 1
651 -139 m 1
 701 -89 l 1
 761 -139 l 1
 761 -159 l 1
 294.572205737 -159 l 1
 287.5 -172 l 1
 220.5 -169.5 l 1
 515 371 l 1
 562.5 333.5 l 1
 571 317.5 l 1
 552.256623223 314.670811053 l 1
 305.452522255 -139 l 1
 651 -139 l 1
EndSplineSet
EndChar

StartChar: glyph99
Encoding: 355 983171 99
Width: 1000
VWidth: 0
Flags: W
HStem: -159 20<305.453 651> 590 20<334 556>
LayerCount: 2
Fore
SplineSet
651 -139 m 1
 701 -89 l 1
 761 -139 l 1
 761 -159 l 1
 294.572205737 -159 l 1
 287.5 -172 l 1
 220.5 -169.5 l 1
 515 371 l 1
 562.5 333.5 l 1
 571 317.5 l 1
 552.256623223 314.670811053 l 1
 305.452522255 -139 l 1
 651 -139 l 1
556 610 m 1
 606 660 l 1
 666 610 l 1
 666 590 l 1
 334 590 l 1
 334 610 l 1
 556 610 l 1
EndSplineSet
EndChar

StartChar: glyph100
Encoding: 356 983172 100
Width: 1000
VWidth: 0
Flags: W
HStem: -159 20<305.453 651> 171 20<251 406.027 484.978 639>
LayerCount: 2
Fore
SplineSet
651 -139 m 1
 701 -89 l 1
 761 -139 l 1
 761 -159 l 1
 294.572205737 -159 l 1
 287.5 -172 l 1
 220.5 -169.5 l 1
 406.026827012 171 l 1
 251 171 l 1
 251 191 l 1
 416.924144311 191 l 1
 515 371 l 1
 562.5 333.5 l 1
 571 317.5 l 1
 552.256623223 314.670811053 l 1
 484.977744807 191 l 1
 639 191 l 1
 689 241 l 1
 749 191 l 1
 749 171 l 1
 474.097428289 171 l 1
 305.452522255 -139 l 1
 651 -139 l 1
372.395860285 431.278137128 m 1
 376 413 l 1
 358.5 416.5 l 1
 309 452 l 1
 316 459 l 1
 349.5 490.5 l 1
 383.5 522 l 1
 417.5 553.5 l 1
 451.5 585 l 1
 485.5 616 l 1
 520 647.5 l 1
 555 678.5 l 1
 590 709.5 l 1
 626 740 l 1
 662.5 769.5 l 1
 669 763 l 1
 639.5 726.5 l 1
 609 690.5 l 1
 578 655.5 l 1
 547 620.5 l 1
 515.5 586 l 1
 484.5 552 l 1
 453 518 l 1
 421.5 484 l 1
 390 450 l 1
 372.395860285 431.278137128 l 1
EndSplineSet
EndChar

StartChar: glyph101
Encoding: 357 983173 101
Width: 1000
VWidth: 0
Flags: W
HStem: 241 20<305.453 651> 571 20<251 406.027 484.978 639>
LayerCount: 2
Fore
SplineSet
651 261 m 1
 701 311 l 1
 761 261 l 1
 761 241 l 1
 294.572205737 241 l 1
 287.5 228 l 1
 220.5 230.5 l 1
 406.026827012 571 l 1
 251 571 l 1
 251 591 l 1
 416.924144311 591 l 1
 515 771 l 1
 562.5 733.5 l 1
 571 717.5 l 1
 552.256623223 714.670811053 l 1
 484.977744807 591 l 1
 639 591 l 1
 689 641 l 1
 749 591 l 1
 749 571 l 1
 474.097428289 571 l 1
 305.452522255 261 l 1
 651 261 l 1
316 141.5 m 1
 314.5 143 l 1
 358.5 184 l 1
 376 187.5 l 1
 371.693972179 169.968315301 l 1
 390 150.5 l 1
 421.5 116.5 l 1
 453 82.5 l 1
 484.5 48.5 l 1
 515.5 14.5 l 1
 547 -20 l 1
 578 -55 l 1
 609 -90 l 1
 639.5 -126 l 1
 669 -162.5 l 1
 662.5 -169 l 1
 626 -139.5 l 1
 590 -109 l 1
 555 -78 l 1
 520 -47 l 1
 485.5 -15.5 l 1
 451.5 15.5 l 1
 417.5 47 l 1
 383.5 78.5 l 1
 349.5 110 l 1
 319.59857375 138.116266474 l 1
 319.5 138 l 1
 316 141.5 l 1
EndSplineSet
EndChar

StartChar: glyph102
Encoding: 358 983174 102
Width: 1000
VWidth: 0
Flags: W
HStem: -10 20<334 556> 241 20<305.453 651> 571 20<251 406.027 484.978 639>
LayerCount: 2
Fore
SplineSet
651 261 m 1
 701 311 l 1
 761 261 l 1
 761 241 l 1
 294.572205737 241 l 1
 287.5 228 l 1
 220.5 230.5 l 1
 406.026827012 571 l 1
 251 571 l 1
 251 591 l 1
 416.924144311 591 l 1
 515 771 l 1
 562.5 733.5 l 1
 571 717.5 l 1
 552.256623223 714.670811053 l 1
 484.977744807 591 l 1
 639 591 l 1
 689 641 l 1
 749 591 l 1
 749 571 l 1
 474.097428289 571 l 1
 305.452522255 261 l 1
 651 261 l 1
556 10 m 1
 606 60 l 1
 666 10 l 1
 666 -10 l 1
 334 -10 l 1
 334 10 l 1
 556 10 l 1
EndSplineSet
EndChar

StartChar: glyph103
Encoding: 359 983175 103
Width: 1000
VWidth: 0
Flags: W
HStem: 241 20<305.453 651> 571 20<251 406.027 484.978 639>
LayerCount: 2
Fore
SplineSet
651 261 m 1
 701 311 l 1
 761 261 l 1
 761 241 l 1
 294.572205737 241 l 1
 287.5 228 l 1
 220.5 230.5 l 1
 406.026827012 571 l 1
 251 571 l 1
 251 591 l 1
 416.924144311 591 l 1
 515 771 l 1
 562.5 733.5 l 1
 571 717.5 l 1
 552.256623223 714.670811053 l 1
 484.977744807 591 l 1
 639 591 l 1
 689 641 l 1
 749 591 l 1
 749 571 l 1
 474.097428289 571 l 1
 305.452522255 261 l 1
 651 261 l 1
641 184 m 1
 642.5 185.5 l 1
 683.5 141.5 l 1
 687 124 l 1
 669.468315301 128.306027821 l 1
 650 110 l 1
 616 78.5 l 1
 582 47 l 1
 548 15.5 l 1
 514 -15.5 l 1
 479.5 -47 l 1
 444.5 -78 l 1
 409.5 -109 l 1
 373.5 -139.5 l 1
 337 -169 l 1
 330.5 -162.5 l 1
 360 -126 l 1
 390.5 -90 l 1
 421.5 -55 l 1
 452.5 -20 l 1
 484 14.5 l 1
 515 48.5 l 1
 546.5 82.5 l 1
 578 116.5 l 1
 609.5 150.5 l 1
 637.616266474 180.40142625 l 1
 637.5 180.5 l 1
 641 184 l 1
EndSplineSet
EndChar

StartChar: glyph104
Encoding: 360 983176 104
Width: 1000
VWidth: 0
Flags: W
HStem: -159 20<305.453 651> 171 20<251 406.027 484.978 639>
LayerCount: 2
Fore
SplineSet
340.5 767.5 m 1
 370.5 753 l 1
 401 734.5 l 1
 432.5 712.5 l 1
 465 686.5 l 1
 498.5 657.5 l 1
 532.5 625 l 1
 568 590 l 1
 604.5 551 l 1
 641.5 509.5 l 1
 680 464.5 l 1
 686 442.5 l 1
 675 422.5 l 1
 653 416.5 l 1
 633 427.5 l 1
 597.5 473 l 1
 563.5 516 l 1
 530.5 556 l 1
 499 593.5 l 1
 468.5 627.5 l 1
 439 659 l 1
 411 687.5 l 1
 384.5 713.5 l 1
 359.5 737.5 l 1
 335.5 760 l 1
 340.5 767.5 l 1
651 -139 m 1
 701 -89 l 1
 761 -139 l 1
 761 -159 l 1
 294.572205737 -159 l 1
 287.5 -172 l 1
 220.5 -169.5 l 1
 406.026827012 171 l 1
 251 171 l 1
 251 191 l 1
 416.924144311 191 l 1
 515 371 l 1
 562.5 333.5 l 1
 571 317.5 l 1
 552.256623223 314.670811053 l 1
 484.977744807 191 l 1
 639 191 l 1
 689 241 l 1
 749 191 l 1
 749 171 l 1
 474.097428289 171 l 1
 305.452522255 -139 l 1
 651 -139 l 1
EndSplineSet
EndChar

StartChar: glyph105
Encoding: 361 983177 105
Width: 1000
VWidth: 0
Flags: W
HStem: -159 20<305.453 651> 171 20<251 406.027 484.978 639>
LayerCount: 2
Fore
SplineSet
340.5 767.5 m 1
 370.5 753 l 1
 401 734.5 l 1
 432.5 712.5 l 1
 465 686.5 l 1
 498.5 657.5 l 1
 514.354259323 642.345193295 l 1
 520 647.5 l 1
 555 678.5 l 1
 590 709.5 l 1
 626 740 l 1
 662.5 769.5 l 1
 669 763 l 1
 639.5 726.5 l 1
 609 690.5 l 1
 578 655.5 l 1
 547 620.5 l 1
 542.293103448 615.344827586 l 1
 568 590 l 1
 604.5 551 l 1
 641.5 509.5 l 1
 680 464.5 l 1
 686 442.5 l 1
 675 422.5 l 1
 653 416.5 l 1
 633 427.5 l 1
 597.5 473 l 1
 563.5 516 l 1
 530.5 556 l 1
 510.191067831 580.177300201 l 1
 484.5 552 l 1
 453 518 l 1
 421.5 484 l 1
 390 450 l 1
 372.395860285 431.278137128 l 1
 376 413 l 1
 358.5 416.5 l 1
 309 452 l 1
 316 459 l 1
 349.5 490.5 l 1
 383.5 522 l 1
 417.5 553.5 l 1
 451.5 585 l 1
 481.823340471 612.647751606 l 1
 468.5 627.5 l 1
 439 659 l 1
 411 687.5 l 1
 384.5 713.5 l 1
 359.5 737.5 l 1
 335.5 760 l 1
 340.5 767.5 l 1
651 -139 m 1
 701 -89 l 1
 761 -139 l 1
 761 -159 l 1
 294.572205737 -159 l 1
 287.5 -172 l 1
 220.5 -169.5 l 1
 406.026827012 171 l 1
 251 171 l 1
 251 191 l 1
 416.924144311 191 l 1
 515 371 l 1
 562.5 333.5 l 1
 571 317.5 l 1
 552.256623223 314.670811053 l 1
 484.977744807 191 l 1
 639 191 l 1
 689 241 l 1
 749 191 l 1
 749 171 l 1
 474.097428289 171 l 1
 305.452522255 -139 l 1
 651 -139 l 1
EndSplineSet
EndChar

StartChar: glyph106
Encoding: 362 983178 106
Width: 1000
VWidth: 0
Flags: W
HStem: -159 20<305.453 651> 171 20<251 406.027 484.978 639> 590 20<334 556>
LayerCount: 2
Fore
SplineSet
651 -139 m 1
 701 -89 l 1
 761 -139 l 1
 761 -159 l 1
 294.572205737 -159 l 1
 287.5 -172 l 1
 220.5 -169.5 l 1
 406.026827012 171 l 1
 251 171 l 1
 251 191 l 1
 416.924144311 191 l 1
 515 371 l 1
 562.5 333.5 l 1
 571 317.5 l 1
 552.256623223 314.670811053 l 1
 484.977744807 191 l 1
 639 191 l 1
 689 241 l 1
 749 191 l 1
 749 171 l 1
 474.097428289 171 l 1
 305.452522255 -139 l 1
 651 -139 l 1
556 610 m 1
 606 660 l 1
 666 610 l 1
 666 590 l 1
 334 590 l 1
 334 610 l 1
 556 610 l 1
EndSplineSet
EndChar

StartChar: glyph107
Encoding: 363 983179 107
Width: 1000
VWidth: 0
Flags: W
VStem: 680 60<-80.4 337>
LayerCount: 2
Fore
SplineSet
740.5 -118 m 1
 740 -119.088235294 l 1
 740 -147 l 1
 727.175675676 -147 l 1
 715 -173.5 l 1
 706.5 -167.5 l 1
 662.5 -136 l 1
 617.5 -105 l 1
 572 -75.5 l 1
 525.5 -46.5 l 1
 479 -18 l 1
 431.5 9 l 1
 383.5 36 l 1
 335 62 l 1
 286.5 88 l 1
 237 114 l 1
 240.5 122.5 l 1
 294 105.5 l 1
 346.5 86.5 l 1
 398 65.5 l 1
 449 43 l 1
 499 19 l 1
 548.5 -6 l 1
 597.5 -32.5 l 1
 646 -60 l 1
 680 -80.4 l 1
 680 366 l 1
 740 356 l 1
 755 346 l 1
 740 337 l 1
 740 -100.402985075 l 1
 741 -100 l 1
 740.5 -118 l 1
372.395860285 431.278137128 m 1
 376 413 l 1
 358.5 416.5 l 1
 309 452 l 1
 316 459 l 1
 349.5 490.5 l 1
 383.5 522 l 1
 417.5 553.5 l 1
 451.5 585 l 1
 485.5 616 l 1
 520 647.5 l 1
 555 678.5 l 1
 590 709.5 l 1
 626 740 l 1
 662.5 769.5 l 1
 669 763 l 1
 639.5 726.5 l 1
 609 690.5 l 1
 578 655.5 l 1
 547 620.5 l 1
 515.5 586 l 1
 484.5 552 l 1
 453 518 l 1
 421.5 484 l 1
 390 450 l 1
 372.395860285 431.278137128 l 1
EndSplineSet
EndChar

StartChar: glyph108
Encoding: 364 983180 108
Width: 1000
VWidth: 0
Flags: W
VStem: 680 60<319.6 737>
LayerCount: 2
Fore
SplineSet
740.5 282 m 1
 740 280.911764706 l 1
 740 253 l 1
 727.175675676 253 l 1
 715 226.5 l 1
 706.5 232.5 l 1
 662.5 264 l 1
 617.5 295 l 1
 572 324.5 l 1
 525.5 353.5 l 1
 479 382 l 1
 431.5 409 l 1
 383.5 436 l 1
 335 462 l 1
 286.5 488 l 1
 237 514 l 1
 240.5 522.5 l 1
 294 505.5 l 1
 346.5 486.5 l 1
 398 465.5 l 1
 449 443 l 1
 499 419 l 1
 548.5 394 l 1
 597.5 367.5 l 1
 646 340 l 1
 680 319.6 l 1
 680 766 l 1
 740 756 l 1
 755 746 l 1
 740 737 l 1
 740 299.597014925 l 1
 741 300 l 1
 740.5 282 l 1
316 141.5 m 1
 314.5 143 l 1
 358.5 184 l 1
 376 187.5 l 1
 371.693972179 169.968315301 l 1
 390 150.5 l 1
 421.5 116.5 l 1
 453 82.5 l 1
 484.5 48.5 l 1
 515.5 14.5 l 1
 547 -20 l 1
 578 -55 l 1
 609 -90 l 1
 639.5 -126 l 1
 669 -162.5 l 1
 662.5 -169 l 1
 626 -139.5 l 1
 590 -109 l 1
 555 -78 l 1
 520 -47 l 1
 485.5 -15.5 l 1
 451.5 15.5 l 1
 417.5 47 l 1
 383.5 78.5 l 1
 349.5 110 l 1
 319.59857375 138.116266474 l 1
 319.5 138 l 1
 316 141.5 l 1
EndSplineSet
EndChar

StartChar: glyph109
Encoding: 365 983181 109
Width: 1000
VWidth: 0
Flags: W
HStem: -10 20<334 556>
VStem: 680 60<319.6 737>
LayerCount: 2
Fore
SplineSet
740.5 282 m 1
 740 280.911764706 l 1
 740 253 l 1
 727.175675676 253 l 1
 715 226.5 l 1
 706.5 232.5 l 1
 662.5 264 l 1
 617.5 295 l 1
 572 324.5 l 1
 525.5 353.5 l 1
 479 382 l 1
 431.5 409 l 1
 383.5 436 l 1
 335 462 l 1
 286.5 488 l 1
 237 514 l 1
 240.5 522.5 l 1
 294 505.5 l 1
 346.5 486.5 l 1
 398 465.5 l 1
 449 443 l 1
 499 419 l 1
 548.5 394 l 1
 597.5 367.5 l 1
 646 340 l 1
 680 319.6 l 1
 680 766 l 1
 740 756 l 1
 755 746 l 1
 740 737 l 1
 740 299.597014925 l 1
 741 300 l 1
 740.5 282 l 1
556 10 m 1
 606 60 l 1
 666 10 l 1
 666 -10 l 1
 334 -10 l 1
 334 10 l 1
 556 10 l 1
EndSplineSet
EndChar

StartChar: glyph110
Encoding: 366 983182 110
Width: 1000
VWidth: 0
Flags: W
VStem: 680 60<319.6 737>
LayerCount: 2
Fore
SplineSet
740.5 282 m 1
 740 280.911764706 l 1
 740 253 l 1
 727.175675676 253 l 1
 715 226.5 l 1
 706.5 232.5 l 1
 662.5 264 l 1
 617.5 295 l 1
 572 324.5 l 1
 525.5 353.5 l 1
 479 382 l 1
 431.5 409 l 1
 383.5 436 l 1
 335 462 l 1
 286.5 488 l 1
 237 514 l 1
 240.5 522.5 l 1
 294 505.5 l 1
 346.5 486.5 l 1
 398 465.5 l 1
 449 443 l 1
 499 419 l 1
 548.5 394 l 1
 597.5 367.5 l 1
 646 340 l 1
 680 319.6 l 1
 680 766 l 1
 740 756 l 1
 755 746 l 1
 740 737 l 1
 740 299.597014925 l 1
 741 300 l 1
 740.5 282 l 1
641 184 m 1
 642.5 185.5 l 1
 683.5 141.5 l 1
 687 124 l 1
 669.468315301 128.306027821 l 1
 650 110 l 1
 616 78.5 l 1
 582 47 l 1
 548 15.5 l 1
 514 -15.5 l 1
 479.5 -47 l 1
 444.5 -78 l 1
 409.5 -109 l 1
 373.5 -139.5 l 1
 337 -169 l 1
 330.5 -162.5 l 1
 360 -126 l 1
 390.5 -90 l 1
 421.5 -55 l 1
 452.5 -20 l 1
 484 14.5 l 1
 515 48.5 l 1
 546.5 82.5 l 1
 578 116.5 l 1
 609.5 150.5 l 1
 637.616266474 180.40142625 l 1
 637.5 180.5 l 1
 641 184 l 1
EndSplineSet
EndChar

StartChar: glyph111
Encoding: 367 983183 111
Width: 1000
VWidth: 0
Flags: W
VStem: 680 60<-80.4 337>
LayerCount: 2
Fore
SplineSet
340.5 767.5 m 1
 370.5 753 l 1
 401 734.5 l 1
 432.5 712.5 l 1
 465 686.5 l 1
 498.5 657.5 l 1
 532.5 625 l 1
 568 590 l 1
 604.5 551 l 1
 641.5 509.5 l 1
 680 464.5 l 1
 686 442.5 l 1
 675 422.5 l 1
 653 416.5 l 1
 633 427.5 l 1
 597.5 473 l 1
 563.5 516 l 1
 530.5 556 l 1
 499 593.5 l 1
 468.5 627.5 l 1
 439 659 l 1
 411 687.5 l 1
 384.5 713.5 l 1
 359.5 737.5 l 1
 335.5 760 l 1
 340.5 767.5 l 1
740.5 -118 m 1
 740 -119.088235294 l 1
 740 -147 l 1
 727.175675676 -147 l 1
 715 -173.5 l 1
 706.5 -167.5 l 1
 662.5 -136 l 1
 617.5 -105 l 1
 572 -75.5 l 1
 525.5 -46.5 l 1
 479 -18 l 1
 431.5 9 l 1
 383.5 36 l 1
 335 62 l 1
 286.5 88 l 1
 237 114 l 1
 240.5 122.5 l 1
 294 105.5 l 1
 346.5 86.5 l 1
 398 65.5 l 1
 449 43 l 1
 499 19 l 1
 548.5 -6 l 1
 597.5 -32.5 l 1
 646 -60 l 1
 680 -80.4 l 1
 680 366 l 1
 740 356 l 1
 755 346 l 1
 740 337 l 1
 740 -100.402985075 l 1
 741 -100 l 1
 740.5 -118 l 1
EndSplineSet
EndChar

StartChar: glyph112
Encoding: 368 983184 112
Width: 1000
VWidth: 0
Flags: W
VStem: 680 60<-80.4 337>
LayerCount: 2
Fore
SplineSet
340.5 767.5 m 1
 370.5 753 l 1
 401 734.5 l 1
 432.5 712.5 l 1
 465 686.5 l 1
 498.5 657.5 l 1
 514.354259323 642.345193295 l 1
 520 647.5 l 1
 555 678.5 l 1
 590 709.5 l 1
 626 740 l 1
 662.5 769.5 l 1
 669 763 l 1
 639.5 726.5 l 1
 609 690.5 l 1
 578 655.5 l 1
 547 620.5 l 1
 542.293103448 615.344827586 l 1
 568 590 l 1
 604.5 551 l 1
 641.5 509.5 l 1
 680 464.5 l 1
 686 442.5 l 1
 675 422.5 l 1
 653 416.5 l 1
 633 427.5 l 1
 597.5 473 l 1
 563.5 516 l 1
 530.5 556 l 1
 510.191067831 580.177300201 l 1
 484.5 552 l 1
 453 518 l 1
 421.5 484 l 1
 390 450 l 1
 372.395860285 431.278137128 l 1
 376 413 l 1
 358.5 416.5 l 1
 309 452 l 1
 316 459 l 1
 349.5 490.5 l 1
 383.5 522 l 1
 417.5 553.5 l 1
 451.5 585 l 1
 481.823340471 612.647751606 l 1
 468.5 627.5 l 1
 439 659 l 1
 411 687.5 l 1
 384.5 713.5 l 1
 359.5 737.5 l 1
 335.5 760 l 1
 340.5 767.5 l 1
740.5 -118 m 1
 740 -119.088235294 l 1
 740 -147 l 1
 727.175675676 -147 l 1
 715 -173.5 l 1
 706.5 -167.5 l 1
 662.5 -136 l 1
 617.5 -105 l 1
 572 -75.5 l 1
 525.5 -46.5 l 1
 479 -18 l 1
 431.5 9 l 1
 383.5 36 l 1
 335 62 l 1
 286.5 88 l 1
 237 114 l 1
 240.5 122.5 l 1
 294 105.5 l 1
 346.5 86.5 l 1
 398 65.5 l 1
 449 43 l 1
 499 19 l 1
 548.5 -6 l 1
 597.5 -32.5 l 1
 646 -60 l 1
 680 -80.4 l 1
 680 366 l 1
 740 356 l 1
 755 346 l 1
 740 337 l 1
 740 -100.402985075 l 1
 741 -100 l 1
 740.5 -118 l 1
EndSplineSet
EndChar

StartChar: glyph113
Encoding: 369 983185 113
Width: 1000
VWidth: 0
Flags: W
HStem: 590 20<334 556>
VStem: 680 60<-80.4 337>
LayerCount: 2
Fore
SplineSet
740.5 -118 m 1
 740 -119.088235294 l 1
 740 -147 l 1
 727.175675676 -147 l 1
 715 -173.5 l 1
 706.5 -167.5 l 1
 662.5 -136 l 1
 617.5 -105 l 1
 572 -75.5 l 1
 525.5 -46.5 l 1
 479 -18 l 1
 431.5 9 l 1
 383.5 36 l 1
 335 62 l 1
 286.5 88 l 1
 237 114 l 1
 240.5 122.5 l 1
 294 105.5 l 1
 346.5 86.5 l 1
 398 65.5 l 1
 449 43 l 1
 499 19 l 1
 548.5 -6 l 1
 597.5 -32.5 l 1
 646 -60 l 1
 680 -80.4 l 1
 680 366 l 1
 740 356 l 1
 755 346 l 1
 740 337 l 1
 740 -100.402985075 l 1
 741 -100 l 1
 740.5 -118 l 1
556 610 m 1
 606 660 l 1
 666 610 l 1
 666 590 l 1
 334 590 l 1
 334 610 l 1
 556 610 l 1
EndSplineSet
EndChar

StartChar: glyph114
Encoding: 370 983186 114
Width: 1000
VWidth: 0
Flags: W
HStem: -143 30<613.333 660> -128 15<560 606.667> 324 20<260 680>
VStem: 680 60<-99 304>
LayerCount: 2
Fore
SplineSet
660 -113 m 1xb0
 666 -112.5 l 1
 670.5 -111.5 l 1
 673.5 -110.5 l 1
 675 -110 l 1
 676 -109 l 1
 677 -108 l 1
 677.5 -106.5 l 1
 678.5 -103.5 l 1
 679.5 -99 l 1
 680 -93 l 1
 680 324 l 1
 260 324 l 1
 260 344 l 1
 680 344 l 1
 710 369 l 1
 765 324 l 1
 740 304 l 1
 740 -93 l 1
 739 -105.5 l 1
 737 -118 l 1
 733 -130 l 1
 726.5 -141.5 l 1
 718.5 -151.5 l 1
 708.5 -159.5 l 1
 697 -166 l 1
 685 -170 l 1
 672.5 -172 l 1
 660 -173 l 1
 660 -143 l 1xb0
 560 -128 l 1
 560 -113 l 1x70
 660 -113 l 1xb0
372.395860285 431.278137128 m 1
 376 413 l 1
 358.5 416.5 l 1
 309 452 l 1
 316 459 l 1
 349.5 490.5 l 1
 383.5 522 l 1
 417.5 553.5 l 1
 451.5 585 l 1
 485.5 616 l 1
 520 647.5 l 1
 555 678.5 l 1
 590 709.5 l 1
 626 740 l 1
 662.5 769.5 l 1
 669 763 l 1
 639.5 726.5 l 1
 609 690.5 l 1
 578 655.5 l 1
 547 620.5 l 1
 515.5 586 l 1
 484.5 552 l 1
 453 518 l 1
 421.5 484 l 1
 390 450 l 1
 372.395860285 431.278137128 l 1
EndSplineSet
EndChar

StartChar: glyph115
Encoding: 371 983187 115
Width: 1000
VWidth: 0
Flags: W
HStem: 257 30<613.333 660> 272 15<560 606.667> 724 20<260 680>
VStem: 680 60<301 704>
LayerCount: 2
Fore
SplineSet
660 287 m 1xb0
 666 287.5 l 1
 670.5 288.5 l 1
 673.5 289.5 l 1
 675 290 l 1
 676 291 l 1
 677 292 l 1
 677.5 293.5 l 1
 678.5 296.5 l 1
 679.5 301 l 1
 680 307 l 1
 680 724 l 1
 260 724 l 1
 260 744 l 1
 680 744 l 1
 710 769.5 l 1
 765 724 l 1
 740 704 l 1
 740 307 l 1
 739 294.5 l 1
 737 282 l 1
 733 270 l 1
 726.5 258.5 l 1
 718.5 248.5 l 1
 708.5 240.5 l 1
 697 234 l 1
 685 230 l 1
 672.5 228 l 1
 660 227 l 1
 660 257 l 1xb0
 560 272 l 1
 560 287 l 1x70
 660 287 l 1xb0
316 141.5 m 1
 314.5 143 l 1
 358.5 184 l 1
 376 187.5 l 1
 371.693972179 169.968315301 l 1
 390 150.5 l 1
 421.5 116.5 l 1
 453 82.5 l 1
 484.5 48.5 l 1
 515.5 14.5 l 1
 547 -20 l 1
 578 -55 l 1
 609 -90 l 1
 639.5 -126 l 1
 669 -162.5 l 1
 662.5 -169 l 1
 626 -139.5 l 1
 590 -109 l 1
 555 -78 l 1
 520 -47 l 1
 485.5 -15.5 l 1
 451.5 15.5 l 1
 417.5 47 l 1
 383.5 78.5 l 1
 349.5 110 l 1
 319.59857375 138.116266474 l 1
 319.5 138 l 1
 316 141.5 l 1
EndSplineSet
EndChar

StartChar: glyph116
Encoding: 372 983188 116
Width: 1000
VWidth: 0
Flags: W
HStem: -10 20<334 556> 257 30<613.333 660> 272 15<560 606.667> 724 20<260 680>
VStem: 680 60<301 704>
LayerCount: 2
Fore
SplineSet
660 287 m 1xd8
 666 287.5 l 1
 670.5 288.5 l 1
 673.5 289.5 l 1
 675 290 l 1
 676 291 l 1
 677 292 l 1
 677.5 293.5 l 1
 678.5 296.5 l 1
 679.5 301 l 1
 680 307 l 1
 680 724 l 1
 260 724 l 1
 260 744 l 1
 680 744 l 1
 710 769.5 l 1
 765 724 l 1
 740 704 l 1
 740 307 l 1
 739 294.5 l 1
 737 282 l 1
 733 270 l 1
 726.5 258.5 l 1
 718.5 248.5 l 1
 708.5 240.5 l 1
 697 234 l 1
 685 230 l 1
 672.5 228 l 1
 660 227 l 1
 660 257 l 1xd8
 560 272 l 1
 560 287 l 1xb8
 660 287 l 1xd8
556 10 m 1
 606 60 l 1
 666 10 l 1
 666 -10 l 1
 334 -10 l 1
 334 10 l 1
 556 10 l 1
EndSplineSet
EndChar

StartChar: glyph117
Encoding: 373 983189 117
Width: 1000
VWidth: 0
Flags: W
HStem: 257 30<613.333 660> 272 15<560 606.667> 724 20<260 680>
VStem: 680 60<301 704>
LayerCount: 2
Fore
SplineSet
660 287 m 1xb0
 666 287.5 l 1
 670.5 288.5 l 1
 673.5 289.5 l 1
 675 290 l 1
 676 291 l 1
 677 292 l 1
 677.5 293.5 l 1
 678.5 296.5 l 1
 679.5 301 l 1
 680 307 l 1
 680 724 l 1
 260 724 l 1
 260 744 l 1
 680 744 l 1
 710 769.5 l 1
 765 724 l 1
 740 704 l 1
 740 307 l 1
 739 294.5 l 1
 737 282 l 1
 733 270 l 1
 726.5 258.5 l 1
 718.5 248.5 l 1
 708.5 240.5 l 1
 697 234 l 1
 685 230 l 1
 672.5 228 l 1
 660 227 l 1
 660 257 l 1xb0
 560 272 l 1
 560 287 l 1x70
 660 287 l 1xb0
641 184 m 1
 642.5 185.5 l 1
 683.5 141.5 l 1
 687 124 l 1
 669.468315301 128.306027821 l 1
 650 110 l 1
 616 78.5 l 1
 582 47 l 1
 548 15.5 l 1
 514 -15.5 l 1
 479.5 -47 l 1
 444.5 -78 l 1
 409.5 -109 l 1
 373.5 -139.5 l 1
 337 -169 l 1
 330.5 -162.5 l 1
 360 -126 l 1
 390.5 -90 l 1
 421.5 -55 l 1
 452.5 -20 l 1
 484 14.5 l 1
 515 48.5 l 1
 546.5 82.5 l 1
 578 116.5 l 1
 609.5 150.5 l 1
 637.616266474 180.40142625 l 1
 637.5 180.5 l 1
 641 184 l 1
EndSplineSet
EndChar

StartChar: glyph118
Encoding: 374 983190 118
Width: 1000
VWidth: 0
Flags: W
HStem: -143 30<613.333 660> -128 15<560 606.667> 324 20<260 680>
VStem: 680 60<-99 304>
LayerCount: 2
Fore
SplineSet
340.5 767.5 m 1x30
 370.5 753 l 1
 401 734.5 l 1
 432.5 712.5 l 1
 465 686.5 l 1
 498.5 657.5 l 1
 532.5 625 l 1
 568 590 l 1
 604.5 551 l 1
 641.5 509.5 l 1
 680 464.5 l 1
 686 442.5 l 1
 675 422.5 l 1
 653 416.5 l 1
 633 427.5 l 1
 597.5 473 l 1
 563.5 516 l 1
 530.5 556 l 1
 499 593.5 l 1
 468.5 627.5 l 1
 439 659 l 1
 411 687.5 l 1
 384.5 713.5 l 1
 359.5 737.5 l 1
 335.5 760 l 1
 340.5 767.5 l 1x30
660 -113 m 1xb0
 666 -112.5 l 1
 670.5 -111.5 l 1
 673.5 -110.5 l 1
 675 -110 l 1
 676 -109 l 1
 677 -108 l 1
 677.5 -106.5 l 1
 678.5 -103.5 l 1
 679.5 -99 l 1
 680 -93 l 1
 680 324 l 1
 260 324 l 1
 260 344 l 1
 680 344 l 1
 710 369 l 1
 765 324 l 1
 740 304 l 1
 740 -93 l 1
 739 -105.5 l 1
 737 -118 l 1
 733 -130 l 1
 726.5 -141.5 l 1
 718.5 -151.5 l 1
 708.5 -159.5 l 1
 697 -166 l 1
 685 -170 l 1
 672.5 -172 l 1
 660 -173 l 1
 660 -143 l 1xb0
 560 -128 l 1
 560 -113 l 1x70
 660 -113 l 1xb0
EndSplineSet
EndChar

StartChar: glyph119
Encoding: 375 983191 119
Width: 1000
VWidth: 0
Flags: W
HStem: -143 30<613.333 660> -128 15<560 606.667> 324 20<260 680>
VStem: 680 60<-99 304>
LayerCount: 2
Fore
SplineSet
340.5 767.5 m 1x30
 370.5 753 l 1
 401 734.5 l 1
 432.5 712.5 l 1
 465 686.5 l 1
 498.5 657.5 l 1
 514.354259323 642.345193295 l 1
 520 647.5 l 1
 555 678.5 l 1
 590 709.5 l 1
 626 740 l 1
 662.5 769.5 l 1
 669 763 l 1
 639.5 726.5 l 1
 609 690.5 l 1
 578 655.5 l 1
 547 620.5 l 1
 542.293103448 615.344827586 l 1
 568 590 l 1
 604.5 551 l 1
 641.5 509.5 l 1
 680 464.5 l 1
 686 442.5 l 1
 675 422.5 l 1
 653 416.5 l 1
 633 427.5 l 1
 597.5 473 l 1
 563.5 516 l 1
 530.5 556 l 1
 510.191067831 580.177300201 l 1
 484.5 552 l 1
 453 518 l 1
 421.5 484 l 1
 390 450 l 1
 372.395860285 431.278137128 l 1
 376 413 l 1
 358.5 416.5 l 1
 309 452 l 1
 316 459 l 1
 349.5 490.5 l 1
 383.5 522 l 1
 417.5 553.5 l 1
 451.5 585 l 1
 481.823340471 612.647751606 l 1
 468.5 627.5 l 1
 439 659 l 1
 411 687.5 l 1
 384.5 713.5 l 1
 359.5 737.5 l 1
 335.5 760 l 1
 340.5 767.5 l 1x30
660 -113 m 1xb0
 666 -112.5 l 1
 670.5 -111.5 l 1
 673.5 -110.5 l 1
 675 -110 l 1
 676 -109 l 1
 677 -108 l 1
 677.5 -106.5 l 1
 678.5 -103.5 l 1
 679.5 -99 l 1
 680 -93 l 1
 680 324 l 1
 260 324 l 1
 260 344 l 1
 680 344 l 1
 710 369 l 1
 765 324 l 1
 740 304 l 1
 740 -93 l 1
 739 -105.5 l 1
 737 -118 l 1
 733 -130 l 1
 726.5 -141.5 l 1
 718.5 -151.5 l 1
 708.5 -159.5 l 1
 697 -166 l 1
 685 -170 l 1
 672.5 -172 l 1
 660 -173 l 1
 660 -143 l 1xb0
 560 -128 l 1
 560 -113 l 1x70
 660 -113 l 1xb0
EndSplineSet
EndChar

StartChar: glyph120
Encoding: 376 983192 120
Width: 1000
VWidth: 0
Flags: W
HStem: -143 30<613.333 660> -128 15<560 606.667> 324 20<260 680> 590 20<334 556>
VStem: 680 60<-99 304>
LayerCount: 2
Fore
SplineSet
660 -113 m 1xb8
 666 -112.5 l 1
 670.5 -111.5 l 1
 673.5 -110.5 l 1
 675 -110 l 1
 676 -109 l 1
 677 -108 l 1
 677.5 -106.5 l 1
 678.5 -103.5 l 1
 679.5 -99 l 1
 680 -93 l 1
 680 324 l 1
 260 324 l 1
 260 344 l 1
 680 344 l 1
 710 369 l 1
 765 324 l 1
 740 304 l 1
 740 -93 l 1
 739 -105.5 l 1
 737 -118 l 1
 733 -130 l 1
 726.5 -141.5 l 1
 718.5 -151.5 l 1
 708.5 -159.5 l 1
 697 -166 l 1
 685 -170 l 1
 672.5 -172 l 1
 660 -173 l 1
 660 -143 l 1xb8
 560 -128 l 1
 560 -113 l 1x78
 660 -113 l 1xb8
556 610 m 1
 606 660 l 1
 666 610 l 1
 666 590 l 1
 334 590 l 1
 334 610 l 1
 556 610 l 1
EndSplineSet
EndChar

StartChar: glyph121
Encoding: 377 983193 121
Width: 1000
VWidth: 0
Flags: W
HStem: 327 20<260 693.107>
LayerCount: 2
Fore
SplineSet
748.49486166 308.039525692 m 1
 732.5 265.5 l 1
 707 206 l 1
 680 149.5 l 1
 651.5 96 l 1
 621 45 l 1
 588.5 -2.5 l 1
 554.5 -47.5 l 1
 518.5 -89 l 1
 480 -127 l 1
 440 -161 l 1
 433.5 -154.5 l 1
 466 -114 l 1
 497.5 -72 l 1
 528 -28 l 1
 556.5 18.5 l 1
 584 67 l 1
 610 117.5 l 1
 635 171 l 1
 658 227 l 1
 679.5 285.5 l 1
 693.106557377 327 l 1
 260 327 l 1
 260 347 l 1
 698 347 l 1
 728 372 l 1
 783 327 l 1
 758 312 l 1
 748.49486166 308.039525692 l 1
372.395860285 431.278137128 m 1
 376 413 l 1
 358.5 416.5 l 1
 309 452 l 1
 316 459 l 1
 349.5 490.5 l 1
 383.5 522 l 1
 417.5 553.5 l 1
 451.5 585 l 1
 485.5 616 l 1
 520 647.5 l 1
 555 678.5 l 1
 590 709.5 l 1
 626 740 l 1
 662.5 769.5 l 1
 669 763 l 1
 639.5 726.5 l 1
 609 690.5 l 1
 578 655.5 l 1
 547 620.5 l 1
 515.5 586 l 1
 484.5 552 l 1
 453 518 l 1
 421.5 484 l 1
 390 450 l 1
 372.395860285 431.278137128 l 1
EndSplineSet
EndChar

StartChar: glyph122
Encoding: 378 983194 122
Width: 1000
VWidth: 0
Flags: W
HStem: 727 20<260 693.107>
LayerCount: 2
Fore
SplineSet
748.49486166 708.039525692 m 1
 732.5 665.5 l 1
 707 606 l 1
 680 549.5 l 1
 651.5 496 l 1
 621 445 l 1
 588.5 397.5 l 1
 554.5 352.5 l 1
 518.5 311 l 1
 480 273 l 1
 440 239 l 1
 433.5 245.5 l 1
 466 286 l 1
 497.5 328 l 1
 528 372 l 1
 556.5 418.5 l 1
 584 467 l 1
 610 517.5 l 1
 635 571 l 1
 658 627 l 1
 679.5 685.5 l 1
 693.106557377 727 l 1
 260 727 l 1
 260 747 l 1
 698 747 l 1
 728 772 l 1
 783 727 l 1
 758 712 l 1
 748.49486166 708.039525692 l 1
316 141.5 m 1
 314.5 143 l 1
 358.5 184 l 1
 376 187.5 l 1
 371.693972179 169.968315301 l 1
 390 150.5 l 1
 421.5 116.5 l 1
 453 82.5 l 1
 484.5 48.5 l 1
 515.5 14.5 l 1
 547 -20 l 1
 578 -55 l 1
 609 -90 l 1
 639.5 -126 l 1
 669 -162.5 l 1
 662.5 -169 l 1
 626 -139.5 l 1
 590 -109 l 1
 555 -78 l 1
 520 -47 l 1
 485.5 -15.5 l 1
 451.5 15.5 l 1
 417.5 47 l 1
 383.5 78.5 l 1
 349.5 110 l 1
 319.59857375 138.116266474 l 1
 319.5 138 l 1
 316 141.5 l 1
EndSplineSet
EndChar

StartChar: glyph123
Encoding: 379 983195 123
Width: 1000
VWidth: 0
Flags: W
HStem: -10 20<334 556> 727 20<260 693.107>
LayerCount: 2
Fore
SplineSet
748.49486166 708.039525692 m 1
 732.5 665.5 l 1
 707 606 l 1
 680 549.5 l 1
 651.5 496 l 1
 621 445 l 1
 588.5 397.5 l 1
 554.5 352.5 l 1
 518.5 311 l 1
 480 273 l 1
 440 239 l 1
 433.5 245.5 l 1
 466 286 l 1
 497.5 328 l 1
 528 372 l 1
 556.5 418.5 l 1
 584 467 l 1
 610 517.5 l 1
 635 571 l 1
 658 627 l 1
 679.5 685.5 l 1
 693.106557377 727 l 1
 260 727 l 1
 260 747 l 1
 698 747 l 1
 728 772 l 1
 783 727 l 1
 758 712 l 1
 748.49486166 708.039525692 l 1
556 10 m 1
 606 60 l 1
 666 10 l 1
 666 -10 l 1
 334 -10 l 1
 334 10 l 1
 556 10 l 1
EndSplineSet
EndChar

StartChar: glyph124
Encoding: 380 983196 124
Width: 1000
VWidth: 0
Flags: W
HStem: 727 20<260 693.107>
LayerCount: 2
Fore
SplineSet
748.49486166 708.039525692 m 1
 732.5 665.5 l 1
 707 606 l 1
 680 549.5 l 1
 651.5 496 l 1
 621 445 l 1
 588.5 397.5 l 1
 554.5 352.5 l 1
 518.5 311 l 1
 480 273 l 1
 440 239 l 1
 433.5 245.5 l 1
 466 286 l 1
 497.5 328 l 1
 528 372 l 1
 556.5 418.5 l 1
 584 467 l 1
 610 517.5 l 1
 635 571 l 1
 658 627 l 1
 679.5 685.5 l 1
 693.106557377 727 l 1
 260 727 l 1
 260 747 l 1
 698 747 l 1
 728 772 l 1
 783 727 l 1
 758 712 l 1
 748.49486166 708.039525692 l 1
641 184 m 1
 642.5 185.5 l 1
 683.5 141.5 l 1
 687 124 l 1
 669.468315301 128.306027821 l 1
 650 110 l 1
 616 78.5 l 1
 582 47 l 1
 548 15.5 l 1
 514 -15.5 l 1
 479.5 -47 l 1
 444.5 -78 l 1
 409.5 -109 l 1
 373.5 -139.5 l 1
 337 -169 l 1
 330.5 -162.5 l 1
 360 -126 l 1
 390.5 -90 l 1
 421.5 -55 l 1
 452.5 -20 l 1
 484 14.5 l 1
 515 48.5 l 1
 546.5 82.5 l 1
 578 116.5 l 1
 609.5 150.5 l 1
 637.616266474 180.40142625 l 1
 637.5 180.5 l 1
 641 184 l 1
EndSplineSet
EndChar

StartChar: glyph125
Encoding: 381 983197 125
Width: 1000
VWidth: 0
Flags: W
HStem: 327 20<260 693.107>
LayerCount: 2
Fore
SplineSet
340.5 767.5 m 1
 370.5 753 l 1
 401 734.5 l 1
 432.5 712.5 l 1
 465 686.5 l 1
 498.5 657.5 l 1
 532.5 625 l 1
 568 590 l 1
 604.5 551 l 1
 641.5 509.5 l 1
 680 464.5 l 1
 686 442.5 l 1
 675 422.5 l 1
 653 416.5 l 1
 633 427.5 l 1
 597.5 473 l 1
 563.5 516 l 1
 530.5 556 l 1
 499 593.5 l 1
 468.5 627.5 l 1
 439 659 l 1
 411 687.5 l 1
 384.5 713.5 l 1
 359.5 737.5 l 1
 335.5 760 l 1
 340.5 767.5 l 1
748.49486166 308.039525692 m 1
 732.5 265.5 l 1
 707 206 l 1
 680 149.5 l 1
 651.5 96 l 1
 621 45 l 1
 588.5 -2.5 l 1
 554.5 -47.5 l 1
 518.5 -89 l 1
 480 -127 l 1
 440 -161 l 1
 433.5 -154.5 l 1
 466 -114 l 1
 497.5 -72 l 1
 528 -28 l 1
 556.5 18.5 l 1
 584 67 l 1
 610 117.5 l 1
 635 171 l 1
 658 227 l 1
 679.5 285.5 l 1
 693.106557377 327 l 1
 260 327 l 1
 260 347 l 1
 698 347 l 1
 728 372 l 1
 783 327 l 1
 758 312 l 1
 748.49486166 308.039525692 l 1
EndSplineSet
EndChar

StartChar: glyph126
Encoding: 382 983198 126
Width: 1000
VWidth: 0
Flags: W
HStem: 327 20<260 693.107>
LayerCount: 2
Fore
SplineSet
340.5 767.5 m 1
 370.5 753 l 1
 401 734.5 l 1
 432.5 712.5 l 1
 465 686.5 l 1
 498.5 657.5 l 1
 514.354259323 642.345193295 l 1
 520 647.5 l 1
 555 678.5 l 1
 590 709.5 l 1
 626 740 l 1
 662.5 769.5 l 1
 669 763 l 1
 639.5 726.5 l 1
 609 690.5 l 1
 578 655.5 l 1
 547 620.5 l 1
 542.293103448 615.344827586 l 1
 568 590 l 1
 604.5 551 l 1
 641.5 509.5 l 1
 680 464.5 l 1
 686 442.5 l 1
 675 422.5 l 1
 653 416.5 l 1
 633 427.5 l 1
 597.5 473 l 1
 563.5 516 l 1
 530.5 556 l 1
 510.191067831 580.177300201 l 1
 484.5 552 l 1
 453 518 l 1
 421.5 484 l 1
 390 450 l 1
 372.395860285 431.278137128 l 1
 376 413 l 1
 358.5 416.5 l 1
 309 452 l 1
 316 459 l 1
 349.5 490.5 l 1
 383.5 522 l 1
 417.5 553.5 l 1
 451.5 585 l 1
 481.823340471 612.647751606 l 1
 468.5 627.5 l 1
 439 659 l 1
 411 687.5 l 1
 384.5 713.5 l 1
 359.5 737.5 l 1
 335.5 760 l 1
 340.5 767.5 l 1
748.49486166 308.039525692 m 1
 732.5 265.5 l 1
 707 206 l 1
 680 149.5 l 1
 651.5 96 l 1
 621 45 l 1
 588.5 -2.5 l 1
 554.5 -47.5 l 1
 518.5 -89 l 1
 480 -127 l 1
 440 -161 l 1
 433.5 -154.5 l 1
 466 -114 l 1
 497.5 -72 l 1
 528 -28 l 1
 556.5 18.5 l 1
 584 67 l 1
 610 117.5 l 1
 635 171 l 1
 658 227 l 1
 679.5 285.5 l 1
 693.106557377 327 l 1
 260 327 l 1
 260 347 l 1
 698 347 l 1
 728 372 l 1
 783 327 l 1
 758 312 l 1
 748.49486166 308.039525692 l 1
EndSplineSet
EndChar

StartChar: glyph127
Encoding: 383 983199 127
Width: 1000
VWidth: 0
Flags: W
HStem: 327 20<260 693.107> 590 20<334 556>
LayerCount: 2
Fore
SplineSet
748.49486166 308.039525692 m 1
 732.5 265.5 l 1
 707 206 l 1
 680 149.5 l 1
 651.5 96 l 1
 621 45 l 1
 588.5 -2.5 l 1
 554.5 -47.5 l 1
 518.5 -89 l 1
 480 -127 l 1
 440 -161 l 1
 433.5 -154.5 l 1
 466 -114 l 1
 497.5 -72 l 1
 528 -28 l 1
 556.5 18.5 l 1
 584 67 l 1
 610 117.5 l 1
 635 171 l 1
 658 227 l 1
 679.5 285.5 l 1
 693.106557377 327 l 1
 260 327 l 1
 260 347 l 1
 698 347 l 1
 728 372 l 1
 783 327 l 1
 758 312 l 1
 748.49486166 308.039525692 l 1
556 610 m 1
 606 660 l 1
 666 610 l 1
 666 590 l 1
 334 590 l 1
 334 610 l 1
 556 610 l 1
EndSplineSet
EndChar

StartChar: glyph128
Encoding: 384 983200 128
Width: 1000
VWidth: 0
Flags: W
HStem: 123 20<287 522> 327 20<260 693.107>
LayerCount: 2
Fore
SplineSet
522 143 m 1
 572 193 l 1
 624.742152466 149.048206278 l 1
 635 171 l 1
 658 227 l 1
 679.5 285.5 l 1
 693.106557377 327 l 1
 260 327 l 1
 260 347 l 1
 698 347 l 1
 728 372 l 1
 783 327 l 1
 758 312 l 1
 748.49486166 308.039525692 l 1
 732.5 265.5 l 1
 707 206 l 1
 680 149.5 l 1
 651.5 96 l 1
 621 45 l 1
 588.5 -2.5 l 1
 554.5 -47.5 l 1
 518.5 -89 l 1
 480 -127 l 1
 440 -161 l 1
 433.5 -154.5 l 1
 466 -114 l 1
 497.5 -72 l 1
 528 -28 l 1
 556.5 18.5 l 1
 584 67 l 1
 610 117.5 l 1
 612.570093458 123 l 1
 287 123 l 1
 287 143 l 1
 522 143 l 1
372.395860285 431.278137128 m 1
 376 413 l 1
 358.5 416.5 l 1
 309 452 l 1
 316 459 l 1
 349.5 490.5 l 1
 383.5 522 l 1
 417.5 553.5 l 1
 451.5 585 l 1
 485.5 616 l 1
 520 647.5 l 1
 555 678.5 l 1
 590 709.5 l 1
 626 740 l 1
 662.5 769.5 l 1
 669 763 l 1
 639.5 726.5 l 1
 609 690.5 l 1
 578 655.5 l 1
 547 620.5 l 1
 515.5 586 l 1
 484.5 552 l 1
 453 518 l 1
 421.5 484 l 1
 390 450 l 1
 372.395860285 431.278137128 l 1
EndSplineSet
EndChar

StartChar: glyph129
Encoding: 385 983201 129
Width: 1000
VWidth: 0
Flags: W
HStem: 523 20<287 522> 727 20<260 693.107>
LayerCount: 2
Fore
SplineSet
522 543 m 1
 572 593 l 1
 624.742152466 549.048206278 l 1
 635 571 l 1
 658 627 l 1
 679.5 685.5 l 1
 693.106557377 727 l 1
 260 727 l 1
 260 747 l 1
 698 747 l 1
 728 772 l 1
 783 727 l 1
 758 712 l 1
 748.49486166 708.039525692 l 1
 732.5 665.5 l 1
 707 606 l 1
 680 549.5 l 1
 651.5 496 l 1
 621 445 l 1
 588.5 397.5 l 1
 554.5 352.5 l 1
 518.5 311 l 1
 480 273 l 1
 440 239 l 1
 433.5 245.5 l 1
 466 286 l 1
 497.5 328 l 1
 528 372 l 1
 556.5 418.5 l 1
 584 467 l 1
 610 517.5 l 1
 612.570093458 523 l 1
 287 523 l 1
 287 543 l 1
 522 543 l 1
316 141.5 m 1
 314.5 143 l 1
 358.5 184 l 1
 376 187.5 l 1
 371.693972179 169.968315301 l 1
 390 150.5 l 1
 421.5 116.5 l 1
 453 82.5 l 1
 484.5 48.5 l 1
 515.5 14.5 l 1
 547 -20 l 1
 578 -55 l 1
 609 -90 l 1
 639.5 -126 l 1
 669 -162.5 l 1
 662.5 -169 l 1
 626 -139.5 l 1
 590 -109 l 1
 555 -78 l 1
 520 -47 l 1
 485.5 -15.5 l 1
 451.5 15.5 l 1
 417.5 47 l 1
 383.5 78.5 l 1
 349.5 110 l 1
 319.59857375 138.116266474 l 1
 319.5 138 l 1
 316 141.5 l 1
EndSplineSet
EndChar

StartChar: glyph130
Encoding: 386 983202 130
Width: 1000
VWidth: 0
Flags: W
HStem: -10 20<334 556> 523 20<287 522> 727 20<260 693.107>
LayerCount: 2
Fore
SplineSet
522 543 m 1
 572 593 l 1
 624.742152466 549.048206278 l 1
 635 571 l 1
 658 627 l 1
 679.5 685.5 l 1
 693.106557377 727 l 1
 260 727 l 1
 260 747 l 1
 698 747 l 1
 728 772 l 1
 783 727 l 1
 758 712 l 1
 748.49486166 708.039525692 l 1
 732.5 665.5 l 1
 707 606 l 1
 680 549.5 l 1
 651.5 496 l 1
 621 445 l 1
 588.5 397.5 l 1
 554.5 352.5 l 1
 518.5 311 l 1
 480 273 l 1
 440 239 l 1
 433.5 245.5 l 1
 466 286 l 1
 497.5 328 l 1
 528 372 l 1
 556.5 418.5 l 1
 584 467 l 1
 610 517.5 l 1
 612.570093458 523 l 1
 287 523 l 1
 287 543 l 1
 522 543 l 1
556 10 m 1
 606 60 l 1
 666 10 l 1
 666 -10 l 1
 334 -10 l 1
 334 10 l 1
 556 10 l 1
EndSplineSet
EndChar

StartChar: glyph131
Encoding: 387 983203 131
Width: 1000
VWidth: 0
Flags: W
HStem: 523 20<287 522> 727 20<260 693.107>
LayerCount: 2
Fore
SplineSet
522 543 m 1
 572 593 l 1
 624.742152466 549.048206278 l 1
 635 571 l 1
 658 627 l 1
 679.5 685.5 l 1
 693.106557377 727 l 1
 260 727 l 1
 260 747 l 1
 698 747 l 1
 728 772 l 1
 783 727 l 1
 758 712 l 1
 748.49486166 708.039525692 l 1
 732.5 665.5 l 1
 707 606 l 1
 680 549.5 l 1
 651.5 496 l 1
 621 445 l 1
 588.5 397.5 l 1
 554.5 352.5 l 1
 518.5 311 l 1
 480 273 l 1
 440 239 l 1
 433.5 245.5 l 1
 466 286 l 1
 497.5 328 l 1
 528 372 l 1
 556.5 418.5 l 1
 584 467 l 1
 610 517.5 l 1
 612.570093458 523 l 1
 287 523 l 1
 287 543 l 1
 522 543 l 1
641 184 m 1
 642.5 185.5 l 1
 683.5 141.5 l 1
 687 124 l 1
 669.468315301 128.306027821 l 1
 650 110 l 1
 616 78.5 l 1
 582 47 l 1
 548 15.5 l 1
 514 -15.5 l 1
 479.5 -47 l 1
 444.5 -78 l 1
 409.5 -109 l 1
 373.5 -139.5 l 1
 337 -169 l 1
 330.5 -162.5 l 1
 360 -126 l 1
 390.5 -90 l 1
 421.5 -55 l 1
 452.5 -20 l 1
 484 14.5 l 1
 515 48.5 l 1
 546.5 82.5 l 1
 578 116.5 l 1
 609.5 150.5 l 1
 637.616266474 180.40142625 l 1
 637.5 180.5 l 1
 641 184 l 1
EndSplineSet
EndChar

StartChar: glyph132
Encoding: 388 983204 132
Width: 1000
VWidth: 0
Flags: W
HStem: 123 20<287 522> 327 20<260 693.107>
LayerCount: 2
Fore
SplineSet
340.5 767.5 m 1
 370.5 753 l 1
 401 734.5 l 1
 432.5 712.5 l 1
 465 686.5 l 1
 498.5 657.5 l 1
 532.5 625 l 1
 568 590 l 1
 604.5 551 l 1
 641.5 509.5 l 1
 680 464.5 l 1
 686 442.5 l 1
 675 422.5 l 1
 653 416.5 l 1
 633 427.5 l 1
 597.5 473 l 1
 563.5 516 l 1
 530.5 556 l 1
 499 593.5 l 1
 468.5 627.5 l 1
 439 659 l 1
 411 687.5 l 1
 384.5 713.5 l 1
 359.5 737.5 l 1
 335.5 760 l 1
 340.5 767.5 l 1
522 143 m 1
 572 193 l 1
 624.742152466 149.048206278 l 1
 635 171 l 1
 658 227 l 1
 679.5 285.5 l 1
 693.106557377 327 l 1
 260 327 l 1
 260 347 l 1
 698 347 l 1
 728 372 l 1
 783 327 l 1
 758 312 l 1
 748.49486166 308.039525692 l 1
 732.5 265.5 l 1
 707 206 l 1
 680 149.5 l 1
 651.5 96 l 1
 621 45 l 1
 588.5 -2.5 l 1
 554.5 -47.5 l 1
 518.5 -89 l 1
 480 -127 l 1
 440 -161 l 1
 433.5 -154.5 l 1
 466 -114 l 1
 497.5 -72 l 1
 528 -28 l 1
 556.5 18.5 l 1
 584 67 l 1
 610 117.5 l 1
 612.570093458 123 l 1
 287 123 l 1
 287 143 l 1
 522 143 l 1
EndSplineSet
EndChar

StartChar: glyph133
Encoding: 389 983205 133
Width: 1000
VWidth: 0
Flags: W
HStem: 123 20<287 522> 327 20<260 693.107>
LayerCount: 2
Fore
SplineSet
340.5 767.5 m 1
 370.5 753 l 1
 401 734.5 l 1
 432.5 712.5 l 1
 465 686.5 l 1
 498.5 657.5 l 1
 514.354259323 642.345193295 l 1
 520 647.5 l 1
 555 678.5 l 1
 590 709.5 l 1
 626 740 l 1
 662.5 769.5 l 1
 669 763 l 1
 639.5 726.5 l 1
 609 690.5 l 1
 578 655.5 l 1
 547 620.5 l 1
 542.293103448 615.344827586 l 1
 568 590 l 1
 604.5 551 l 1
 641.5 509.5 l 1
 680 464.5 l 1
 686 442.5 l 1
 675 422.5 l 1
 653 416.5 l 1
 633 427.5 l 1
 597.5 473 l 1
 563.5 516 l 1
 530.5 556 l 1
 510.191067831 580.177300201 l 1
 484.5 552 l 1
 453 518 l 1
 421.5 484 l 1
 390 450 l 1
 372.395860285 431.278137128 l 1
 376 413 l 1
 358.5 416.5 l 1
 309 452 l 1
 316 459 l 1
 349.5 490.5 l 1
 383.5 522 l 1
 417.5 553.5 l 1
 451.5 585 l 1
 481.823340471 612.647751606 l 1
 468.5 627.5 l 1
 439 659 l 1
 411 687.5 l 1
 384.5 713.5 l 1
 359.5 737.5 l 1
 335.5 760 l 1
 340.5 767.5 l 1
522 143 m 1
 572 193 l 1
 624.742152466 149.048206278 l 1
 635 171 l 1
 658 227 l 1
 679.5 285.5 l 1
 693.106557377 327 l 1
 260 327 l 1
 260 347 l 1
 698 347 l 1
 728 372 l 1
 783 327 l 1
 758 312 l 1
 748.49486166 308.039525692 l 1
 732.5 265.5 l 1
 707 206 l 1
 680 149.5 l 1
 651.5 96 l 1
 621 45 l 1
 588.5 -2.5 l 1
 554.5 -47.5 l 1
 518.5 -89 l 1
 480 -127 l 1
 440 -161 l 1
 433.5 -154.5 l 1
 466 -114 l 1
 497.5 -72 l 1
 528 -28 l 1
 556.5 18.5 l 1
 584 67 l 1
 610 117.5 l 1
 612.570093458 123 l 1
 287 123 l 1
 287 143 l 1
 522 143 l 1
EndSplineSet
EndChar

StartChar: glyph134
Encoding: 390 983206 134
Width: 1000
VWidth: 0
Flags: W
HStem: 123 20<287 522> 327 20<260 693.107> 590 20<334 556>
LayerCount: 2
Fore
SplineSet
522 143 m 1
 572 193 l 1
 624.742152466 149.048206278 l 1
 635 171 l 1
 658 227 l 1
 679.5 285.5 l 1
 693.106557377 327 l 1
 260 327 l 1
 260 347 l 1
 698 347 l 1
 728 372 l 1
 783 327 l 1
 758 312 l 1
 748.49486166 308.039525692 l 1
 732.5 265.5 l 1
 707 206 l 1
 680 149.5 l 1
 651.5 96 l 1
 621 45 l 1
 588.5 -2.5 l 1
 554.5 -47.5 l 1
 518.5 -89 l 1
 480 -127 l 1
 440 -161 l 1
 433.5 -154.5 l 1
 466 -114 l 1
 497.5 -72 l 1
 528 -28 l 1
 556.5 18.5 l 1
 584 67 l 1
 610 117.5 l 1
 612.570093458 123 l 1
 287 123 l 1
 287 143 l 1
 522 143 l 1
556 610 m 1
 606 660 l 1
 666 610 l 1
 666 590 l 1
 334 590 l 1
 334 610 l 1
 556 610 l 1
EndSplineSet
EndChar

StartChar: glyph135
Encoding: 391 983207 135
Width: 1000
VWidth: 0
Flags: W
VStem: 251 60<-76.3263 304>
LayerCount: 2
Fore
SplineSet
298.142857143 -156.857142857 m 1
 271 -184 l 1
 251 -164 l 1
 221 -134 l 1
 251 -104 l 1
 251 333 l 1
 311 323 l 1
 326 313 l 1
 311 304 l 1
 311 -76.3263157895 l 1
 357.5 -45 l 1
 405.5 -13.5 l 1
 454 17 l 1
 503.5 47 l 1
 553 75.5 l 1
 603 103.5 l 1
 654 130.5 l 1
 706 155.5 l 1
 758.5 179 l 1
 763 171.5 l 1
 715.5 139 l 1
 667.5 107 l 1
 620 75.5 l 1
 573 43.5 l 1
 526 11 l 1
 480 -21.5 l 1
 434 -55 l 1
 388.5 -88.5 l 1
 343.5 -123 l 1
 299 -158 l 1
 298.142857143 -156.857142857 l 1
372.395860285 431.278137128 m 1
 376 413 l 1
 358.5 416.5 l 1
 309 452 l 1
 316 459 l 1
 349.5 490.5 l 1
 383.5 522 l 1
 417.5 553.5 l 1
 451.5 585 l 1
 485.5 616 l 1
 520 647.5 l 1
 555 678.5 l 1
 590 709.5 l 1
 626 740 l 1
 662.5 769.5 l 1
 669 763 l 1
 639.5 726.5 l 1
 609 690.5 l 1
 578 655.5 l 1
 547 620.5 l 1
 515.5 586 l 1
 484.5 552 l 1
 453 518 l 1
 421.5 484 l 1
 390 450 l 1
 372.395860285 431.278137128 l 1
EndSplineSet
EndChar

StartChar: glyph136
Encoding: 392 983208 136
Width: 1000
VWidth: 0
Flags: W
VStem: 251 60<323.674 704>
LayerCount: 2
Fore
SplineSet
298.142857143 243.142857143 m 1
 271 216 l 1
 251 236 l 1
 221 266 l 1
 251 296 l 1
 251 733 l 1
 311 723 l 1
 326 713 l 1
 311 704 l 1
 311 323.673684211 l 1
 357.5 355 l 1
 405.5 386.5 l 1
 454 417 l 1
 503.5 447 l 1
 553 475.5 l 1
 603 503.5 l 1
 654 530.5 l 1
 706 555.5 l 1
 758.5 579 l 1
 763 571.5 l 1
 715.5 539 l 1
 667.5 507 l 1
 620 475.5 l 1
 573 443.5 l 1
 526 411 l 1
 480 378.5 l 1
 434 345 l 1
 388.5 311.5 l 1
 343.5 277 l 1
 299 242 l 1
 298.142857143 243.142857143 l 1
316 141.5 m 1
 314.5 143 l 1
 358.5 184 l 1
 376 187.5 l 1
 371.693972179 169.968315301 l 1
 390 150.5 l 1
 421.5 116.5 l 1
 453 82.5 l 1
 484.5 48.5 l 1
 515.5 14.5 l 1
 547 -20 l 1
 578 -55 l 1
 609 -90 l 1
 639.5 -126 l 1
 669 -162.5 l 1
 662.5 -169 l 1
 626 -139.5 l 1
 590 -109 l 1
 555 -78 l 1
 520 -47 l 1
 485.5 -15.5 l 1
 451.5 15.5 l 1
 417.5 47 l 1
 383.5 78.5 l 1
 349.5 110 l 1
 319.59857375 138.116266474 l 1
 319.5 138 l 1
 316 141.5 l 1
EndSplineSet
EndChar

StartChar: glyph137
Encoding: 393 983209 137
Width: 1000
VWidth: 0
Flags: W
HStem: -10 20<334 556>
VStem: 251 60<323.674 704>
LayerCount: 2
Fore
SplineSet
298.142857143 243.142857143 m 1
 271 216 l 1
 251 236 l 1
 221 266 l 1
 251 296 l 1
 251 733 l 1
 311 723 l 1
 326 713 l 1
 311 704 l 1
 311 323.673684211 l 1
 357.5 355 l 1
 405.5 386.5 l 1
 454 417 l 1
 503.5 447 l 1
 553 475.5 l 1
 603 503.5 l 1
 654 530.5 l 1
 706 555.5 l 1
 758.5 579 l 1
 763 571.5 l 1
 715.5 539 l 1
 667.5 507 l 1
 620 475.5 l 1
 573 443.5 l 1
 526 411 l 1
 480 378.5 l 1
 434 345 l 1
 388.5 311.5 l 1
 343.5 277 l 1
 299 242 l 1
 298.142857143 243.142857143 l 1
556 10 m 1
 606 60 l 1
 666 10 l 1
 666 -10 l 1
 334 -10 l 1
 334 10 l 1
 556 10 l 1
EndSplineSet
EndChar

StartChar: glyph138
Encoding: 394 983210 138
Width: 1000
VWidth: 0
Flags: W
VStem: 251 60<323.674 704>
LayerCount: 2
Fore
SplineSet
298.142857143 243.142857143 m 1
 271 216 l 1
 251 236 l 1
 221 266 l 1
 251 296 l 1
 251 733 l 1
 311 723 l 1
 326 713 l 1
 311 704 l 1
 311 323.673684211 l 1
 357.5 355 l 1
 405.5 386.5 l 1
 454 417 l 1
 503.5 447 l 1
 553 475.5 l 1
 603 503.5 l 1
 654 530.5 l 1
 706 555.5 l 1
 758.5 579 l 1
 763 571.5 l 1
 715.5 539 l 1
 667.5 507 l 1
 620 475.5 l 1
 573 443.5 l 1
 526 411 l 1
 480 378.5 l 1
 434 345 l 1
 388.5 311.5 l 1
 343.5 277 l 1
 299 242 l 1
 298.142857143 243.142857143 l 1
641 184 m 1
 642.5 185.5 l 1
 683.5 141.5 l 1
 687 124 l 1
 669.468315301 128.306027821 l 1
 650 110 l 1
 616 78.5 l 1
 582 47 l 1
 548 15.5 l 1
 514 -15.5 l 1
 479.5 -47 l 1
 444.5 -78 l 1
 409.5 -109 l 1
 373.5 -139.5 l 1
 337 -169 l 1
 330.5 -162.5 l 1
 360 -126 l 1
 390.5 -90 l 1
 421.5 -55 l 1
 452.5 -20 l 1
 484 14.5 l 1
 515 48.5 l 1
 546.5 82.5 l 1
 578 116.5 l 1
 609.5 150.5 l 1
 637.616266474 180.40142625 l 1
 637.5 180.5 l 1
 641 184 l 1
EndSplineSet
EndChar

StartChar: glyph139
Encoding: 395 983211 139
Width: 1000
VWidth: 0
Flags: W
VStem: 251 60<-76.3263 304>
LayerCount: 2
Fore
SplineSet
340.5 767.5 m 1
 370.5 753 l 1
 401 734.5 l 1
 432.5 712.5 l 1
 465 686.5 l 1
 498.5 657.5 l 1
 532.5 625 l 1
 568 590 l 1
 604.5 551 l 1
 641.5 509.5 l 1
 680 464.5 l 1
 686 442.5 l 1
 675 422.5 l 1
 653 416.5 l 1
 633 427.5 l 1
 597.5 473 l 1
 563.5 516 l 1
 530.5 556 l 1
 499 593.5 l 1
 468.5 627.5 l 1
 439 659 l 1
 411 687.5 l 1
 384.5 713.5 l 1
 359.5 737.5 l 1
 335.5 760 l 1
 340.5 767.5 l 1
298.142857143 -156.857142857 m 1
 271 -184 l 1
 251 -164 l 1
 221 -134 l 1
 251 -104 l 1
 251 333 l 1
 311 323 l 1
 326 313 l 1
 311 304 l 1
 311 -76.3263157895 l 1
 357.5 -45 l 1
 405.5 -13.5 l 1
 454 17 l 1
 503.5 47 l 1
 553 75.5 l 1
 603 103.5 l 1
 654 130.5 l 1
 706 155.5 l 1
 758.5 179 l 1
 763 171.5 l 1
 715.5 139 l 1
 667.5 107 l 1
 620 75.5 l 1
 573 43.5 l 1
 526 11 l 1
 480 -21.5 l 1
 434 -55 l 1
 388.5 -88.5 l 1
 343.5 -123 l 1
 299 -158 l 1
 298.142857143 -156.857142857 l 1
EndSplineSet
EndChar

StartChar: glyph140
Encoding: 396 983212 140
Width: 1000
VWidth: 0
Flags: W
VStem: 251 60<-76.3263 304>
LayerCount: 2
Fore
SplineSet
340.5 767.5 m 1
 370.5 753 l 1
 401 734.5 l 1
 432.5 712.5 l 1
 465 686.5 l 1
 498.5 657.5 l 1
 514.354259323 642.345193295 l 1
 520 647.5 l 1
 555 678.5 l 1
 590 709.5 l 1
 626 740 l 1
 662.5 769.5 l 1
 669 763 l 1
 639.5 726.5 l 1
 609 690.5 l 1
 578 655.5 l 1
 547 620.5 l 1
 542.293103448 615.344827586 l 1
 568 590 l 1
 604.5 551 l 1
 641.5 509.5 l 1
 680 464.5 l 1
 686 442.5 l 1
 675 422.5 l 1
 653 416.5 l 1
 633 427.5 l 1
 597.5 473 l 1
 563.5 516 l 1
 530.5 556 l 1
 510.191067831 580.177300201 l 1
 484.5 552 l 1
 453 518 l 1
 421.5 484 l 1
 390 450 l 1
 372.395860285 431.278137128 l 1
 376 413 l 1
 358.5 416.5 l 1
 309 452 l 1
 316 459 l 1
 349.5 490.5 l 1
 383.5 522 l 1
 417.5 553.5 l 1
 451.5 585 l 1
 481.823340471 612.647751606 l 1
 468.5 627.5 l 1
 439 659 l 1
 411 687.5 l 1
 384.5 713.5 l 1
 359.5 737.5 l 1
 335.5 760 l 1
 340.5 767.5 l 1
298.142857143 -156.857142857 m 1
 271 -184 l 1
 251 -164 l 1
 221 -134 l 1
 251 -104 l 1
 251 333 l 1
 311 323 l 1
 326 313 l 1
 311 304 l 1
 311 -76.3263157895 l 1
 357.5 -45 l 1
 405.5 -13.5 l 1
 454 17 l 1
 503.5 47 l 1
 553 75.5 l 1
 603 103.5 l 1
 654 130.5 l 1
 706 155.5 l 1
 758.5 179 l 1
 763 171.5 l 1
 715.5 139 l 1
 667.5 107 l 1
 620 75.5 l 1
 573 43.5 l 1
 526 11 l 1
 480 -21.5 l 1
 434 -55 l 1
 388.5 -88.5 l 1
 343.5 -123 l 1
 299 -158 l 1
 298.142857143 -156.857142857 l 1
EndSplineSet
EndChar

StartChar: glyph141
Encoding: 397 983213 141
Width: 1000
VWidth: 0
Flags: W
HStem: 590 20<334 556>
VStem: 251 60<-76.3263 304>
LayerCount: 2
Fore
SplineSet
298.142857143 -156.857142857 m 1
 271 -184 l 1
 251 -164 l 1
 221 -134 l 1
 251 -104 l 1
 251 333 l 1
 311 323 l 1
 326 313 l 1
 311 304 l 1
 311 -76.3263157895 l 1
 357.5 -45 l 1
 405.5 -13.5 l 1
 454 17 l 1
 503.5 47 l 1
 553 75.5 l 1
 603 103.5 l 1
 654 130.5 l 1
 706 155.5 l 1
 758.5 179 l 1
 763 171.5 l 1
 715.5 139 l 1
 667.5 107 l 1
 620 75.5 l 1
 573 43.5 l 1
 526 11 l 1
 480 -21.5 l 1
 434 -55 l 1
 388.5 -88.5 l 1
 343.5 -123 l 1
 299 -158 l 1
 298.142857143 -156.857142857 l 1
556 610 m 1
 606 660 l 1
 666 610 l 1
 666 590 l 1
 334 590 l 1
 334 610 l 1
 556 610 l 1
EndSplineSet
EndChar

StartChar: glyph142
Encoding: 398 983214 142
Width: 1000
VWidth: 0
Flags: W
HStem: 321 20<248 572>
VStem: 572 60<-50.1471 301>
LayerCount: 2
Fore
SplineSet
624 -163.5 m 1
 567.5 -140 l 1
 572 -133.045454545 l 1
 572 321 l 1
 248 321 l 1
 248 341 l 1
 572 341 l 1
 602 366 l 1
 657 321 l 1
 632 301 l 1
 632 -50.1470588235 l 1
 644.5 -32.5 l 1
 662.5 -6.5 l 1
 682.5 22 l 1
 704.5 52 l 1
 728 84 l 1
 754 117.5 l 1
 761.5 113 l 1
 744.5 74.5 l 1
 727.5 38.5 l 1
 711 5 l 1
 695 -26 l 1
 680.5 -54.5 l 1
 667 -80.5 l 1
 654.5 -104.5 l 1
 643 -126.5 l 1
 633.674698795 -144.684337349 l 1
 642 -163 l 1
 624 -163.5 l 1
372.395860285 431.278137128 m 1
 376 413 l 1
 358.5 416.5 l 1
 309 452 l 1
 316 459 l 1
 349.5 490.5 l 1
 383.5 522 l 1
 417.5 553.5 l 1
 451.5 585 l 1
 485.5 616 l 1
 520 647.5 l 1
 555 678.5 l 1
 590 709.5 l 1
 626 740 l 1
 662.5 769.5 l 1
 669 763 l 1
 639.5 726.5 l 1
 609 690.5 l 1
 578 655.5 l 1
 547 620.5 l 1
 515.5 586 l 1
 484.5 552 l 1
 453 518 l 1
 421.5 484 l 1
 390 450 l 1
 372.395860285 431.278137128 l 1
EndSplineSet
EndChar

StartChar: glyph143
Encoding: 399 983215 143
Width: 1000
VWidth: 0
Flags: W
HStem: 721 20<248 572>
VStem: 572 60<349.853 701>
LayerCount: 2
Fore
SplineSet
624 236.5 m 1
 567.5 260 l 1
 572 266.954545455 l 1
 572 721 l 1
 248 721 l 1
 248 741 l 1
 572 741 l 1
 602 766 l 1
 657 721 l 1
 632 701 l 1
 632 349.852941176 l 1
 644.5 367.5 l 1
 662.5 393.5 l 1
 682.5 422 l 1
 704.5 452 l 1
 728 484 l 1
 754 517.5 l 1
 761.5 513 l 1
 744.5 474.5 l 1
 727.5 438.5 l 1
 711 405 l 1
 695 374 l 1
 680.5 345.5 l 1
 667 319.5 l 1
 654.5 295.5 l 1
 643 273.5 l 1
 633.674698795 255.315662651 l 1
 642 237 l 1
 624 236.5 l 1
316 141.5 m 1
 314.5 143 l 1
 358.5 184 l 1
 376 187.5 l 1
 371.693972179 169.968315301 l 1
 390 150.5 l 1
 421.5 116.5 l 1
 453 82.5 l 1
 484.5 48.5 l 1
 515.5 14.5 l 1
 547 -20 l 1
 578 -55 l 1
 609 -90 l 1
 639.5 -126 l 1
 669 -162.5 l 1
 662.5 -169 l 1
 626 -139.5 l 1
 590 -109 l 1
 555 -78 l 1
 520 -47 l 1
 485.5 -15.5 l 1
 451.5 15.5 l 1
 417.5 47 l 1
 383.5 78.5 l 1
 349.5 110 l 1
 319.59857375 138.116266474 l 1
 319.5 138 l 1
 316 141.5 l 1
EndSplineSet
EndChar

StartChar: glyph144
Encoding: 400 983216 144
Width: 1000
VWidth: 0
Flags: W
HStem: -10 20<334 556> 721 20<248 572>
VStem: 572 60<349.853 701>
LayerCount: 2
Fore
SplineSet
624 236.5 m 1
 567.5 260 l 1
 572 266.954545455 l 1
 572 721 l 1
 248 721 l 1
 248 741 l 1
 572 741 l 1
 602 766 l 1
 657 721 l 1
 632 701 l 1
 632 349.852941176 l 1
 644.5 367.5 l 1
 662.5 393.5 l 1
 682.5 422 l 1
 704.5 452 l 1
 728 484 l 1
 754 517.5 l 1
 761.5 513 l 1
 744.5 474.5 l 1
 727.5 438.5 l 1
 711 405 l 1
 695 374 l 1
 680.5 345.5 l 1
 667 319.5 l 1
 654.5 295.5 l 1
 643 273.5 l 1
 633.674698795 255.315662651 l 1
 642 237 l 1
 624 236.5 l 1
556 10 m 1
 606 60 l 1
 666 10 l 1
 666 -10 l 1
 334 -10 l 1
 334 10 l 1
 556 10 l 1
EndSplineSet
EndChar

StartChar: glyph145
Encoding: 401 983217 145
Width: 1000
VWidth: 0
Flags: W
HStem: 721 20<248 572>
VStem: 572 60<349.853 701>
LayerCount: 2
Fore
SplineSet
624 236.5 m 1
 567.5 260 l 1
 572 266.954545455 l 1
 572 721 l 1
 248 721 l 1
 248 741 l 1
 572 741 l 1
 602 766 l 1
 657 721 l 1
 632 701 l 1
 632 349.852941176 l 1
 644.5 367.5 l 1
 662.5 393.5 l 1
 682.5 422 l 1
 704.5 452 l 1
 728 484 l 1
 754 517.5 l 1
 761.5 513 l 1
 744.5 474.5 l 1
 727.5 438.5 l 1
 711 405 l 1
 695 374 l 1
 680.5 345.5 l 1
 667 319.5 l 1
 654.5 295.5 l 1
 643 273.5 l 1
 633.674698795 255.315662651 l 1
 642 237 l 1
 624 236.5 l 1
641 184 m 1
 642.5 185.5 l 1
 683.5 141.5 l 1
 687 124 l 1
 669.468315301 128.306027821 l 1
 650 110 l 1
 616 78.5 l 1
 582 47 l 1
 548 15.5 l 1
 514 -15.5 l 1
 479.5 -47 l 1
 444.5 -78 l 1
 409.5 -109 l 1
 373.5 -139.5 l 1
 337 -169 l 1
 330.5 -162.5 l 1
 360 -126 l 1
 390.5 -90 l 1
 421.5 -55 l 1
 452.5 -20 l 1
 484 14.5 l 1
 515 48.5 l 1
 546.5 82.5 l 1
 578 116.5 l 1
 609.5 150.5 l 1
 637.616266474 180.40142625 l 1
 637.5 180.5 l 1
 641 184 l 1
EndSplineSet
EndChar

StartChar: glyph146
Encoding: 402 983218 146
Width: 1000
VWidth: 0
Flags: W
HStem: 321 20<248 572>
VStem: 572 60<-50.1471 301>
LayerCount: 2
Fore
SplineSet
340.5 767.5 m 1
 370.5 753 l 1
 401 734.5 l 1
 432.5 712.5 l 1
 465 686.5 l 1
 498.5 657.5 l 1
 532.5 625 l 1
 568 590 l 1
 604.5 551 l 1
 641.5 509.5 l 1
 680 464.5 l 1
 686 442.5 l 1
 675 422.5 l 1
 653 416.5 l 1
 633 427.5 l 1
 597.5 473 l 1
 563.5 516 l 1
 530.5 556 l 1
 499 593.5 l 1
 468.5 627.5 l 1
 439 659 l 1
 411 687.5 l 1
 384.5 713.5 l 1
 359.5 737.5 l 1
 335.5 760 l 1
 340.5 767.5 l 1
624 -163.5 m 1
 567.5 -140 l 1
 572 -133.045454545 l 1
 572 321 l 1
 248 321 l 1
 248 341 l 1
 572 341 l 1
 602 366 l 1
 657 321 l 1
 632 301 l 1
 632 -50.1470588235 l 1
 644.5 -32.5 l 1
 662.5 -6.5 l 1
 682.5 22 l 1
 704.5 52 l 1
 728 84 l 1
 754 117.5 l 1
 761.5 113 l 1
 744.5 74.5 l 1
 727.5 38.5 l 1
 711 5 l 1
 695 -26 l 1
 680.5 -54.5 l 1
 667 -80.5 l 1
 654.5 -104.5 l 1
 643 -126.5 l 1
 633.674698795 -144.684337349 l 1
 642 -163 l 1
 624 -163.5 l 1
EndSplineSet
EndChar

StartChar: glyph147
Encoding: 403 983219 147
Width: 1000
VWidth: 0
Flags: W
HStem: 321 20<248 572>
VStem: 572 60<-50.1471 301>
LayerCount: 2
Fore
SplineSet
340.5 767.5 m 1
 370.5 753 l 1
 401 734.5 l 1
 432.5 712.5 l 1
 465 686.5 l 1
 498.5 657.5 l 1
 514.354259323 642.345193295 l 1
 520 647.5 l 1
 555 678.5 l 1
 590 709.5 l 1
 626 740 l 1
 662.5 769.5 l 1
 669 763 l 1
 639.5 726.5 l 1
 609 690.5 l 1
 578 655.5 l 1
 547 620.5 l 1
 542.293103448 615.344827586 l 1
 568 590 l 1
 604.5 551 l 1
 641.5 509.5 l 1
 680 464.5 l 1
 686 442.5 l 1
 675 422.5 l 1
 653 416.5 l 1
 633 427.5 l 1
 597.5 473 l 1
 563.5 516 l 1
 530.5 556 l 1
 510.191067831 580.177300201 l 1
 484.5 552 l 1
 453 518 l 1
 421.5 484 l 1
 390 450 l 1
 372.395860285 431.278137128 l 1
 376 413 l 1
 358.5 416.5 l 1
 309 452 l 1
 316 459 l 1
 349.5 490.5 l 1
 383.5 522 l 1
 417.5 553.5 l 1
 451.5 585 l 1
 481.823340471 612.647751606 l 1
 468.5 627.5 l 1
 439 659 l 1
 411 687.5 l 1
 384.5 713.5 l 1
 359.5 737.5 l 1
 335.5 760 l 1
 340.5 767.5 l 1
624 -163.5 m 1
 567.5 -140 l 1
 572 -133.045454545 l 1
 572 321 l 1
 248 321 l 1
 248 341 l 1
 572 341 l 1
 602 366 l 1
 657 321 l 1
 632 301 l 1
 632 -50.1470588235 l 1
 644.5 -32.5 l 1
 662.5 -6.5 l 1
 682.5 22 l 1
 704.5 52 l 1
 728 84 l 1
 754 117.5 l 1
 761.5 113 l 1
 744.5 74.5 l 1
 727.5 38.5 l 1
 711 5 l 1
 695 -26 l 1
 680.5 -54.5 l 1
 667 -80.5 l 1
 654.5 -104.5 l 1
 643 -126.5 l 1
 633.674698795 -144.684337349 l 1
 642 -163 l 1
 624 -163.5 l 1
EndSplineSet
EndChar

StartChar: glyph148
Encoding: 404 983220 148
Width: 1000
VWidth: 0
Flags: W
HStem: 321 20<248 572> 590 20<334 556>
VStem: 572 60<-50.1471 301>
LayerCount: 2
Fore
SplineSet
624 -163.5 m 1
 567.5 -140 l 1
 572 -133.045454545 l 1
 572 321 l 1
 248 321 l 1
 248 341 l 1
 572 341 l 1
 602 366 l 1
 657 321 l 1
 632 301 l 1
 632 -50.1470588235 l 1
 644.5 -32.5 l 1
 662.5 -6.5 l 1
 682.5 22 l 1
 704.5 52 l 1
 728 84 l 1
 754 117.5 l 1
 761.5 113 l 1
 744.5 74.5 l 1
 727.5 38.5 l 1
 711 5 l 1
 695 -26 l 1
 680.5 -54.5 l 1
 667 -80.5 l 1
 654.5 -104.5 l 1
 643 -126.5 l 1
 633.674698795 -144.684337349 l 1
 642 -163 l 1
 624 -163.5 l 1
556 610 m 1
 606 660 l 1
 666 610 l 1
 666 590 l 1
 334 590 l 1
 334 610 l 1
 556 610 l 1
EndSplineSet
EndChar

StartChar: glyph149
Encoding: 405 983221 149
Width: 1000
VWidth: 0
Flags: W
HStem: 327 20<311 336.183 346.894 639.447>
LayerCount: 2
Fore
SplineSet
720.5 -173 m 1
 666 -143.5 l 1
 615 -109.5 l 1
 567 -70.5 l 1
 523 -27 l 1
 498.900619692 1.21390865274 l 1
 497 -1 l 1
 449 -47.5 l 1
 399 -87.5 l 1
 347 -120.5 l 1
 293 -146.5 l 1
 237.5 -165 l 1
 234 -156.5 l 1
 284.5 -129.5 l 1
 332.5 -98 l 1
 378.5 -61.5 l 1
 423 -20 l 1
 465 27.5 l 1
 471.542002935 35.9803741746 l 1
 445 74 l 1
 411.5 131.5 l 1
 382 193.5 l 1
 356 260 l 1
 336.183098592 327 l 1
 311 327 l 1
 311 347 l 1
 647 347 l 1
 648.773195876 348.47766323 l 1
 649 349 l 1
 649.265232975 348.887694146 l 1
 677 372 l 1
 732 327 l 1
 707 312 l 1
 695.686868687 307.286195286 l 1
 667 248 l 1
 628 176.5 l 1
 586.5 111 l 1
 542.5 52 l 1
 530.579089128 38.1141038198 l 1
 559 9 l 1
 602.5 -28.5 l 1
 648.5 -61 l 1
 696.5 -89 l 1
 747 -112.5 l 1
 777.5 -126 l 1
 720.5 -173 l 1
500.041180967 72.9237531053 m 1
 505.5 80 l 1
 544 138.5 l 1
 581 203 l 1
 616 273 l 1
 639.447368421 327 l 1
 346.893939394 327 l 1
 375.5 268 l 1
 408 206.5 l 1
 442.5 149.5 l 1
 479.5 98 l 1
 500.041180967 72.9237531053 l 1
372.395860285 431.278137128 m 1
 376 413 l 1
 358.5 416.5 l 1
 309 452 l 1
 316 459 l 1
 349.5 490.5 l 1
 383.5 522 l 1
 417.5 553.5 l 1
 451.5 585 l 1
 485.5 616 l 1
 520 647.5 l 1
 555 678.5 l 1
 590 709.5 l 1
 626 740 l 1
 662.5 769.5 l 1
 669 763 l 1
 639.5 726.5 l 1
 609 690.5 l 1
 578 655.5 l 1
 547 620.5 l 1
 515.5 586 l 1
 484.5 552 l 1
 453 518 l 1
 421.5 484 l 1
 390 450 l 1
 372.395860285 431.278137128 l 1
EndSplineSet
EndChar

StartChar: glyph150
Encoding: 406 983222 150
Width: 1000
VWidth: 0
Flags: W
HStem: 727 20<311 336.183 346.894 639.447>
LayerCount: 2
Fore
SplineSet
720.5 227 m 1
 666 256.5 l 1
 615 290.5 l 1
 567 329.5 l 1
 523 373 l 1
 498.900619692 401.213908653 l 1
 497 399 l 1
 449 352.5 l 1
 399 312.5 l 1
 347 279.5 l 1
 293 253.5 l 1
 237.5 235 l 1
 234 243.5 l 1
 284.5 270.5 l 1
 332.5 302 l 1
 378.5 338.5 l 1
 423 380 l 1
 465 427.5 l 1
 471.542002935 435.980374175 l 1
 445 474 l 1
 411.5 531.5 l 1
 382 593.5 l 1
 356 660 l 1
 336.183098592 727 l 1
 311 727 l 1
 311 747 l 1
 647 747 l 1
 648.773195876 748.47766323 l 1
 649 749 l 1
 649.265232975 748.887694146 l 1
 677 772 l 1
 732 727 l 1
 707 712 l 1
 695.686868687 707.286195286 l 1
 667 648 l 1
 628 576.5 l 1
 586.5 511 l 1
 542.5 452 l 1
 530.579089128 438.11410382 l 1
 559 409 l 1
 602.5 371.5 l 1
 648.5 339 l 1
 696.5 311 l 1
 747 287.5 l 1
 777.5 274 l 1
 720.5 227 l 1
500.041180967 472.923753105 m 1
 505.5 480 l 1
 544 538.5 l 1
 581 603 l 1
 616 673 l 1
 639.447368421 727 l 1
 346.893939394 727 l 1
 375.5 668 l 1
 408 606.5 l 1
 442.5 549.5 l 1
 479.5 498 l 1
 500.041180967 472.923753105 l 1
316 141.5 m 1
 314.5 143 l 1
 358.5 184 l 1
 376 187.5 l 1
 371.693972179 169.968315301 l 1
 390 150.5 l 1
 421.5 116.5 l 1
 453 82.5 l 1
 484.5 48.5 l 1
 515.5 14.5 l 1
 547 -20 l 1
 578 -55 l 1
 609 -90 l 1
 639.5 -126 l 1
 669 -162.5 l 1
 662.5 -169 l 1
 626 -139.5 l 1
 590 -109 l 1
 555 -78 l 1
 520 -47 l 1
 485.5 -15.5 l 1
 451.5 15.5 l 1
 417.5 47 l 1
 383.5 78.5 l 1
 349.5 110 l 1
 319.59857375 138.116266474 l 1
 319.5 138 l 1
 316 141.5 l 1
EndSplineSet
EndChar

StartChar: glyph151
Encoding: 407 983223 151
Width: 1000
VWidth: 0
Flags: W
HStem: -10 20<334 556> 727 20<311 336.183 346.894 639.447>
LayerCount: 2
Fore
SplineSet
720.5 227 m 1
 666 256.5 l 1
 615 290.5 l 1
 567 329.5 l 1
 523 373 l 1
 498.900619692 401.213908653 l 1
 497 399 l 1
 449 352.5 l 1
 399 312.5 l 1
 347 279.5 l 1
 293 253.5 l 1
 237.5 235 l 1
 234 243.5 l 1
 284.5 270.5 l 1
 332.5 302 l 1
 378.5 338.5 l 1
 423 380 l 1
 465 427.5 l 1
 471.542002935 435.980374175 l 1
 445 474 l 1
 411.5 531.5 l 1
 382 593.5 l 1
 356 660 l 1
 336.183098592 727 l 1
 311 727 l 1
 311 747 l 1
 647 747 l 1
 648.773195876 748.47766323 l 1
 649 749 l 1
 649.265232975 748.887694146 l 1
 677 772 l 1
 732 727 l 1
 707 712 l 1
 695.686868687 707.286195286 l 1
 667 648 l 1
 628 576.5 l 1
 586.5 511 l 1
 542.5 452 l 1
 530.579089128 438.11410382 l 1
 559 409 l 1
 602.5 371.5 l 1
 648.5 339 l 1
 696.5 311 l 1
 747 287.5 l 1
 777.5 274 l 1
 720.5 227 l 1
500.041180967 472.923753105 m 1
 505.5 480 l 1
 544 538.5 l 1
 581 603 l 1
 616 673 l 1
 639.447368421 727 l 1
 346.893939394 727 l 1
 375.5 668 l 1
 408 606.5 l 1
 442.5 549.5 l 1
 479.5 498 l 1
 500.041180967 472.923753105 l 1
556 10 m 1
 606 60 l 1
 666 10 l 1
 666 -10 l 1
 334 -10 l 1
 334 10 l 1
 556 10 l 1
EndSplineSet
EndChar

StartChar: glyph152
Encoding: 408 983224 152
Width: 1000
VWidth: 0
Flags: W
HStem: 727 20<311 336.183 346.894 639.447>
LayerCount: 2
Fore
SplineSet
720.5 227 m 1
 666 256.5 l 1
 615 290.5 l 1
 567 329.5 l 1
 523 373 l 1
 498.900619692 401.213908653 l 1
 497 399 l 1
 449 352.5 l 1
 399 312.5 l 1
 347 279.5 l 1
 293 253.5 l 1
 237.5 235 l 1
 234 243.5 l 1
 284.5 270.5 l 1
 332.5 302 l 1
 378.5 338.5 l 1
 423 380 l 1
 465 427.5 l 1
 471.542002935 435.980374175 l 1
 445 474 l 1
 411.5 531.5 l 1
 382 593.5 l 1
 356 660 l 1
 336.183098592 727 l 1
 311 727 l 1
 311 747 l 1
 647 747 l 1
 648.773195876 748.47766323 l 1
 649 749 l 1
 649.265232975 748.887694146 l 1
 677 772 l 1
 732 727 l 1
 707 712 l 1
 695.686868687 707.286195286 l 1
 667 648 l 1
 628 576.5 l 1
 586.5 511 l 1
 542.5 452 l 1
 530.579089128 438.11410382 l 1
 559 409 l 1
 602.5 371.5 l 1
 648.5 339 l 1
 696.5 311 l 1
 747 287.5 l 1
 777.5 274 l 1
 720.5 227 l 1
500.041180967 472.923753105 m 1
 505.5 480 l 1
 544 538.5 l 1
 581 603 l 1
 616 673 l 1
 639.447368421 727 l 1
 346.893939394 727 l 1
 375.5 668 l 1
 408 606.5 l 1
 442.5 549.5 l 1
 479.5 498 l 1
 500.041180967 472.923753105 l 1
641 184 m 1
 642.5 185.5 l 1
 683.5 141.5 l 1
 687 124 l 1
 669.468315301 128.306027821 l 1
 650 110 l 1
 616 78.5 l 1
 582 47 l 1
 548 15.5 l 1
 514 -15.5 l 1
 479.5 -47 l 1
 444.5 -78 l 1
 409.5 -109 l 1
 373.5 -139.5 l 1
 337 -169 l 1
 330.5 -162.5 l 1
 360 -126 l 1
 390.5 -90 l 1
 421.5 -55 l 1
 452.5 -20 l 1
 484 14.5 l 1
 515 48.5 l 1
 546.5 82.5 l 1
 578 116.5 l 1
 609.5 150.5 l 1
 637.616266474 180.40142625 l 1
 637.5 180.5 l 1
 641 184 l 1
EndSplineSet
EndChar

StartChar: glyph153
Encoding: 409 983225 153
Width: 1000
VWidth: 0
Flags: W
HStem: 327 20<311 336.183 346.894 639.447>
LayerCount: 2
Fore
SplineSet
340.5 767.5 m 1
 370.5 753 l 1
 401 734.5 l 1
 432.5 712.5 l 1
 465 686.5 l 1
 498.5 657.5 l 1
 532.5 625 l 1
 568 590 l 1
 604.5 551 l 1
 641.5 509.5 l 1
 680 464.5 l 1
 686 442.5 l 1
 675 422.5 l 1
 653 416.5 l 1
 633 427.5 l 1
 597.5 473 l 1
 563.5 516 l 1
 530.5 556 l 1
 499 593.5 l 1
 468.5 627.5 l 1
 439 659 l 1
 411 687.5 l 1
 384.5 713.5 l 1
 359.5 737.5 l 1
 335.5 760 l 1
 340.5 767.5 l 1
720.5 -173 m 1
 666 -143.5 l 1
 615 -109.5 l 1
 567 -70.5 l 1
 523 -27 l 1
 498.900619692 1.21390865274 l 1
 497 -1 l 1
 449 -47.5 l 1
 399 -87.5 l 1
 347 -120.5 l 1
 293 -146.5 l 1
 237.5 -165 l 1
 234 -156.5 l 1
 284.5 -129.5 l 1
 332.5 -98 l 1
 378.5 -61.5 l 1
 423 -20 l 1
 465 27.5 l 1
 471.542002935 35.9803741746 l 1
 445 74 l 1
 411.5 131.5 l 1
 382 193.5 l 1
 356 260 l 1
 336.183098592 327 l 1
 311 327 l 1
 311 347 l 1
 647 347 l 1
 648.773195876 348.47766323 l 1
 649 349 l 1
 649.265232975 348.887694146 l 1
 677 372 l 1
 732 327 l 1
 707 312 l 1
 695.686868687 307.286195286 l 1
 667 248 l 1
 628 176.5 l 1
 586.5 111 l 1
 542.5 52 l 1
 530.579089128 38.1141038198 l 1
 559 9 l 1
 602.5 -28.5 l 1
 648.5 -61 l 1
 696.5 -89 l 1
 747 -112.5 l 1
 777.5 -126 l 1
 720.5 -173 l 1
500.041180967 72.9237531053 m 1
 505.5 80 l 1
 544 138.5 l 1
 581 203 l 1
 616 273 l 1
 639.447368421 327 l 1
 346.893939394 327 l 1
 375.5 268 l 1
 408 206.5 l 1
 442.5 149.5 l 1
 479.5 98 l 1
 500.041180967 72.9237531053 l 1
EndSplineSet
EndChar

StartChar: glyph154
Encoding: 410 983226 154
Width: 1000
VWidth: 0
Flags: W
HStem: 327 20<311 336.183 346.894 639.447>
LayerCount: 2
Fore
SplineSet
340.5 767.5 m 1
 370.5 753 l 1
 401 734.5 l 1
 432.5 712.5 l 1
 465 686.5 l 1
 498.5 657.5 l 1
 514.354259323 642.345193295 l 1
 520 647.5 l 1
 555 678.5 l 1
 590 709.5 l 1
 626 740 l 1
 662.5 769.5 l 1
 669 763 l 1
 639.5 726.5 l 1
 609 690.5 l 1
 578 655.5 l 1
 547 620.5 l 1
 542.293103448 615.344827586 l 1
 568 590 l 1
 604.5 551 l 1
 641.5 509.5 l 1
 680 464.5 l 1
 686 442.5 l 1
 675 422.5 l 1
 653 416.5 l 1
 633 427.5 l 1
 597.5 473 l 1
 563.5 516 l 1
 530.5 556 l 1
 510.191067831 580.177300201 l 1
 484.5 552 l 1
 453 518 l 1
 421.5 484 l 1
 390 450 l 1
 372.395860285 431.278137128 l 1
 376 413 l 1
 358.5 416.5 l 1
 309 452 l 1
 316 459 l 1
 349.5 490.5 l 1
 383.5 522 l 1
 417.5 553.5 l 1
 451.5 585 l 1
 481.823340471 612.647751606 l 1
 468.5 627.5 l 1
 439 659 l 1
 411 687.5 l 1
 384.5 713.5 l 1
 359.5 737.5 l 1
 335.5 760 l 1
 340.5 767.5 l 1
720.5 -173 m 1
 666 -143.5 l 1
 615 -109.5 l 1
 567 -70.5 l 1
 523 -27 l 1
 498.900619692 1.21390865274 l 1
 497 -1 l 1
 449 -47.5 l 1
 399 -87.5 l 1
 347 -120.5 l 1
 293 -146.5 l 1
 237.5 -165 l 1
 234 -156.5 l 1
 284.5 -129.5 l 1
 332.5 -98 l 1
 378.5 -61.5 l 1
 423 -20 l 1
 465 27.5 l 1
 471.542002935 35.9803741746 l 1
 445 74 l 1
 411.5 131.5 l 1
 382 193.5 l 1
 356 260 l 1
 336.183098592 327 l 1
 311 327 l 1
 311 347 l 1
 647 347 l 1
 648.773195876 348.47766323 l 1
 649 349 l 1
 649.265232975 348.887694146 l 1
 677 372 l 1
 732 327 l 1
 707 312 l 1
 695.686868687 307.286195286 l 1
 667 248 l 1
 628 176.5 l 1
 586.5 111 l 1
 542.5 52 l 1
 530.579089128 38.1141038198 l 1
 559 9 l 1
 602.5 -28.5 l 1
 648.5 -61 l 1
 696.5 -89 l 1
 747 -112.5 l 1
 777.5 -126 l 1
 720.5 -173 l 1
500.041180967 72.9237531053 m 1
 505.5 80 l 1
 544 138.5 l 1
 581 203 l 1
 616 273 l 1
 639.447368421 327 l 1
 346.893939394 327 l 1
 375.5 268 l 1
 408 206.5 l 1
 442.5 149.5 l 1
 479.5 98 l 1
 500.041180967 72.9237531053 l 1
EndSplineSet
EndChar

StartChar: glyph155
Encoding: 411 983227 155
Width: 1000
VWidth: 0
Flags: W
HStem: 327 20<311 336.183 346.894 639.447> 590 20<334 556>
LayerCount: 2
Fore
SplineSet
720.5 -173 m 1
 666 -143.5 l 1
 615 -109.5 l 1
 567 -70.5 l 1
 523 -27 l 1
 498.900619692 1.21390865274 l 1
 497 -1 l 1
 449 -47.5 l 1
 399 -87.5 l 1
 347 -120.5 l 1
 293 -146.5 l 1
 237.5 -165 l 1
 234 -156.5 l 1
 284.5 -129.5 l 1
 332.5 -98 l 1
 378.5 -61.5 l 1
 423 -20 l 1
 465 27.5 l 1
 471.542002935 35.9803741746 l 1
 445 74 l 1
 411.5 131.5 l 1
 382 193.5 l 1
 356 260 l 1
 336.183098592 327 l 1
 311 327 l 1
 311 347 l 1
 647 347 l 1
 648.773195876 348.47766323 l 1
 649 349 l 1
 649.265232975 348.887694146 l 1
 677 372 l 1
 732 327 l 1
 707 312 l 1
 695.686868687 307.286195286 l 1
 667 248 l 1
 628 176.5 l 1
 586.5 111 l 1
 542.5 52 l 1
 530.579089128 38.1141038198 l 1
 559 9 l 1
 602.5 -28.5 l 1
 648.5 -61 l 1
 696.5 -89 l 1
 747 -112.5 l 1
 777.5 -126 l 1
 720.5 -173 l 1
500.041180967 72.9237531053 m 1
 505.5 80 l 1
 544 138.5 l 1
 581 203 l 1
 616 273 l 1
 639.447368421 327 l 1
 346.893939394 327 l 1
 375.5 268 l 1
 408 206.5 l 1
 442.5 149.5 l 1
 479.5 98 l 1
 500.041180967 72.9237531053 l 1
556 610 m 1
 606 660 l 1
 666 610 l 1
 666 590 l 1
 334 590 l 1
 334 610 l 1
 556 610 l 1
EndSplineSet
EndChar

StartChar: glyph156
Encoding: 412 983228 156
Width: 1000
VWidth: 0
Flags: W
HStem: 114 20<242 470 530 648>
VStem: 470 60<-140 114 134 325>
LayerCount: 2
Fore
SplineSet
530 325 m 1
 530 134 l 1
 648 134 l 1
 698 184 l 1
 758 134 l 1
 758 114 l 1
 530 114 l 1
 530 -140 l 1
 470 -170 l 1
 470 114 l 1
 242 114 l 1
 242 134 l 1
 470 134 l 1
 470 354 l 1
 530 344 l 1
 545 334 l 1
 530 325 l 1
372.395860285 431.278137128 m 1
 376 413 l 1
 358.5 416.5 l 1
 309 452 l 1
 316 459 l 1
 349.5 490.5 l 1
 383.5 522 l 1
 417.5 553.5 l 1
 451.5 585 l 1
 485.5 616 l 1
 520 647.5 l 1
 555 678.5 l 1
 590 709.5 l 1
 626 740 l 1
 662.5 769.5 l 1
 669 763 l 1
 639.5 726.5 l 1
 609 690.5 l 1
 578 655.5 l 1
 547 620.5 l 1
 515.5 586 l 1
 484.5 552 l 1
 453 518 l 1
 421.5 484 l 1
 390 450 l 1
 372.395860285 431.278137128 l 1
EndSplineSet
EndChar

StartChar: glyph157
Encoding: 413 983229 157
Width: 1000
VWidth: 0
Flags: W
HStem: 514 20<242 470 530 648>
VStem: 470 60<260 514 534 725>
LayerCount: 2
Fore
SplineSet
530 725 m 1
 530 534 l 1
 648 534 l 1
 698 584 l 1
 758 534 l 1
 758 514 l 1
 530 514 l 1
 530 260 l 1
 470 230 l 1
 470 514 l 1
 242 514 l 1
 242 534 l 1
 470 534 l 1
 470 754 l 1
 530 744 l 1
 545 734 l 1
 530 725 l 1
316 141.5 m 1
 314.5 143 l 1
 358.5 184 l 1
 376 187.5 l 1
 371.693972179 169.968315301 l 1
 390 150.5 l 1
 421.5 116.5 l 1
 453 82.5 l 1
 484.5 48.5 l 1
 515.5 14.5 l 1
 547 -20 l 1
 578 -55 l 1
 609 -90 l 1
 639.5 -126 l 1
 669 -162.5 l 1
 662.5 -169 l 1
 626 -139.5 l 1
 590 -109 l 1
 555 -78 l 1
 520 -47 l 1
 485.5 -15.5 l 1
 451.5 15.5 l 1
 417.5 47 l 1
 383.5 78.5 l 1
 349.5 110 l 1
 319.59857375 138.116266474 l 1
 319.5 138 l 1
 316 141.5 l 1
EndSplineSet
EndChar

StartChar: glyph158
Encoding: 414 983230 158
Width: 1000
VWidth: 0
Flags: W
HStem: -10 20<334 556> 514 20<242 470 530 648>
VStem: 470 60<260 514 534 725>
LayerCount: 2
Fore
SplineSet
530 725 m 1
 530 534 l 1
 648 534 l 1
 698 584 l 1
 758 534 l 1
 758 514 l 1
 530 514 l 1
 530 260 l 1
 470 230 l 1
 470 514 l 1
 242 514 l 1
 242 534 l 1
 470 534 l 1
 470 754 l 1
 530 744 l 1
 545 734 l 1
 530 725 l 1
556 10 m 1
 606 60 l 1
 666 10 l 1
 666 -10 l 1
 334 -10 l 1
 334 10 l 1
 556 10 l 1
EndSplineSet
EndChar

StartChar: glyph159
Encoding: 415 983231 159
Width: 1000
VWidth: 0
Flags: W
HStem: 514 20<242 470 530 648>
VStem: 470 60<260 514 534 725>
LayerCount: 2
Fore
SplineSet
530 725 m 1
 530 534 l 1
 648 534 l 1
 698 584 l 1
 758 534 l 1
 758 514 l 1
 530 514 l 1
 530 260 l 1
 470 230 l 1
 470 514 l 1
 242 514 l 1
 242 534 l 1
 470 534 l 1
 470 754 l 1
 530 744 l 1
 545 734 l 1
 530 725 l 1
641 184 m 1
 642.5 185.5 l 1
 683.5 141.5 l 1
 687 124 l 1
 669.468315301 128.306027821 l 1
 650 110 l 1
 616 78.5 l 1
 582 47 l 1
 548 15.5 l 1
 514 -15.5 l 1
 479.5 -47 l 1
 444.5 -78 l 1
 409.5 -109 l 1
 373.5 -139.5 l 1
 337 -169 l 1
 330.5 -162.5 l 1
 360 -126 l 1
 390.5 -90 l 1
 421.5 -55 l 1
 452.5 -20 l 1
 484 14.5 l 1
 515 48.5 l 1
 546.5 82.5 l 1
 578 116.5 l 1
 609.5 150.5 l 1
 637.616266474 180.40142625 l 1
 637.5 180.5 l 1
 641 184 l 1
EndSplineSet
EndChar

StartChar: glyph160
Encoding: 416 983232 160
Width: 1000
VWidth: 0
Flags: W
HStem: 114 20<242 470 530 648>
VStem: 470 60<-140 114 134 325>
LayerCount: 2
Fore
SplineSet
340.5 767.5 m 1
 370.5 753 l 1
 401 734.5 l 1
 432.5 712.5 l 1
 465 686.5 l 1
 498.5 657.5 l 1
 532.5 625 l 1
 568 590 l 1
 604.5 551 l 1
 641.5 509.5 l 1
 680 464.5 l 1
 686 442.5 l 1
 675 422.5 l 1
 653 416.5 l 1
 633 427.5 l 1
 597.5 473 l 1
 563.5 516 l 1
 530.5 556 l 1
 499 593.5 l 1
 468.5 627.5 l 1
 439 659 l 1
 411 687.5 l 1
 384.5 713.5 l 1
 359.5 737.5 l 1
 335.5 760 l 1
 340.5 767.5 l 1
530 325 m 1
 530 134 l 1
 648 134 l 1
 698 184 l 1
 758 134 l 1
 758 114 l 1
 530 114 l 1
 530 -140 l 1
 470 -170 l 1
 470 114 l 1
 242 114 l 1
 242 134 l 1
 470 134 l 1
 470 354 l 1
 530 344 l 1
 545 334 l 1
 530 325 l 1
EndSplineSet
EndChar

StartChar: glyph161
Encoding: 417 983233 161
Width: 1000
VWidth: 0
Flags: W
HStem: 114 20<242 470 530 648>
VStem: 470 60<-140 114 134 325>
LayerCount: 2
Fore
SplineSet
340.5 767.5 m 1
 370.5 753 l 1
 401 734.5 l 1
 432.5 712.5 l 1
 465 686.5 l 1
 498.5 657.5 l 1
 514.354259323 642.345193295 l 1
 520 647.5 l 1
 555 678.5 l 1
 590 709.5 l 1
 626 740 l 1
 662.5 769.5 l 1
 669 763 l 1
 639.5 726.5 l 1
 609 690.5 l 1
 578 655.5 l 1
 547 620.5 l 1
 542.293103448 615.344827586 l 1
 568 590 l 1
 604.5 551 l 1
 641.5 509.5 l 1
 680 464.5 l 1
 686 442.5 l 1
 675 422.5 l 1
 653 416.5 l 1
 633 427.5 l 1
 597.5 473 l 1
 563.5 516 l 1
 530.5 556 l 1
 510.191067831 580.177300201 l 1
 484.5 552 l 1
 453 518 l 1
 421.5 484 l 1
 390 450 l 1
 372.395860285 431.278137128 l 1
 376 413 l 1
 358.5 416.5 l 1
 309 452 l 1
 316 459 l 1
 349.5 490.5 l 1
 383.5 522 l 1
 417.5 553.5 l 1
 451.5 585 l 1
 481.823340471 612.647751606 l 1
 468.5 627.5 l 1
 439 659 l 1
 411 687.5 l 1
 384.5 713.5 l 1
 359.5 737.5 l 1
 335.5 760 l 1
 340.5 767.5 l 1
530 325 m 1
 530 134 l 1
 648 134 l 1
 698 184 l 1
 758 134 l 1
 758 114 l 1
 530 114 l 1
 530 -140 l 1
 470 -170 l 1
 470 114 l 1
 242 114 l 1
 242 134 l 1
 470 134 l 1
 470 354 l 1
 530 344 l 1
 545 334 l 1
 530 325 l 1
EndSplineSet
EndChar

StartChar: glyph162
Encoding: 418 983234 162
Width: 1000
VWidth: 0
Flags: W
HStem: 114 20<242 470 530 648> 590 20<334 556>
VStem: 470 60<-140 114 134 325>
LayerCount: 2
Fore
SplineSet
530 325 m 1
 530 134 l 1
 648 134 l 1
 698 184 l 1
 758 134 l 1
 758 114 l 1
 530 114 l 1
 530 -140 l 1
 470 -170 l 1
 470 114 l 1
 242 114 l 1
 242 134 l 1
 470 134 l 1
 470 354 l 1
 530 344 l 1
 545 334 l 1
 530 325 l 1
556 610 m 1
 606 660 l 1
 666 610 l 1
 666 590 l 1
 334 590 l 1
 334 610 l 1
 556 610 l 1
EndSplineSet
EndChar

StartChar: glyph163
Encoding: 419 983235 163
Width: 1000
VWidth: 0
Flags: W
HStem: 111 20<297.55 692.064>
LayerCount: 2
Fore
SplineSet
705.650519031 134.875432526 m 1
 731 156 l 1
 786 111 l 1
 761 96 l 1
 745.840506329 89.6835443038 l 1
 742.5 84.5 l 1
 725.5 61.5 l 1
 706.5 37 l 1
 685 11 l 1
 661 -16 l 1
 634.5 -44 l 1
 606 -73.5 l 1
 574.5 -104 l 1
 540.5 -135 l 1
 503 -167 l 1
 496.5 -160.5 l 1
 526.5 -122 l 1
 555 -85.5 l 1
 581.5 -51.5 l 1
 606 -19.5 l 1
 628 11 l 1
 648 39.5 l 1
 665.5 66 l 1
 681 91 l 1
 692.063829787 111 l 1
 294.243801653 111 l 1
 293.5 106.5 l 1
 229.5 86.5 l 1
 276 368 l 1
 333.5 348.5 l 1
 346.5 336 l 1
 330.626590757 331.115874079 l 1
 297.549586777 131 l 1
 701 131 l 1
 703.142857143 132.785714286 l 1
 704.5 135.5 l 1
 705.650519031 134.875432526 l 1
372.395860285 431.278137128 m 1
 376 413 l 1
 358.5 416.5 l 1
 309 452 l 1
 316 459 l 1
 349.5 490.5 l 1
 383.5 522 l 1
 417.5 553.5 l 1
 451.5 585 l 1
 485.5 616 l 1
 520 647.5 l 1
 555 678.5 l 1
 590 709.5 l 1
 626 740 l 1
 662.5 769.5 l 1
 669 763 l 1
 639.5 726.5 l 1
 609 690.5 l 1
 578 655.5 l 1
 547 620.5 l 1
 515.5 586 l 1
 484.5 552 l 1
 453 518 l 1
 421.5 484 l 1
 390 450 l 1
 372.395860285 431.278137128 l 1
EndSplineSet
EndChar

StartChar: glyph164
Encoding: 420 983236 164
Width: 1000
VWidth: 0
Flags: W
HStem: 511 20<297.55 692.064>
LayerCount: 2
Fore
SplineSet
705.650519031 534.875432526 m 1
 731 556 l 1
 786 511 l 1
 761 496 l 1
 745.840506329 489.683544304 l 1
 742.5 484.5 l 1
 725.5 461.5 l 1
 706.5 437 l 1
 685 411 l 1
 661 384 l 1
 634.5 356 l 1
 606 326.5 l 1
 574.5 296 l 1
 540.5 265 l 1
 503 233 l 1
 496.5 239.5 l 1
 526.5 278 l 1
 555 314.5 l 1
 581.5 348.5 l 1
 606 380.5 l 1
 628 411 l 1
 648 439.5 l 1
 665.5 466 l 1
 681 491 l 1
 692.063829787 511 l 1
 294.243801653 511 l 1
 293.5 506.5 l 1
 229.5 486.5 l 1
 276 768 l 1
 333.5 748.5 l 1
 346.5 736 l 1
 330.626590757 731.115874079 l 1
 297.549586777 531 l 1
 701 531 l 1
 703.142857143 532.785714286 l 1
 704.5 535.5 l 1
 705.650519031 534.875432526 l 1
316 141.5 m 1
 314.5 143 l 1
 358.5 184 l 1
 376 187.5 l 1
 371.693972179 169.968315301 l 1
 390 150.5 l 1
 421.5 116.5 l 1
 453 82.5 l 1
 484.5 48.5 l 1
 515.5 14.5 l 1
 547 -20 l 1
 578 -55 l 1
 609 -90 l 1
 639.5 -126 l 1
 669 -162.5 l 1
 662.5 -169 l 1
 626 -139.5 l 1
 590 -109 l 1
 555 -78 l 1
 520 -47 l 1
 485.5 -15.5 l 1
 451.5 15.5 l 1
 417.5 47 l 1
 383.5 78.5 l 1
 349.5 110 l 1
 319.59857375 138.116266474 l 1
 319.5 138 l 1
 316 141.5 l 1
EndSplineSet
EndChar

StartChar: glyph165
Encoding: 421 983237 165
Width: 1000
VWidth: 0
Flags: W
HStem: -10 20<334 556> 511 20<297.55 692.064>
LayerCount: 2
Fore
SplineSet
705.650519031 534.875432526 m 1
 731 556 l 1
 786 511 l 1
 761 496 l 1
 745.840506329 489.683544304 l 1
 742.5 484.5 l 1
 725.5 461.5 l 1
 706.5 437 l 1
 685 411 l 1
 661 384 l 1
 634.5 356 l 1
 606 326.5 l 1
 574.5 296 l 1
 540.5 265 l 1
 503 233 l 1
 496.5 239.5 l 1
 526.5 278 l 1
 555 314.5 l 1
 581.5 348.5 l 1
 606 380.5 l 1
 628 411 l 1
 648 439.5 l 1
 665.5 466 l 1
 681 491 l 1
 692.063829787 511 l 1
 294.243801653 511 l 1
 293.5 506.5 l 1
 229.5 486.5 l 1
 276 768 l 1
 333.5 748.5 l 1
 346.5 736 l 1
 330.626590757 731.115874079 l 1
 297.549586777 531 l 1
 701 531 l 1
 703.142857143 532.785714286 l 1
 704.5 535.5 l 1
 705.650519031 534.875432526 l 1
556 10 m 1
 606 60 l 1
 666 10 l 1
 666 -10 l 1
 334 -10 l 1
 334 10 l 1
 556 10 l 1
EndSplineSet
EndChar

StartChar: glyph166
Encoding: 422 983238 166
Width: 1000
VWidth: 0
Flags: W
HStem: 511 20<297.55 692.064>
LayerCount: 2
Fore
SplineSet
705.650519031 534.875432526 m 1
 731 556 l 1
 786 511 l 1
 761 496 l 1
 745.840506329 489.683544304 l 1
 742.5 484.5 l 1
 725.5 461.5 l 1
 706.5 437 l 1
 685 411 l 1
 661 384 l 1
 634.5 356 l 1
 606 326.5 l 1
 574.5 296 l 1
 540.5 265 l 1
 503 233 l 1
 496.5 239.5 l 1
 526.5 278 l 1
 555 314.5 l 1
 581.5 348.5 l 1
 606 380.5 l 1
 628 411 l 1
 648 439.5 l 1
 665.5 466 l 1
 681 491 l 1
 692.063829787 511 l 1
 294.243801653 511 l 1
 293.5 506.5 l 1
 229.5 486.5 l 1
 276 768 l 1
 333.5 748.5 l 1
 346.5 736 l 1
 330.626590757 731.115874079 l 1
 297.549586777 531 l 1
 701 531 l 1
 703.142857143 532.785714286 l 1
 704.5 535.5 l 1
 705.650519031 534.875432526 l 1
641 184 m 1
 642.5 185.5 l 1
 683.5 141.5 l 1
 687 124 l 1
 669.468315301 128.306027821 l 1
 650 110 l 1
 616 78.5 l 1
 582 47 l 1
 548 15.5 l 1
 514 -15.5 l 1
 479.5 -47 l 1
 444.5 -78 l 1
 409.5 -109 l 1
 373.5 -139.5 l 1
 337 -169 l 1
 330.5 -162.5 l 1
 360 -126 l 1
 390.5 -90 l 1
 421.5 -55 l 1
 452.5 -20 l 1
 484 14.5 l 1
 515 48.5 l 1
 546.5 82.5 l 1
 578 116.5 l 1
 609.5 150.5 l 1
 637.616266474 180.40142625 l 1
 637.5 180.5 l 1
 641 184 l 1
EndSplineSet
EndChar

StartChar: glyph167
Encoding: 423 983239 167
Width: 1000
VWidth: 0
Flags: W
HStem: 111 20<297.55 692.064>
LayerCount: 2
Fore
SplineSet
340.5 767.5 m 1
 370.5 753 l 1
 401 734.5 l 1
 432.5 712.5 l 1
 465 686.5 l 1
 498.5 657.5 l 1
 532.5 625 l 1
 568 590 l 1
 604.5 551 l 1
 641.5 509.5 l 1
 680 464.5 l 1
 686 442.5 l 1
 675 422.5 l 1
 653 416.5 l 1
 633 427.5 l 1
 597.5 473 l 1
 563.5 516 l 1
 530.5 556 l 1
 499 593.5 l 1
 468.5 627.5 l 1
 439 659 l 1
 411 687.5 l 1
 384.5 713.5 l 1
 359.5 737.5 l 1
 335.5 760 l 1
 340.5 767.5 l 1
705.650519031 134.875432526 m 1
 731 156 l 1
 786 111 l 1
 761 96 l 1
 745.840506329 89.6835443038 l 1
 742.5 84.5 l 1
 725.5 61.5 l 1
 706.5 37 l 1
 685 11 l 1
 661 -16 l 1
 634.5 -44 l 1
 606 -73.5 l 1
 574.5 -104 l 1
 540.5 -135 l 1
 503 -167 l 1
 496.5 -160.5 l 1
 526.5 -122 l 1
 555 -85.5 l 1
 581.5 -51.5 l 1
 606 -19.5 l 1
 628 11 l 1
 648 39.5 l 1
 665.5 66 l 1
 681 91 l 1
 692.063829787 111 l 1
 294.243801653 111 l 1
 293.5 106.5 l 1
 229.5 86.5 l 1
 276 368 l 1
 333.5 348.5 l 1
 346.5 336 l 1
 330.626590757 331.115874079 l 1
 297.549586777 131 l 1
 701 131 l 1
 703.142857143 132.785714286 l 1
 704.5 135.5 l 1
 705.650519031 134.875432526 l 1
EndSplineSet
EndChar

StartChar: glyph168
Encoding: 424 983240 168
Width: 1000
VWidth: 0
Flags: W
HStem: 111 20<297.55 692.064>
LayerCount: 2
Fore
SplineSet
340.5 767.5 m 1
 370.5 753 l 1
 401 734.5 l 1
 432.5 712.5 l 1
 465 686.5 l 1
 498.5 657.5 l 1
 514.354259323 642.345193295 l 1
 520 647.5 l 1
 555 678.5 l 1
 590 709.5 l 1
 626 740 l 1
 662.5 769.5 l 1
 669 763 l 1
 639.5 726.5 l 1
 609 690.5 l 1
 578 655.5 l 1
 547 620.5 l 1
 542.293103448 615.344827586 l 1
 568 590 l 1
 604.5 551 l 1
 641.5 509.5 l 1
 680 464.5 l 1
 686 442.5 l 1
 675 422.5 l 1
 653 416.5 l 1
 633 427.5 l 1
 597.5 473 l 1
 563.5 516 l 1
 530.5 556 l 1
 510.191067831 580.177300201 l 1
 484.5 552 l 1
 453 518 l 1
 421.5 484 l 1
 390 450 l 1
 372.395860285 431.278137128 l 1
 376 413 l 1
 358.5 416.5 l 1
 309 452 l 1
 316 459 l 1
 349.5 490.5 l 1
 383.5 522 l 1
 417.5 553.5 l 1
 451.5 585 l 1
 481.823340471 612.647751606 l 1
 468.5 627.5 l 1
 439 659 l 1
 411 687.5 l 1
 384.5 713.5 l 1
 359.5 737.5 l 1
 335.5 760 l 1
 340.5 767.5 l 1
705.650519031 134.875432526 m 1
 731 156 l 1
 786 111 l 1
 761 96 l 1
 745.840506329 89.6835443038 l 1
 742.5 84.5 l 1
 725.5 61.5 l 1
 706.5 37 l 1
 685 11 l 1
 661 -16 l 1
 634.5 -44 l 1
 606 -73.5 l 1
 574.5 -104 l 1
 540.5 -135 l 1
 503 -167 l 1
 496.5 -160.5 l 1
 526.5 -122 l 1
 555 -85.5 l 1
 581.5 -51.5 l 1
 606 -19.5 l 1
 628 11 l 1
 648 39.5 l 1
 665.5 66 l 1
 681 91 l 1
 692.063829787 111 l 1
 294.243801653 111 l 1
 293.5 106.5 l 1
 229.5 86.5 l 1
 276 368 l 1
 333.5 348.5 l 1
 346.5 336 l 1
 330.626590757 331.115874079 l 1
 297.549586777 131 l 1
 701 131 l 1
 703.142857143 132.785714286 l 1
 704.5 135.5 l 1
 705.650519031 134.875432526 l 1
EndSplineSet
EndChar

StartChar: glyph169
Encoding: 425 983241 169
Width: 1000
VWidth: 0
Flags: W
HStem: 111 20<297.55 692.064> 590 20<334 556>
LayerCount: 2
Fore
SplineSet
705.650519031 134.875432526 m 1
 731 156 l 1
 786 111 l 1
 761 96 l 1
 745.840506329 89.6835443038 l 1
 742.5 84.5 l 1
 725.5 61.5 l 1
 706.5 37 l 1
 685 11 l 1
 661 -16 l 1
 634.5 -44 l 1
 606 -73.5 l 1
 574.5 -104 l 1
 540.5 -135 l 1
 503 -167 l 1
 496.5 -160.5 l 1
 526.5 -122 l 1
 555 -85.5 l 1
 581.5 -51.5 l 1
 606 -19.5 l 1
 628 11 l 1
 648 39.5 l 1
 665.5 66 l 1
 681 91 l 1
 692.063829787 111 l 1
 294.243801653 111 l 1
 293.5 106.5 l 1
 229.5 86.5 l 1
 276 368 l 1
 333.5 348.5 l 1
 346.5 336 l 1
 330.626590757 331.115874079 l 1
 297.549586777 131 l 1
 701 131 l 1
 703.142857143 132.785714286 l 1
 704.5 135.5 l 1
 705.650519031 134.875432526 l 1
556 610 m 1
 606 660 l 1
 666 610 l 1
 666 590 l 1
 334 590 l 1
 334 610 l 1
 556 610 l 1
EndSplineSet
EndChar

StartChar: glyph170
Encoding: 426 983242 170
Width: 1000
VWidth: 0
Flags: W
HStem: 102 20<397.508 659.562> 330 20<254 640.96>
LayerCount: 2
Fore
SplineSet
670.824791418 124.353992849 m 1
 698 147 l 1
 753 102 l 1
 728 87 l 1
 714.567639257 81.4031830239 l 1
 702 59 l 1
 674 21.5 l 1
 642 -12.5 l 1
 605.5 -43.5 l 1
 565 -71 l 1
 520 -95.5 l 1
 471 -117 l 1
 418 -134.5 l 1
 361 -149 l 1
 299.5 -159 l 1
 298 -150.5 l 1
 356 -130.5 l 1
 409 -109.5 l 1
 458 -86.5 l 1
 502 -62 l 1
 541 -36 l 1
 576 -7.5 l 1
 606 22.5 l 1
 632 54.5 l 1
 653 88.5 l 1
 659.5625 102 l 1
 362.625984252 102 l 1
 326 81 l 1
 270 118.5 l 1
 640.960496614 330 l 1
 254 330 l 1
 254 350 l 1
 689 350 l 1
 719 375 l 1
 767.823842469 335.053219798 l 1
 769 335 l 1
 768.346704026 334.625423979 l 1
 774 330 l 1
 749 315 l 1
 694.546218487 292.31092437 l 1
 397.507874016 122 l 1
 668 122 l 1
 670.159533074 123.799610895 l 1
 670.5 124.5 l 1
 670.824791418 124.353992849 l 1
372.395860285 431.278137128 m 1
 376 413 l 1
 358.5 416.5 l 1
 309 452 l 1
 316 459 l 1
 349.5 490.5 l 1
 383.5 522 l 1
 417.5 553.5 l 1
 451.5 585 l 1
 485.5 616 l 1
 520 647.5 l 1
 555 678.5 l 1
 590 709.5 l 1
 626 740 l 1
 662.5 769.5 l 1
 669 763 l 1
 639.5 726.5 l 1
 609 690.5 l 1
 578 655.5 l 1
 547 620.5 l 1
 515.5 586 l 1
 484.5 552 l 1
 453 518 l 1
 421.5 484 l 1
 390 450 l 1
 372.395860285 431.278137128 l 1
EndSplineSet
EndChar

StartChar: glyph171
Encoding: 427 983243 171
Width: 1000
VWidth: 0
Flags: W
HStem: 502 20<397.508 659.562> 730 20<254 640.96>
LayerCount: 2
Fore
SplineSet
670.824791418 524.353992849 m 1
 698 547 l 1
 753 502 l 1
 728 487 l 1
 714.567639257 481.403183024 l 1
 702 459 l 1
 674 421.5 l 1
 642 387.5 l 1
 605.5 356.5 l 1
 565 329 l 1
 520 304.5 l 1
 471 283 l 1
 418 265.5 l 1
 361 251 l 1
 299.5 241 l 1
 298 249.5 l 1
 356 269.5 l 1
 409 290.5 l 1
 458 313.5 l 1
 502 338 l 1
 541 364 l 1
 576 392.5 l 1
 606 422.5 l 1
 632 454.5 l 1
 653 488.5 l 1
 659.5625 502 l 1
 362.625984252 502 l 1
 326 481 l 1
 270 518.5 l 1
 640.960496614 730 l 1
 254 730 l 1
 254 750 l 1
 689 750 l 1
 719 775 l 1
 767.823842469 735.053219798 l 1
 769 735 l 1
 768.346704026 734.625423979 l 1
 774 730 l 1
 749 715 l 1
 694.546218487 692.31092437 l 1
 397.507874016 522 l 1
 668 522 l 1
 670.159533074 523.799610895 l 1
 670.5 524.5 l 1
 670.824791418 524.353992849 l 1
316 141.5 m 1
 314.5 143 l 1
 358.5 184 l 1
 376 187.5 l 1
 371.693972179 169.968315301 l 1
 390 150.5 l 1
 421.5 116.5 l 1
 453 82.5 l 1
 484.5 48.5 l 1
 515.5 14.5 l 1
 547 -20 l 1
 578 -55 l 1
 609 -90 l 1
 639.5 -126 l 1
 669 -162.5 l 1
 662.5 -169 l 1
 626 -139.5 l 1
 590 -109 l 1
 555 -78 l 1
 520 -47 l 1
 485.5 -15.5 l 1
 451.5 15.5 l 1
 417.5 47 l 1
 383.5 78.5 l 1
 349.5 110 l 1
 319.59857375 138.116266474 l 1
 319.5 138 l 1
 316 141.5 l 1
EndSplineSet
EndChar

StartChar: glyph172
Encoding: 428 983244 172
Width: 1000
VWidth: 0
Flags: W
HStem: -10 20<334 556> 502 20<397.508 659.562> 730 20<254 640.96>
LayerCount: 2
Fore
SplineSet
670.824791418 524.353992849 m 1
 698 547 l 1
 753 502 l 1
 728 487 l 1
 714.567639257 481.403183024 l 1
 702 459 l 1
 674 421.5 l 1
 642 387.5 l 1
 605.5 356.5 l 1
 565 329 l 1
 520 304.5 l 1
 471 283 l 1
 418 265.5 l 1
 361 251 l 1
 299.5 241 l 1
 298 249.5 l 1
 356 269.5 l 1
 409 290.5 l 1
 458 313.5 l 1
 502 338 l 1
 541 364 l 1
 576 392.5 l 1
 606 422.5 l 1
 632 454.5 l 1
 653 488.5 l 1
 659.5625 502 l 1
 362.625984252 502 l 1
 326 481 l 1
 270 518.5 l 1
 640.960496614 730 l 1
 254 730 l 1
 254 750 l 1
 689 750 l 1
 719 775 l 1
 767.823842469 735.053219798 l 1
 769 735 l 1
 768.346704026 734.625423979 l 1
 774 730 l 1
 749 715 l 1
 694.546218487 692.31092437 l 1
 397.507874016 522 l 1
 668 522 l 1
 670.159533074 523.799610895 l 1
 670.5 524.5 l 1
 670.824791418 524.353992849 l 1
556 10 m 1
 606 60 l 1
 666 10 l 1
 666 -10 l 1
 334 -10 l 1
 334 10 l 1
 556 10 l 1
EndSplineSet
EndChar

StartChar: glyph173
Encoding: 429 983245 173
Width: 1000
VWidth: 0
Flags: W
HStem: 502 20<397.508 659.562> 730 20<254 640.96>
LayerCount: 2
Fore
SplineSet
670.824791418 524.353992849 m 1
 698 547 l 1
 753 502 l 1
 728 487 l 1
 714.567639257 481.403183024 l 1
 702 459 l 1
 674 421.5 l 1
 642 387.5 l 1
 605.5 356.5 l 1
 565 329 l 1
 520 304.5 l 1
 471 283 l 1
 418 265.5 l 1
 361 251 l 1
 299.5 241 l 1
 298 249.5 l 1
 356 269.5 l 1
 409 290.5 l 1
 458 313.5 l 1
 502 338 l 1
 541 364 l 1
 576 392.5 l 1
 606 422.5 l 1
 632 454.5 l 1
 653 488.5 l 1
 659.5625 502 l 1
 362.625984252 502 l 1
 326 481 l 1
 270 518.5 l 1
 640.960496614 730 l 1
 254 730 l 1
 254 750 l 1
 689 750 l 1
 719 775 l 1
 767.823842469 735.053219798 l 1
 769 735 l 1
 768.346704026 734.625423979 l 1
 774 730 l 1
 749 715 l 1
 694.546218487 692.31092437 l 1
 397.507874016 522 l 1
 668 522 l 1
 670.159533074 523.799610895 l 1
 670.5 524.5 l 1
 670.824791418 524.353992849 l 1
641 184 m 1
 642.5 185.5 l 1
 683.5 141.5 l 1
 687 124 l 1
 669.468315301 128.306027821 l 1
 650 110 l 1
 616 78.5 l 1
 582 47 l 1
 548 15.5 l 1
 514 -15.5 l 1
 479.5 -47 l 1
 444.5 -78 l 1
 409.5 -109 l 1
 373.5 -139.5 l 1
 337 -169 l 1
 330.5 -162.5 l 1
 360 -126 l 1
 390.5 -90 l 1
 421.5 -55 l 1
 452.5 -20 l 1
 484 14.5 l 1
 515 48.5 l 1
 546.5 82.5 l 1
 578 116.5 l 1
 609.5 150.5 l 1
 637.616266474 180.40142625 l 1
 637.5 180.5 l 1
 641 184 l 1
EndSplineSet
EndChar

StartChar: glyph174
Encoding: 430 983246 174
Width: 1000
VWidth: 0
Flags: W
HStem: 102 20<397.508 659.562> 330 20<254 640.96>
LayerCount: 2
Fore
SplineSet
340.5 767.5 m 1
 370.5 753 l 1
 401 734.5 l 1
 432.5 712.5 l 1
 465 686.5 l 1
 498.5 657.5 l 1
 532.5 625 l 1
 568 590 l 1
 604.5 551 l 1
 641.5 509.5 l 1
 680 464.5 l 1
 686 442.5 l 1
 675 422.5 l 1
 653 416.5 l 1
 633 427.5 l 1
 597.5 473 l 1
 563.5 516 l 1
 530.5 556 l 1
 499 593.5 l 1
 468.5 627.5 l 1
 439 659 l 1
 411 687.5 l 1
 384.5 713.5 l 1
 359.5 737.5 l 1
 335.5 760 l 1
 340.5 767.5 l 1
670.824791418 124.353992849 m 1
 698 147 l 1
 753 102 l 1
 728 87 l 1
 714.567639257 81.4031830239 l 1
 702 59 l 1
 674 21.5 l 1
 642 -12.5 l 1
 605.5 -43.5 l 1
 565 -71 l 1
 520 -95.5 l 1
 471 -117 l 1
 418 -134.5 l 1
 361 -149 l 1
 299.5 -159 l 1
 298 -150.5 l 1
 356 -130.5 l 1
 409 -109.5 l 1
 458 -86.5 l 1
 502 -62 l 1
 541 -36 l 1
 576 -7.5 l 1
 606 22.5 l 1
 632 54.5 l 1
 653 88.5 l 1
 659.5625 102 l 1
 362.625984252 102 l 1
 326 81 l 1
 270 118.5 l 1
 640.960496614 330 l 1
 254 330 l 1
 254 350 l 1
 689 350 l 1
 719 375 l 1
 767.823842469 335.053219798 l 1
 769 335 l 1
 768.346704026 334.625423979 l 1
 774 330 l 1
 749 315 l 1
 694.546218487 292.31092437 l 1
 397.507874016 122 l 1
 668 122 l 1
 670.159533074 123.799610895 l 1
 670.5 124.5 l 1
 670.824791418 124.353992849 l 1
EndSplineSet
EndChar

StartChar: glyph175
Encoding: 431 983247 175
Width: 1000
VWidth: 0
Flags: W
HStem: 102 20<397.508 659.562> 330 20<254 640.96>
LayerCount: 2
Fore
SplineSet
340.5 767.5 m 1
 370.5 753 l 1
 401 734.5 l 1
 432.5 712.5 l 1
 465 686.5 l 1
 498.5 657.5 l 1
 514.354259323 642.345193295 l 1
 520 647.5 l 1
 555 678.5 l 1
 590 709.5 l 1
 626 740 l 1
 662.5 769.5 l 1
 669 763 l 1
 639.5 726.5 l 1
 609 690.5 l 1
 578 655.5 l 1
 547 620.5 l 1
 542.293103448 615.344827586 l 1
 568 590 l 1
 604.5 551 l 1
 641.5 509.5 l 1
 680 464.5 l 1
 686 442.5 l 1
 675 422.5 l 1
 653 416.5 l 1
 633 427.5 l 1
 597.5 473 l 1
 563.5 516 l 1
 530.5 556 l 1
 510.191067831 580.177300201 l 1
 484.5 552 l 1
 453 518 l 1
 421.5 484 l 1
 390 450 l 1
 372.395860285 431.278137128 l 1
 376 413 l 1
 358.5 416.5 l 1
 309 452 l 1
 316 459 l 1
 349.5 490.5 l 1
 383.5 522 l 1
 417.5 553.5 l 1
 451.5 585 l 1
 481.823340471 612.647751606 l 1
 468.5 627.5 l 1
 439 659 l 1
 411 687.5 l 1
 384.5 713.5 l 1
 359.5 737.5 l 1
 335.5 760 l 1
 340.5 767.5 l 1
670.824791418 124.353992849 m 1
 698 147 l 1
 753 102 l 1
 728 87 l 1
 714.567639257 81.4031830239 l 1
 702 59 l 1
 674 21.5 l 1
 642 -12.5 l 1
 605.5 -43.5 l 1
 565 -71 l 1
 520 -95.5 l 1
 471 -117 l 1
 418 -134.5 l 1
 361 -149 l 1
 299.5 -159 l 1
 298 -150.5 l 1
 356 -130.5 l 1
 409 -109.5 l 1
 458 -86.5 l 1
 502 -62 l 1
 541 -36 l 1
 576 -7.5 l 1
 606 22.5 l 1
 632 54.5 l 1
 653 88.5 l 1
 659.5625 102 l 1
 362.625984252 102 l 1
 326 81 l 1
 270 118.5 l 1
 640.960496614 330 l 1
 254 330 l 1
 254 350 l 1
 689 350 l 1
 719 375 l 1
 767.823842469 335.053219798 l 1
 769 335 l 1
 768.346704026 334.625423979 l 1
 774 330 l 1
 749 315 l 1
 694.546218487 292.31092437 l 1
 397.507874016 122 l 1
 668 122 l 1
 670.159533074 123.799610895 l 1
 670.5 124.5 l 1
 670.824791418 124.353992849 l 1
EndSplineSet
EndChar

StartChar: glyph176
Encoding: 432 983248 176
Width: 1000
VWidth: 0
Flags: W
HStem: 102 20<397.508 659.562> 330 20<254 640.96> 590 20<334 556>
LayerCount: 2
Fore
SplineSet
670.824791418 124.353992849 m 1
 698 147 l 1
 753 102 l 1
 728 87 l 1
 714.567639257 81.4031830239 l 1
 702 59 l 1
 674 21.5 l 1
 642 -12.5 l 1
 605.5 -43.5 l 1
 565 -71 l 1
 520 -95.5 l 1
 471 -117 l 1
 418 -134.5 l 1
 361 -149 l 1
 299.5 -159 l 1
 298 -150.5 l 1
 356 -130.5 l 1
 409 -109.5 l 1
 458 -86.5 l 1
 502 -62 l 1
 541 -36 l 1
 576 -7.5 l 1
 606 22.5 l 1
 632 54.5 l 1
 653 88.5 l 1
 659.5625 102 l 1
 362.625984252 102 l 1
 326 81 l 1
 270 118.5 l 1
 640.960496614 330 l 1
 254 330 l 1
 254 350 l 1
 689 350 l 1
 719 375 l 1
 767.823842469 335.053219798 l 1
 769 335 l 1
 768.346704026 334.625423979 l 1
 774 330 l 1
 749 315 l 1
 694.546218487 292.31092437 l 1
 397.507874016 122 l 1
 668 122 l 1
 670.159533074 123.799610895 l 1
 670.5 124.5 l 1
 670.824791418 124.353992849 l 1
556 610 m 1
 606 660 l 1
 666 610 l 1
 666 590 l 1
 334 590 l 1
 334 610 l 1
 556 610 l 1
EndSplineSet
EndChar

StartChar: glyph177
Encoding: 433 983249 177
Width: 1000
VWidth: 0
Flags: W
HStem: 195 20<245 530 590 645>
VStem: 530 60<-79.5952 195 215 328>
LayerCount: 2
Fore
SplineSet
645 215 m 1
 695 265 l 1
 755 215 l 1
 755 195 l 1
 590 195 l 1
 590 -111.375 l 1
 593 -111 l 1
 590 -121.5 l 1
 590 -138 l 1
 580.134408602 -138 l 1
 549.5 -175 l 1
 543 -167.5 l 1
 532.5 -154 l 1
 520 -139.5 l 1
 505 -123 l 1
 487.5 -106 l 1
 467.5 -87 l 1
 446 -67 l 1
 422 -46 l 1
 395.5 -23.5 l 1
 368 1 l 1
 338 27.5 l 1
 343.5 35 l 1
 378.5 16.5 l 1
 411.5 -1.5 l 1
 441.5 -19.5 l 1
 469 -37 l 1
 494 -54 l 1
 517 -70 l 1
 530 -79.5952380952 l 1
 530 195 l 1
 245 195 l 1
 245 215 l 1
 530 215 l 1
 530 357 l 1
 590 347 l 1
 605 337 l 1
 590 328 l 1
 590 215 l 1
 645 215 l 1
372.395860285 431.278137128 m 1
 376 413 l 1
 358.5 416.5 l 1
 309 452 l 1
 316 459 l 1
 349.5 490.5 l 1
 383.5 522 l 1
 417.5 553.5 l 1
 451.5 585 l 1
 485.5 616 l 1
 520 647.5 l 1
 555 678.5 l 1
 590 709.5 l 1
 626 740 l 1
 662.5 769.5 l 1
 669 763 l 1
 639.5 726.5 l 1
 609 690.5 l 1
 578 655.5 l 1
 547 620.5 l 1
 515.5 586 l 1
 484.5 552 l 1
 453 518 l 1
 421.5 484 l 1
 390 450 l 1
 372.395860285 431.278137128 l 1
EndSplineSet
EndChar

StartChar: glyph178
Encoding: 434 983250 178
Width: 1000
VWidth: 0
Flags: W
HStem: 595 20<245 530 590 645>
VStem: 530 60<320.405 595 615 728>
LayerCount: 2
Fore
SplineSet
645 615 m 1
 695 665 l 1
 755 615 l 1
 755 595 l 1
 590 595 l 1
 590 288.625 l 1
 593 289 l 1
 590 278.5 l 1
 590 262 l 1
 580.134408602 262 l 1
 549.5 225 l 1
 543 232.5 l 1
 532.5 246 l 1
 520 260.5 l 1
 505 277 l 1
 487.5 294 l 1
 467.5 313 l 1
 446 333 l 1
 422 354 l 1
 395.5 376.5 l 1
 368 401 l 1
 338 427.5 l 1
 343.5 435 l 1
 378.5 416.5 l 1
 411.5 398.5 l 1
 441.5 380.5 l 1
 469 363 l 1
 494 346 l 1
 517 330 l 1
 530 320.404761905 l 1
 530 595 l 1
 245 595 l 1
 245 615 l 1
 530 615 l 1
 530 757 l 1
 590 747 l 1
 605 737 l 1
 590 728 l 1
 590 615 l 1
 645 615 l 1
316 141.5 m 1
 314.5 143 l 1
 358.5 184 l 1
 376 187.5 l 1
 371.693972179 169.968315301 l 1
 390 150.5 l 1
 421.5 116.5 l 1
 453 82.5 l 1
 484.5 48.5 l 1
 515.5 14.5 l 1
 547 -20 l 1
 578 -55 l 1
 609 -90 l 1
 639.5 -126 l 1
 669 -162.5 l 1
 662.5 -169 l 1
 626 -139.5 l 1
 590 -109 l 1
 555 -78 l 1
 520 -47 l 1
 485.5 -15.5 l 1
 451.5 15.5 l 1
 417.5 47 l 1
 383.5 78.5 l 1
 349.5 110 l 1
 319.59857375 138.116266474 l 1
 319.5 138 l 1
 316 141.5 l 1
EndSplineSet
EndChar

StartChar: glyph179
Encoding: 435 983251 179
Width: 1000
VWidth: 0
Flags: W
HStem: -10 20<334 556> 595 20<245 530 590 645>
VStem: 530 60<320.405 595 615 728>
LayerCount: 2
Fore
SplineSet
645 615 m 1
 695 665 l 1
 755 615 l 1
 755 595 l 1
 590 595 l 1
 590 288.625 l 1
 593 289 l 1
 590 278.5 l 1
 590 262 l 1
 580.134408602 262 l 1
 549.5 225 l 1
 543 232.5 l 1
 532.5 246 l 1
 520 260.5 l 1
 505 277 l 1
 487.5 294 l 1
 467.5 313 l 1
 446 333 l 1
 422 354 l 1
 395.5 376.5 l 1
 368 401 l 1
 338 427.5 l 1
 343.5 435 l 1
 378.5 416.5 l 1
 411.5 398.5 l 1
 441.5 380.5 l 1
 469 363 l 1
 494 346 l 1
 517 330 l 1
 530 320.404761905 l 1
 530 595 l 1
 245 595 l 1
 245 615 l 1
 530 615 l 1
 530 757 l 1
 590 747 l 1
 605 737 l 1
 590 728 l 1
 590 615 l 1
 645 615 l 1
556 10 m 1
 606 60 l 1
 666 10 l 1
 666 -10 l 1
 334 -10 l 1
 334 10 l 1
 556 10 l 1
EndSplineSet
EndChar

StartChar: glyph180
Encoding: 436 983252 180
Width: 1000
VWidth: 0
Flags: W
HStem: 595 20<245 530 590 645>
VStem: 530 60<320.405 595 615 728>
LayerCount: 2
Fore
SplineSet
645 615 m 1
 695 665 l 1
 755 615 l 1
 755 595 l 1
 590 595 l 1
 590 288.625 l 1
 593 289 l 1
 590 278.5 l 1
 590 262 l 1
 580.134408602 262 l 1
 549.5 225 l 1
 543 232.5 l 1
 532.5 246 l 1
 520 260.5 l 1
 505 277 l 1
 487.5 294 l 1
 467.5 313 l 1
 446 333 l 1
 422 354 l 1
 395.5 376.5 l 1
 368 401 l 1
 338 427.5 l 1
 343.5 435 l 1
 378.5 416.5 l 1
 411.5 398.5 l 1
 441.5 380.5 l 1
 469 363 l 1
 494 346 l 1
 517 330 l 1
 530 320.404761905 l 1
 530 595 l 1
 245 595 l 1
 245 615 l 1
 530 615 l 1
 530 757 l 1
 590 747 l 1
 605 737 l 1
 590 728 l 1
 590 615 l 1
 645 615 l 1
641 184 m 1
 642.5 185.5 l 1
 683.5 141.5 l 1
 687 124 l 1
 669.468315301 128.306027821 l 1
 650 110 l 1
 616 78.5 l 1
 582 47 l 1
 548 15.5 l 1
 514 -15.5 l 1
 479.5 -47 l 1
 444.5 -78 l 1
 409.5 -109 l 1
 373.5 -139.5 l 1
 337 -169 l 1
 330.5 -162.5 l 1
 360 -126 l 1
 390.5 -90 l 1
 421.5 -55 l 1
 452.5 -20 l 1
 484 14.5 l 1
 515 48.5 l 1
 546.5 82.5 l 1
 578 116.5 l 1
 609.5 150.5 l 1
 637.616266474 180.40142625 l 1
 637.5 180.5 l 1
 641 184 l 1
EndSplineSet
EndChar

StartChar: glyph181
Encoding: 437 983253 181
Width: 1000
VWidth: 0
Flags: W
HStem: 195 20<245 530 590 645>
VStem: 530 60<-79.5952 195 215 328>
LayerCount: 2
Fore
SplineSet
340.5 767.5 m 1
 370.5 753 l 1
 401 734.5 l 1
 432.5 712.5 l 1
 465 686.5 l 1
 498.5 657.5 l 1
 532.5 625 l 1
 568 590 l 1
 604.5 551 l 1
 641.5 509.5 l 1
 680 464.5 l 1
 686 442.5 l 1
 675 422.5 l 1
 653 416.5 l 1
 633 427.5 l 1
 597.5 473 l 1
 563.5 516 l 1
 530.5 556 l 1
 499 593.5 l 1
 468.5 627.5 l 1
 439 659 l 1
 411 687.5 l 1
 384.5 713.5 l 1
 359.5 737.5 l 1
 335.5 760 l 1
 340.5 767.5 l 1
645 215 m 1
 695 265 l 1
 755 215 l 1
 755 195 l 1
 590 195 l 1
 590 -111.375 l 1
 593 -111 l 1
 590 -121.5 l 1
 590 -138 l 1
 580.134408602 -138 l 1
 549.5 -175 l 1
 543 -167.5 l 1
 532.5 -154 l 1
 520 -139.5 l 1
 505 -123 l 1
 487.5 -106 l 1
 467.5 -87 l 1
 446 -67 l 1
 422 -46 l 1
 395.5 -23.5 l 1
 368 1 l 1
 338 27.5 l 1
 343.5 35 l 1
 378.5 16.5 l 1
 411.5 -1.5 l 1
 441.5 -19.5 l 1
 469 -37 l 1
 494 -54 l 1
 517 -70 l 1
 530 -79.5952380952 l 1
 530 195 l 1
 245 195 l 1
 245 215 l 1
 530 215 l 1
 530 357 l 1
 590 347 l 1
 605 337 l 1
 590 328 l 1
 590 215 l 1
 645 215 l 1
EndSplineSet
EndChar

StartChar: glyph182
Encoding: 438 983254 182
Width: 1000
VWidth: 0
Flags: W
HStem: 195 20<245 530 590 645>
VStem: 530 60<-79.5952 195 215 328>
LayerCount: 2
Fore
SplineSet
340.5 767.5 m 1
 370.5 753 l 1
 401 734.5 l 1
 432.5 712.5 l 1
 465 686.5 l 1
 498.5 657.5 l 1
 514.354259323 642.345193295 l 1
 520 647.5 l 1
 555 678.5 l 1
 590 709.5 l 1
 626 740 l 1
 662.5 769.5 l 1
 669 763 l 1
 639.5 726.5 l 1
 609 690.5 l 1
 578 655.5 l 1
 547 620.5 l 1
 542.293103448 615.344827586 l 1
 568 590 l 1
 604.5 551 l 1
 641.5 509.5 l 1
 680 464.5 l 1
 686 442.5 l 1
 675 422.5 l 1
 653 416.5 l 1
 633 427.5 l 1
 597.5 473 l 1
 563.5 516 l 1
 530.5 556 l 1
 510.191067831 580.177300201 l 1
 484.5 552 l 1
 453 518 l 1
 421.5 484 l 1
 390 450 l 1
 372.395860285 431.278137128 l 1
 376 413 l 1
 358.5 416.5 l 1
 309 452 l 1
 316 459 l 1
 349.5 490.5 l 1
 383.5 522 l 1
 417.5 553.5 l 1
 451.5 585 l 1
 481.823340471 612.647751606 l 1
 468.5 627.5 l 1
 439 659 l 1
 411 687.5 l 1
 384.5 713.5 l 1
 359.5 737.5 l 1
 335.5 760 l 1
 340.5 767.5 l 1
645 215 m 1
 695 265 l 1
 755 215 l 1
 755 195 l 1
 590 195 l 1
 590 -111.375 l 1
 593 -111 l 1
 590 -121.5 l 1
 590 -138 l 1
 580.134408602 -138 l 1
 549.5 -175 l 1
 543 -167.5 l 1
 532.5 -154 l 1
 520 -139.5 l 1
 505 -123 l 1
 487.5 -106 l 1
 467.5 -87 l 1
 446 -67 l 1
 422 -46 l 1
 395.5 -23.5 l 1
 368 1 l 1
 338 27.5 l 1
 343.5 35 l 1
 378.5 16.5 l 1
 411.5 -1.5 l 1
 441.5 -19.5 l 1
 469 -37 l 1
 494 -54 l 1
 517 -70 l 1
 530 -79.5952380952 l 1
 530 195 l 1
 245 195 l 1
 245 215 l 1
 530 215 l 1
 530 357 l 1
 590 347 l 1
 605 337 l 1
 590 328 l 1
 590 215 l 1
 645 215 l 1
EndSplineSet
EndChar

StartChar: glyph183
Encoding: 439 983255 183
Width: 1000
VWidth: 0
Flags: W
HStem: 195 20<245 530 590 645> 590 20<334 556>
VStem: 530 60<-79.5952 195 215 328>
LayerCount: 2
Fore
SplineSet
645 215 m 1
 695 265 l 1
 755 215 l 1
 755 195 l 1
 590 195 l 1
 590 -111.375 l 1
 593 -111 l 1
 590 -121.5 l 1
 590 -138 l 1
 580.134408602 -138 l 1
 549.5 -175 l 1
 543 -167.5 l 1
 532.5 -154 l 1
 520 -139.5 l 1
 505 -123 l 1
 487.5 -106 l 1
 467.5 -87 l 1
 446 -67 l 1
 422 -46 l 1
 395.5 -23.5 l 1
 368 1 l 1
 338 27.5 l 1
 343.5 35 l 1
 378.5 16.5 l 1
 411.5 -1.5 l 1
 441.5 -19.5 l 1
 469 -37 l 1
 494 -54 l 1
 517 -70 l 1
 530 -79.5952380952 l 1
 530 195 l 1
 245 195 l 1
 245 215 l 1
 530 215 l 1
 530 357 l 1
 590 347 l 1
 605 337 l 1
 590 328 l 1
 590 215 l 1
 645 215 l 1
556 610 m 1
 606 660 l 1
 666 610 l 1
 666 590 l 1
 334 590 l 1
 334 610 l 1
 556 610 l 1
EndSplineSet
EndChar

StartChar: glyph184
Encoding: 440 983256 184
Width: 1000
VWidth: 0
Flags: W
HStem: 210 20<251 435.342 496.929 696.818>
LayerCount: 2
Fore
SplineSet
471 353 m 1
 474.5 366.5 l 1
 530.5 343 l 1
 543 330 l 1
 525.19974953 324.596352536 l 1
 512.5 280.5 l 1
 496.929166667 230 l 1
 701 230 l 1
 731 255 l 1
 786 210 l 1
 761 195 l 1
 752.604026846 191.501677852 l 1
 744.5 168 l 1
 728.5 125.5 l 1
 712.5 84 l 1
 695.5 44.5 l 1
 677.5 6 l 1
 659 -31 l 1
 640 -67 l 1
 620 -100.5 l 1
 598.5 -133 l 1
 575.5 -163 l 1
 568 -158.5 l 1
 582 -124 l 1
 596 -88.5 l 1
 610.5 -52.5 l 1
 624.5 -15.5 l 1
 638.5 22 l 1
 652 61 l 1
 665 101.5 l 1
 678 142.5 l 1
 690 185 l 1
 696.818181818 210 l 1
 490.347826087 210 l 1
 474 163 l 1
 453.5 108.5 l 1
 432 57 l 1
 410 8 l 1
 386.5 -38 l 1
 362 -81 l 1
 336 -121 l 1
 308.5 -157 l 1
 301 -152.5 l 1
 319.5 -111.5 l 1
 338 -69 l 1
 356.5 -24 l 1
 375 23 l 1
 392.5 72 l 1
 410 124 l 1
 426.5 178.5 l 1
 435.342105263 210 l 1
 251 210 l 1
 251 230 l 1
 440.956140351 230 l 1
 442.5 235.5 l 1
 458 295.5 l 1
 471.430653365 352.927621283 l 1
 471 353 l 1
372.395860285 431.278137128 m 1
 376 413 l 1
 358.5 416.5 l 1
 309 452 l 1
 316 459 l 1
 349.5 490.5 l 1
 383.5 522 l 1
 417.5 553.5 l 1
 451.5 585 l 1
 485.5 616 l 1
 520 647.5 l 1
 555 678.5 l 1
 590 709.5 l 1
 626 740 l 1
 662.5 769.5 l 1
 669 763 l 1
 639.5 726.5 l 1
 609 690.5 l 1
 578 655.5 l 1
 547 620.5 l 1
 515.5 586 l 1
 484.5 552 l 1
 453 518 l 1
 421.5 484 l 1
 390 450 l 1
 372.395860285 431.278137128 l 1
EndSplineSet
EndChar

StartChar: glyph185
Encoding: 441 983257 185
Width: 1000
VWidth: 0
Flags: W
HStem: 610 20<251 435.342 496.929 696.818>
LayerCount: 2
Fore
SplineSet
471 753 m 1
 474.5 766.5 l 1
 530.5 743 l 1
 543 730 l 1
 525.19974953 724.596352536 l 1
 512.5 680.5 l 1
 496.929166667 630 l 1
 701 630 l 1
 731 655 l 1
 786 610 l 1
 761 595 l 1
 752.604026846 591.501677852 l 1
 744.5 568 l 1
 728.5 525.5 l 1
 712.5 484 l 1
 695.5 444.5 l 1
 677.5 406 l 1
 659 369 l 1
 640 333 l 1
 620 299.5 l 1
 598.5 267 l 1
 575.5 237 l 1
 568 241.5 l 1
 582 276 l 1
 596 311.5 l 1
 610.5 347.5 l 1
 624.5 384.5 l 1
 638.5 422 l 1
 652 461 l 1
 665 501.5 l 1
 678 542.5 l 1
 690 585 l 1
 696.818181818 610 l 1
 490.347826087 610 l 1
 474 563 l 1
 453.5 508.5 l 1
 432 457 l 1
 410 408 l 1
 386.5 362 l 1
 362 319 l 1
 336 279 l 1
 308.5 243 l 1
 301 247.5 l 1
 319.5 288.5 l 1
 338 331 l 1
 356.5 376 l 1
 375 423 l 1
 392.5 472 l 1
 410 524 l 1
 426.5 578.5 l 1
 435.342105263 610 l 1
 251 610 l 1
 251 630 l 1
 440.956140351 630 l 1
 442.5 635.5 l 1
 458 695.5 l 1
 471.430653365 752.927621283 l 1
 471 753 l 1
316 141.5 m 1
 314.5 143 l 1
 358.5 184 l 1
 376 187.5 l 1
 371.693972179 169.968315301 l 1
 390 150.5 l 1
 421.5 116.5 l 1
 453 82.5 l 1
 484.5 48.5 l 1
 515.5 14.5 l 1
 547 -20 l 1
 578 -55 l 1
 609 -90 l 1
 639.5 -126 l 1
 669 -162.5 l 1
 662.5 -169 l 1
 626 -139.5 l 1
 590 -109 l 1
 555 -78 l 1
 520 -47 l 1
 485.5 -15.5 l 1
 451.5 15.5 l 1
 417.5 47 l 1
 383.5 78.5 l 1
 349.5 110 l 1
 319.59857375 138.116266474 l 1
 319.5 138 l 1
 316 141.5 l 1
EndSplineSet
EndChar

StartChar: glyph186
Encoding: 442 983258 186
Width: 1000
VWidth: 0
Flags: W
HStem: -10 20<334 556> 610 20<251 435.342 496.929 696.818>
LayerCount: 2
Fore
SplineSet
471 753 m 1
 474.5 766.5 l 1
 530.5 743 l 1
 543 730 l 1
 525.19974953 724.596352536 l 1
 512.5 680.5 l 1
 496.929166667 630 l 1
 701 630 l 1
 731 655 l 1
 786 610 l 1
 761 595 l 1
 752.604026846 591.501677852 l 1
 744.5 568 l 1
 728.5 525.5 l 1
 712.5 484 l 1
 695.5 444.5 l 1
 677.5 406 l 1
 659 369 l 1
 640 333 l 1
 620 299.5 l 1
 598.5 267 l 1
 575.5 237 l 1
 568 241.5 l 1
 582 276 l 1
 596 311.5 l 1
 610.5 347.5 l 1
 624.5 384.5 l 1
 638.5 422 l 1
 652 461 l 1
 665 501.5 l 1
 678 542.5 l 1
 690 585 l 1
 696.818181818 610 l 1
 490.347826087 610 l 1
 474 563 l 1
 453.5 508.5 l 1
 432 457 l 1
 410 408 l 1
 386.5 362 l 1
 362 319 l 1
 336 279 l 1
 308.5 243 l 1
 301 247.5 l 1
 319.5 288.5 l 1
 338 331 l 1
 356.5 376 l 1
 375 423 l 1
 392.5 472 l 1
 410 524 l 1
 426.5 578.5 l 1
 435.342105263 610 l 1
 251 610 l 1
 251 630 l 1
 440.956140351 630 l 1
 442.5 635.5 l 1
 458 695.5 l 1
 471.430653365 752.927621283 l 1
 471 753 l 1
556 10 m 1
 606 60 l 1
 666 10 l 1
 666 -10 l 1
 334 -10 l 1
 334 10 l 1
 556 10 l 1
EndSplineSet
EndChar

StartChar: glyph187
Encoding: 443 983259 187
Width: 1000
VWidth: 0
Flags: W
HStem: 610 20<251 435.342 496.929 696.818>
LayerCount: 2
Fore
SplineSet
471 753 m 1
 474.5 766.5 l 1
 530.5 743 l 1
 543 730 l 1
 525.19974953 724.596352536 l 1
 512.5 680.5 l 1
 496.929166667 630 l 1
 701 630 l 1
 731 655 l 1
 786 610 l 1
 761 595 l 1
 752.604026846 591.501677852 l 1
 744.5 568 l 1
 728.5 525.5 l 1
 712.5 484 l 1
 695.5 444.5 l 1
 677.5 406 l 1
 659 369 l 1
 640 333 l 1
 620 299.5 l 1
 598.5 267 l 1
 575.5 237 l 1
 568 241.5 l 1
 582 276 l 1
 596 311.5 l 1
 610.5 347.5 l 1
 624.5 384.5 l 1
 638.5 422 l 1
 652 461 l 1
 665 501.5 l 1
 678 542.5 l 1
 690 585 l 1
 696.818181818 610 l 1
 490.347826087 610 l 1
 474 563 l 1
 453.5 508.5 l 1
 432 457 l 1
 410 408 l 1
 386.5 362 l 1
 362 319 l 1
 336 279 l 1
 308.5 243 l 1
 301 247.5 l 1
 319.5 288.5 l 1
 338 331 l 1
 356.5 376 l 1
 375 423 l 1
 392.5 472 l 1
 410 524 l 1
 426.5 578.5 l 1
 435.342105263 610 l 1
 251 610 l 1
 251 630 l 1
 440.956140351 630 l 1
 442.5 635.5 l 1
 458 695.5 l 1
 471.430653365 752.927621283 l 1
 471 753 l 1
641 184 m 1
 642.5 185.5 l 1
 683.5 141.5 l 1
 687 124 l 1
 669.468315301 128.306027821 l 1
 650 110 l 1
 616 78.5 l 1
 582 47 l 1
 548 15.5 l 1
 514 -15.5 l 1
 479.5 -47 l 1
 444.5 -78 l 1
 409.5 -109 l 1
 373.5 -139.5 l 1
 337 -169 l 1
 330.5 -162.5 l 1
 360 -126 l 1
 390.5 -90 l 1
 421.5 -55 l 1
 452.5 -20 l 1
 484 14.5 l 1
 515 48.5 l 1
 546.5 82.5 l 1
 578 116.5 l 1
 609.5 150.5 l 1
 637.616266474 180.40142625 l 1
 637.5 180.5 l 1
 641 184 l 1
EndSplineSet
EndChar

StartChar: glyph188
Encoding: 444 983260 188
Width: 1000
VWidth: 0
Flags: W
HStem: 210 20<251 435.342 496.929 696.818>
LayerCount: 2
Fore
SplineSet
471 353 m 1
 474.5 366.5 l 1
 530.5 343 l 1
 543 330 l 1
 525.19974953 324.596352536 l 1
 512.5 280.5 l 1
 496.929166667 230 l 1
 701 230 l 1
 731 255 l 1
 786 210 l 1
 761 195 l 1
 752.604026846 191.501677852 l 1
 744.5 168 l 1
 728.5 125.5 l 1
 712.5 84 l 1
 695.5 44.5 l 1
 677.5 6 l 1
 659 -31 l 1
 640 -67 l 1
 620 -100.5 l 1
 598.5 -133 l 1
 575.5 -163 l 1
 568 -158.5 l 1
 582 -124 l 1
 596 -88.5 l 1
 610.5 -52.5 l 1
 624.5 -15.5 l 1
 638.5 22 l 1
 652 61 l 1
 665 101.5 l 1
 678 142.5 l 1
 690 185 l 1
 696.818181818 210 l 1
 490.347826087 210 l 1
 474 163 l 1
 453.5 108.5 l 1
 432 57 l 1
 410 8 l 1
 386.5 -38 l 1
 362 -81 l 1
 336 -121 l 1
 308.5 -157 l 1
 301 -152.5 l 1
 319.5 -111.5 l 1
 338 -69 l 1
 356.5 -24 l 1
 375 23 l 1
 392.5 72 l 1
 410 124 l 1
 426.5 178.5 l 1
 435.342105263 210 l 1
 251 210 l 1
 251 230 l 1
 440.956140351 230 l 1
 442.5 235.5 l 1
 458 295.5 l 1
 471.430653365 352.927621283 l 1
 471 353 l 1
340.5 767.5 m 1
 370.5 753 l 1
 401 734.5 l 1
 432.5 712.5 l 1
 465 686.5 l 1
 498.5 657.5 l 1
 532.5 625 l 1
 568 590 l 1
 604.5 551 l 1
 641.5 509.5 l 1
 680 464.5 l 1
 686 442.5 l 1
 675 422.5 l 1
 653 416.5 l 1
 633 427.5 l 1
 597.5 473 l 1
 563.5 516 l 1
 530.5 556 l 1
 499 593.5 l 1
 468.5 627.5 l 1
 439 659 l 1
 411 687.5 l 1
 384.5 713.5 l 1
 359.5 737.5 l 1
 335.5 760 l 1
 340.5 767.5 l 1
EndSplineSet
EndChar

StartChar: glyph189
Encoding: 445 983261 189
Width: 1000
VWidth: 0
Flags: W
HStem: 210 20<251 435.342 496.929 696.818>
LayerCount: 2
Fore
SplineSet
471 353 m 1
 474.5 366.5 l 1
 530.5 343 l 1
 543 330 l 1
 525.19974953 324.596352536 l 1
 512.5 280.5 l 1
 496.929166667 230 l 1
 701 230 l 1
 731 255 l 1
 786 210 l 1
 761 195 l 1
 752.604026846 191.501677852 l 1
 744.5 168 l 1
 728.5 125.5 l 1
 712.5 84 l 1
 695.5 44.5 l 1
 677.5 6 l 1
 659 -31 l 1
 640 -67 l 1
 620 -100.5 l 1
 598.5 -133 l 1
 575.5 -163 l 1
 568 -158.5 l 1
 582 -124 l 1
 596 -88.5 l 1
 610.5 -52.5 l 1
 624.5 -15.5 l 1
 638.5 22 l 1
 652 61 l 1
 665 101.5 l 1
 678 142.5 l 1
 690 185 l 1
 696.818181818 210 l 1
 490.347826087 210 l 1
 474 163 l 1
 453.5 108.5 l 1
 432 57 l 1
 410 8 l 1
 386.5 -38 l 1
 362 -81 l 1
 336 -121 l 1
 308.5 -157 l 1
 301 -152.5 l 1
 319.5 -111.5 l 1
 338 -69 l 1
 356.5 -24 l 1
 375 23 l 1
 392.5 72 l 1
 410 124 l 1
 426.5 178.5 l 1
 435.342105263 210 l 1
 251 210 l 1
 251 230 l 1
 440.956140351 230 l 1
 442.5 235.5 l 1
 458 295.5 l 1
 471.430653365 352.927621283 l 1
 471 353 l 1
340.5 767.5 m 1
 370.5 753 l 1
 401 734.5 l 1
 432.5 712.5 l 1
 465 686.5 l 1
 498.5 657.5 l 1
 514.354259323 642.345193295 l 1
 520 647.5 l 1
 555 678.5 l 1
 590 709.5 l 1
 626 740 l 1
 662.5 769.5 l 1
 669 763 l 1
 639.5 726.5 l 1
 609 690.5 l 1
 578 655.5 l 1
 547 620.5 l 1
 542.293103448 615.344827586 l 1
 568 590 l 1
 604.5 551 l 1
 641.5 509.5 l 1
 680 464.5 l 1
 686 442.5 l 1
 675 422.5 l 1
 653 416.5 l 1
 633 427.5 l 1
 597.5 473 l 1
 563.5 516 l 1
 530.5 556 l 1
 510.191067831 580.177300201 l 1
 484.5 552 l 1
 453 518 l 1
 421.5 484 l 1
 390 450 l 1
 372.395860285 431.278137128 l 1
 376 413 l 1
 358.5 416.5 l 1
 309 452 l 1
 316 459 l 1
 349.5 490.5 l 1
 383.5 522 l 1
 417.5 553.5 l 1
 451.5 585 l 1
 481.823340471 612.647751606 l 1
 468.5 627.5 l 1
 439 659 l 1
 411 687.5 l 1
 384.5 713.5 l 1
 359.5 737.5 l 1
 335.5 760 l 1
 340.5 767.5 l 1
EndSplineSet
EndChar

